<svg width="200" height="85" viewBox="0 0 200 85" fill="none" xmlns="http://www.w3.org/2000/svg">
<g id="Frame 8">
<rect width="200" height="85" rx="8" fill="#EFBDEC"/>
<g id="Group 19">
<g id="Group 9">
<path id="Subtract" d="M119.86 61.0589C108.639 61.1203 97.3728 62.3417 87.1254 66.4598C84.426 67.5447 81.8681 68.7351 79.4793 70.0274C78.0528 70.7991 79.08 72.7448 80.6641 72.3372C100.19 67.3129 127.031 66.9117 156.437 71.6683C157.165 71.786 157.846 71.347 158.014 70.6446L159.083 66.1697C159.268 65.3921 158.765 64.5854 157.967 64.4033C147.909 62.1089 134.8 60.9771 119.86 61.0589Z" fill="white" fill-opacity="0.3"/>
<g id="my halal">
<path d="M46.8855 27.2865V30.2292H46.916V40.2925C46.916 40.8109 47.0075 41.1718 47.1905 41.3751C47.3734 41.5682 47.8207 41.7207 48.5323 41.8325V42.4272H41V41.8325C41.7624 41.7004 42.2503 41.5327 42.4638 41.3294C42.6772 41.1159 42.784 40.7347 42.784 40.1858V30.1835C42.784 29.726 42.7281 29.416 42.6162 29.2534C42.5044 29.0907 42.2401 28.9383 41.8234 28.7959L41 28.5367V27.9878L46.8855 27.2865ZM51.9172 27.195C53.4114 27.195 54.5906 27.5863 55.4546 28.369C56.3186 29.1517 56.7506 30.3054 56.7506 31.8302V40.2925C56.7506 40.8109 56.8421 41.1667 57.0251 41.3599C57.2081 41.553 57.6553 41.7105 58.3669 41.8325V42.4272H51.0176V41.8325C51.719 41.7105 52.1611 41.553 52.3441 41.3599C52.5271 41.1667 52.6186 40.8109 52.6186 40.2925V32.3181C52.6186 31.1898 52.3746 30.3512 51.8867 29.8023C51.3988 29.2432 50.7025 28.9637 49.7978 28.9637C49.0964 28.9637 48.4967 29.1161 47.9986 29.4211C47.5107 29.7159 47.1142 30.1479 46.8093 30.7171V30.1377C47.2362 29.2432 47.8919 28.5317 48.7762 28.0031C49.6606 27.4643 50.7076 27.195 51.9172 27.195ZM61.6451 27.195C63.119 27.195 64.3134 27.5863 65.2282 28.369C66.1431 29.1517 66.6005 30.341 66.6005 31.9369V40.1858C66.6005 40.7347 66.7072 41.1159 66.9207 41.3294C67.1341 41.5327 67.617 41.7004 68.3692 41.8325V42.4272H60.8522V41.8325C61.5536 41.7105 61.9958 41.553 62.1787 41.3599C62.3617 41.1667 62.4532 40.8109 62.4532 40.2925V32.3181C62.4532 31.1898 62.2041 30.3512 61.7061 29.8023C61.208 29.2432 60.5015 28.9637 59.5867 28.9637C58.8751 28.9637 58.25 29.1161 57.7112 29.4211C57.1826 29.7159 56.7659 30.1581 56.4609 30.7476V30.1682C56.8879 29.2432 57.5638 28.5164 58.4888 27.9878C59.4139 27.4593 60.4659 27.195 61.6451 27.195Z" fill="#60155B"/>
<path d="M68.5235 30.5189C68.2795 29.909 68.0508 29.4465 67.8374 29.1314C67.6341 28.8061 67.4053 28.5723 67.1512 28.43C66.8971 28.2775 66.5667 28.1606 66.1601 28.0793V27.4847H74.3633V28.0793C73.4789 28.2013 72.9554 28.4351 72.7928 28.7807C72.6403 29.1263 72.742 29.8074 73.0977 30.8239L75.9033 38.6001H75.5831L78.3276 30.9153C78.5716 30.2038 78.6986 29.66 78.7088 29.2839C78.7291 28.9078 78.6071 28.6333 78.3429 28.4605C78.0887 28.2877 77.672 28.1606 77.0926 28.0793V27.4847H82.048V28.0793C81.6312 28.1606 81.2856 28.2877 81.0112 28.4605C80.7469 28.6231 80.4978 28.9027 80.264 29.2991C80.0302 29.6955 79.7558 30.275 79.4407 31.0373L76.3607 38.6153L74.6072 42.8236L72.2896 49.441H69.1791V49.3953C69.6569 48.887 70.1702 48.2619 70.7191 47.5198C71.268 46.7778 71.8017 45.9951 72.3201 45.1717C72.8487 44.3585 73.2959 43.5911 73.6619 42.8694L68.5235 30.5189Z" fill="#60155B"/>
<path d="M91.7643 19.7085V30.0005C92.1709 29.167 92.8113 28.491 93.6855 27.9726C94.5596 27.4542 95.6016 27.195 96.8112 27.195C98.3156 27.195 99.5405 27.5863 100.486 28.369C101.441 29.1416 101.919 30.3309 101.919 31.9369V40.1858C101.919 40.7347 102.021 41.1159 102.224 41.3294C102.427 41.5327 102.915 41.7004 103.688 41.8325V42.4272H96.1708V41.8325C96.862 41.7105 97.2991 41.553 97.4821 41.3599C97.6752 41.1667 97.7718 40.8109 97.7718 40.2925V32.3334C97.7718 31.205 97.5075 30.3614 96.9789 29.8023C96.4503 29.2432 95.7083 28.9637 94.7528 28.9637C94.0514 28.9637 93.4466 29.1111 92.9383 29.4058C92.4301 29.6905 92.0387 30.0717 91.7643 30.5494V41.5568C91.7643 42.0753 91.8558 42.431 92.0387 42.6242C92.2217 42.8173 92.669 42.9749 93.3805 43.0968V43.7771L93.0816 43.7939C90.6203 43.9321 88.188 44.3953 85.8483 45.1717V44.2709C86.6106 44.1387 87.0986 43.971 87.312 43.7677C87.5255 43.5543 87.6322 43.1731 87.6322 42.6242V22.6055C87.6322 22.1481 87.5763 21.838 87.4645 21.6754C87.3527 21.5127 87.0884 21.3552 86.6716 21.2027L85.8483 20.9588V20.4098L91.7643 19.7085Z" fill="#60155B"/>
<path d="M107.837 42.7016C106.566 42.7016 105.524 42.3713 104.711 41.7105C103.898 41.0498 103.491 40.1655 103.491 39.0575C103.491 38.3053 103.695 37.6344 104.101 37.0448C104.508 36.4553 105.164 35.947 106.068 35.5201C106.973 35.083 108.162 34.712 109.636 34.407L113.6 33.5836V34.2698L111.359 34.773C110.414 34.9864 109.667 35.2609 109.118 35.5963C108.569 35.9318 108.177 36.3333 107.944 36.8009C107.71 37.2583 107.593 37.7919 107.593 38.4018C107.593 39.276 107.832 39.9469 108.31 40.4145C108.798 40.8821 109.392 41.1159 110.094 41.1159C110.673 41.1159 111.181 40.999 111.618 40.7652C112.055 40.5314 112.401 40.1909 112.655 39.7436V32.1351C112.655 30.7019 112.32 29.6905 111.649 29.1009C110.978 28.5012 110.058 28.2013 108.889 28.2013C108.177 28.2013 107.517 28.3131 106.907 28.5367C106.297 28.7604 105.794 29.0755 105.397 29.4821C105.011 29.8887 104.787 30.3563 104.726 30.8849H104.3C104.31 30.3258 104.493 29.8531 104.848 29.4668C105.214 29.0704 105.626 28.8722 106.083 28.8722C106.602 28.8722 107.044 29.0552 107.41 29.4211C107.776 29.787 107.959 30.2394 107.959 30.7781C107.959 31.3067 107.766 31.754 107.38 32.1199C107.003 32.4858 106.541 32.6688 105.992 32.6688C105.453 32.6688 104.991 32.4909 104.604 32.1351C104.228 31.7692 104.04 31.3169 104.04 30.7781C104.04 30.1174 104.305 29.5177 104.833 28.9789C105.362 28.43 106.099 27.998 107.044 27.6829C108 27.3576 109.108 27.195 110.368 27.195C112.31 27.195 113.85 27.5863 114.988 28.369C116.126 29.1517 116.696 30.3868 116.696 32.0742V39.6064C116.696 40.257 116.838 40.7296 117.123 41.0244C117.417 41.3192 117.783 41.4666 118.22 41.4666C118.454 41.4666 118.663 41.4361 118.846 41.3751V41.9393C118.592 42.1114 118.257 42.2593 117.842 42.383C117.792 42.3981 117.74 42.4128 117.687 42.4272C117.595 42.4538 117.502 42.478 117.407 42.4997C116.995 42.5936 116.55 42.6406 116.071 42.6406C115.511 42.6406 114.993 42.5492 114.515 42.3662C114.048 42.1832 113.651 41.9189 113.326 41.5733C113.011 41.2175 112.808 40.7804 112.716 40.262C112.513 40.7398 112.177 41.1667 111.71 41.5428C111.242 41.9088 110.678 42.1934 110.017 42.3967C109.357 42.6 108.63 42.7016 107.837 42.7016Z" fill="#60155B"/>
<path d="M123.757 19.7085V40.1858C123.757 40.7347 123.864 41.1159 124.077 41.3294C124.291 41.5327 124.774 41.7004 125.526 41.8325V42.4272H118.066H117.841L117.842 42.383L117.861 41.6429C118.623 41.5107 119.039 41.3254 119.253 41.1221C119.466 40.9086 119.625 40.7347 119.625 40.1858V22.6055C119.625 22.1481 119.569 21.838 119.457 21.6754C119.345 21.5127 119.081 21.3552 118.664 21.2027L117.841 20.9588V20.4098L123.757 19.7085Z" fill="#60155B"/>
<path d="M129.766 42.7016C128.496 42.7016 127.454 42.3713 126.641 41.7105C125.827 41.0498 125.421 40.1655 125.421 39.0575C125.421 38.3053 125.624 37.6344 126.031 37.0448C126.437 36.4553 127.093 35.947 127.998 35.5201C128.902 35.083 130.092 34.712 131.566 34.407L135.53 33.5836V34.2698L133.289 34.773C132.343 34.9864 131.596 35.2609 131.047 35.5963C130.498 35.9318 130.107 36.3333 129.873 36.8009C129.639 37.2583 129.522 37.7919 129.522 38.4018C129.522 39.276 129.761 39.9469 130.239 40.4145C130.727 40.8821 131.322 41.1159 132.023 41.1159C132.602 41.1159 133.111 40.999 133.548 40.7652C133.985 40.5314 134.33 40.1909 134.585 39.7436V32.1351C134.585 30.7019 134.249 29.6905 133.578 29.1009C132.907 28.5012 131.987 28.2013 130.818 28.2013C130.107 28.2013 129.446 28.3131 128.836 28.5367C128.226 28.7604 127.723 29.0755 127.327 29.4821C126.941 29.8887 126.717 30.3563 126.656 30.8849H126.229C126.239 30.3258 126.422 29.8531 126.778 29.4668C127.144 29.0704 127.556 28.8722 128.013 28.8722C128.531 28.8722 128.974 29.0552 129.339 29.4211C129.705 29.787 129.888 30.2394 129.888 30.7781C129.888 31.3067 129.695 31.754 129.309 32.1199C128.933 32.4858 128.47 32.6688 127.921 32.6688C127.383 32.6688 126.92 32.4909 126.534 32.1351C126.158 31.7692 125.97 31.3169 125.97 30.7781C125.97 30.1174 126.234 29.5177 126.763 28.9789C127.291 28.43 128.028 27.998 128.974 27.6829C129.929 27.3576 131.037 27.195 132.298 27.195C134.239 27.195 135.779 27.5863 136.917 28.369C138.056 29.1517 138.625 30.3868 138.625 32.0742V39.6064C138.625 40.257 138.768 40.7296 139.052 41.0244C139.347 41.3192 139.713 41.4666 140.15 41.4666C140.384 41.4666 140.592 41.4361 140.775 41.3751V41.9393C140.49 42.1324 140.104 42.295 139.616 42.4272C139.516 42.4565 139.413 42.4829 139.308 42.5062C138.904 42.5958 138.468 42.6406 138 42.6406C137.441 42.6406 136.923 42.5492 136.445 42.3662C135.977 42.1832 135.581 41.9189 135.256 41.5733C134.94 41.2175 134.737 40.7804 134.646 40.262C134.442 40.7398 134.107 41.1667 133.639 41.5428C133.172 41.9088 132.608 42.1934 131.947 42.3967C131.286 42.6 130.559 42.7016 129.766 42.7016Z" fill="#60155B"/>
<path d="M145.687 19.7085V40.1858C145.687 40.7347 145.793 41.1159 146.007 41.3294C146.22 41.5327 146.703 41.7004 147.455 41.8325V42.4272L140.074 42.3851L139.771 42.3834V41.5733C140.533 41.4412 140.961 41.3677 141.174 41.1644C141.388 40.9509 141.555 40.7347 141.555 40.1858V22.6055C141.555 22.1481 141.499 21.838 141.387 21.6754C141.275 21.5127 141.011 21.3552 140.594 21.2027L139.771 20.9588V20.4098L145.687 19.7085Z" fill="#60155B"/>
<path d="M139.771 42.3834C139.72 42.3983 139.669 42.4129 139.616 42.4272C139.516 42.4565 139.413 42.4829 139.308 42.5062L139.441 42.471C139.648 42.4164 139.86 42.3875 140.074 42.3851L139.771 42.3834Z" fill="#60155B"/>
<path d="M117.842 42.383C117.792 42.3981 117.74 42.4128 117.687 42.4272C117.595 42.4538 117.502 42.478 117.407 42.4997C117.622 42.4515 117.846 42.4272 118.066 42.4272H117.841L117.842 42.383Z" fill="#60155B"/>
</g>
<g id="brows">
<path d="M93.9515 57.1252C93.9515 58.7617 93.6263 60.1696 92.9757 61.3487C92.3353 62.5278 91.4764 63.4325 90.3989 64.0627C89.3316 64.693 88.1473 65.0081 86.8462 65.0081C85.8196 65.0081 84.9301 64.8048 84.1779 64.3982C83.4257 63.9814 82.8921 63.4528 82.5769 62.8125L80.8387 64.7336H78.7651V44.9119C78.7651 44.4545 78.7092 44.1445 78.5974 43.9818C78.4855 43.8192 78.2213 43.6617 77.8045 43.5092L76.9964 43.2652V42.7163C78.9602 42.7163 80.9006 42.2893 82.683 41.4649L82.8971 41.3658V52.3527C83.2936 51.4785 83.9289 50.7873 84.8031 50.279C85.6773 49.7606 86.6734 49.5014 87.7916 49.5014C88.8996 49.5014 89.9211 49.8013 90.8563 50.401C91.7915 50.9906 92.5386 51.8546 93.0977 52.9931C93.6669 54.1214 93.9515 55.4988 93.9515 57.1252ZM89.6518 57.5521C89.6518 56.2408 89.484 55.1176 89.1486 54.1824C88.8233 53.2371 88.371 52.5153 87.7916 52.0173C87.2122 51.509 86.5514 51.2549 85.8094 51.2549C85.1284 51.2549 84.5439 51.4023 84.0559 51.6971C83.568 51.9817 83.1818 52.3781 82.8971 52.8864V62.3245C83.1106 62.7515 83.4613 63.1123 83.9492 63.4071C84.4371 63.7019 84.986 63.8493 85.5959 63.8493C86.4091 63.8493 87.1207 63.6002 87.7306 63.1022C88.3405 62.5939 88.8132 61.8671 89.1486 60.9218C89.484 59.9764 89.6518 58.8532 89.6518 57.5521Z" fill="white"/>
<path d="M99.8389 49.5929L99.8236 53.4505C100.617 52.1189 101.348 51.138 102.019 50.5078C102.69 49.8775 103.376 49.5624 104.078 49.5624C104.698 49.5624 105.15 49.7606 105.435 50.1571C105.729 50.5535 105.877 51.0363 105.877 51.6056C105.877 51.88 105.841 52.1443 105.77 52.3984C105.709 52.6526 105.633 52.8508 105.541 52.9931C105.358 52.9321 105.094 52.8813 104.749 52.8406C104.403 52.7898 104.037 52.7644 103.651 52.7644C102.899 52.7644 102.172 52.866 101.47 53.0693C100.769 53.2726 100.235 53.5471 99.8694 53.8927V62.4008C99.8694 62.787 99.91 63.092 99.9914 63.3156C100.083 63.5393 100.271 63.7121 100.556 63.834C100.84 63.9459 101.267 64.0475 101.836 64.139V64.7336H93.9534V64.139C94.7259 64.017 95.2138 63.8544 95.4171 63.6511C95.6306 63.4376 95.7373 63.0717 95.7373 62.5532V52.4899C95.7373 52.0325 95.6814 51.7225 95.5696 51.5598C95.4578 51.3972 95.1935 51.2447 94.7767 51.1024L93.9534 50.8432V50.2943L99.8389 49.5929Z" fill="white"/>
<path d="M112.969 65.0081C111.454 65.0081 110.087 64.693 108.867 64.0627C107.647 63.4325 106.682 62.5431 105.97 61.3944C105.259 60.2356 104.903 58.8735 104.903 57.3081C104.903 55.7631 105.259 54.406 105.97 53.2371C106.692 52.0681 107.668 51.1532 108.898 50.4925C110.128 49.8318 111.51 49.5014 113.045 49.5014C114.56 49.5014 115.927 49.8165 117.147 50.4468C118.366 51.077 119.332 51.9715 120.044 53.1303C120.755 54.2891 121.111 55.6512 121.111 57.2166C121.111 58.7516 120.75 60.1035 120.028 61.2725C119.317 62.4414 118.346 63.3563 117.116 64.017C115.886 64.6777 114.504 65.0081 112.969 65.0081ZM113.06 64.2C113.833 64.2 114.488 63.9255 115.027 63.3766C115.566 62.8175 115.973 62.0298 116.247 61.0133C116.532 59.9866 116.674 58.777 116.674 57.3844C116.674 55.9409 116.521 54.6906 116.216 53.6335C115.912 52.5763 115.48 51.758 114.92 51.1786C114.361 50.5992 113.706 50.3095 112.954 50.3095C112.181 50.3095 111.525 50.5891 110.987 51.1482C110.458 51.7072 110.051 52.495 109.767 53.5115C109.482 54.528 109.34 55.7376 109.34 57.1404C109.34 58.5838 109.492 59.8341 109.797 60.8913C110.112 61.9484 110.544 62.7667 111.093 63.3461C111.652 63.9154 112.308 64.2 113.06 64.2Z" fill="white"/>
<path d="M121.906 52.8254C121.702 52.2256 121.494 51.7682 121.28 51.4531C121.077 51.1278 120.838 50.8889 120.564 50.7365C120.3 50.584 119.964 50.4671 119.558 50.3858V49.7911H127.578V50.3858C127.049 50.4569 126.668 50.5789 126.434 50.7517C126.21 50.9245 126.104 51.2091 126.114 51.6056C126.134 51.9918 126.246 52.5509 126.449 53.2828L128.858 61.3944H128.554L131.115 53.2523C131.339 52.5408 131.456 51.9918 131.466 51.6056C131.476 51.2193 131.369 50.9398 131.146 50.767C130.922 50.584 130.561 50.4569 130.063 50.3858V49.7911H137.595V50.3858C137.087 50.4569 136.721 50.5789 136.497 50.7517C136.274 50.9245 136.167 51.2091 136.177 51.6056C136.187 51.9918 136.299 52.5509 136.513 53.2828L139.013 61.3944H138.708L141.209 53.3285C141.433 52.5865 141.549 52.0173 141.56 51.6208C141.57 51.2244 141.453 50.9398 141.209 50.767C140.975 50.5942 140.599 50.4671 140.081 50.3858V49.7911H144.823V50.3858C144.426 50.4671 144.091 50.5942 143.816 50.767C143.542 50.9296 143.288 51.2193 143.054 51.6361C142.83 52.0427 142.576 52.6526 142.291 53.4658L138.281 64.7336H136.208L131.923 52.5204H132.518L128.127 64.7336H126.068L121.906 52.8254Z" fill="white"/>
<path d="M143.681 54.1214C143.681 53.1456 143.945 52.312 144.474 51.6208C145.002 50.9296 145.744 50.4061 146.7 50.0503C147.665 49.6844 148.784 49.5014 150.054 49.5014C151.122 49.5014 152.052 49.598 152.845 49.7911C153.637 49.9741 154.227 50.1825 154.613 50.4163L154.674 54.3044H154.125C153.851 53.0236 153.353 52.0427 152.631 51.3616C151.92 50.6704 151.071 50.3248 150.085 50.3248C149.16 50.3248 148.448 50.5332 147.95 50.9499C147.452 51.3667 147.203 51.9004 147.203 52.5509C147.203 53.2116 147.437 53.7301 147.904 54.1062C148.382 54.4721 149.068 54.8025 149.963 55.0972L151.167 55.4937C152.56 55.9409 153.622 56.5508 154.354 57.3234C155.096 58.0959 155.467 59.1022 155.467 60.3424C155.467 61.3284 155.172 62.1721 154.583 62.8734C154.003 63.5647 153.226 64.0932 152.25 64.4592C151.274 64.815 150.207 64.9928 149.048 64.9928C148.326 64.9928 147.63 64.942 146.959 64.8404C146.288 64.7387 145.673 64.6015 145.114 64.4287C144.565 64.2457 144.113 64.0424 143.757 63.8188L143.605 59.5952H144.153C144.367 60.5508 144.718 61.3741 145.206 62.0653C145.704 62.7464 146.283 63.2699 146.944 63.6358C147.604 64.0018 148.286 64.1847 148.987 64.1847C149.902 64.1847 150.623 63.9662 151.152 63.5291C151.681 63.0818 151.945 62.5228 151.945 61.8519C151.945 61.181 151.731 60.6372 151.305 60.2204C150.878 59.8036 150.202 59.4428 149.277 59.1378L148.057 58.7414C146.695 58.2941 145.622 57.7096 144.84 56.9879C144.067 56.2561 143.681 55.3005 143.681 54.1214Z" fill="white"/>
</g>
<path id="Star 1" d="M149.592 10L150.601 14.9735L155.077 16.0939L150.601 17.2142L149.592 22.1877L148.584 17.2142L144.108 16.0939L148.584 14.9735L149.592 10Z" fill="#60155B"/>
</g>
<path id="&#226;&#132;&#162;" d="M157.044 50.516H156.505V50.2436H157.873V50.516H157.334V51.9825H157.044V50.516ZM158.226 50.2436H158.505L159.113 51.2927L159.71 50.2436H160V51.9825H159.71V50.7421L159.113 51.7912L158.505 50.7421V51.9825H158.226V50.2436Z" fill="#EFBDEC"/>
</g>
</g>
</svg>
