<svg width="200" height="85" viewBox="0 0 200 85" fill="none" xmlns="http://www.w3.org/2000/svg">
<rect width="200" height="85" rx="8" fill="#0C131F"/>
<g clip-path="url(#clip0_1_717)">
<path d="M67.3978 22H42.8383C39.9927 22.0439 37.2786 23.1991 35.2818 25.2162C33.2851 27.2334 32.1659 29.9507 32.1659 32.7815C32.1659 35.6124 33.2851 38.3297 35.2818 40.3469C37.2786 42.3641 39.9927 43.5193 42.8383 43.5631H67.3978C70.2434 43.5193 72.9575 42.3641 74.9543 40.3469C76.951 38.3297 78.0702 35.6124 78.0702 32.7815C78.0702 29.9507 76.951 27.2334 74.9543 25.2162C72.9575 23.1991 70.2434 22.0439 67.3978 22ZM66.9553 40.6247C65.3955 40.6247 63.8708 40.1646 62.5739 39.3027C61.277 38.4407 60.2662 37.2156 59.6693 35.7822C59.0724 34.3488 58.9162 32.7715 59.2205 31.2499C59.5248 29.7282 60.2759 28.3305 61.3788 27.2334C62.4817 26.1363 63.8869 25.3892 65.4168 25.0866C66.9465 24.7839 68.5322 24.9392 69.9732 25.533C71.4143 26.1267 72.6459 27.1321 73.5125 28.4221C74.379 29.7121 74.8416 31.2288 74.8416 32.7803C74.8419 33.8114 74.6378 34.8324 74.241 35.785C73.8441 36.7375 73.2623 37.6029 72.5288 38.3315C71.7953 39.0601 70.9246 39.6378 69.9664 40.0312C69.0083 40.4247 67.9815 40.6264 66.9448 40.6247H66.9553Z" fill="#8DE8FE"/>
<path d="M91.1373 22C88.9938 22 86.8984 22.6323 85.1162 23.8168C83.3339 25.0013 81.9448 26.685 81.1245 28.6548C80.3042 30.6246 80.0896 32.7922 80.5078 34.8834C80.9259 36.9745 81.9582 38.8954 83.4739 40.4031C84.9895 41.9107 86.9206 42.9374 89.0229 43.3534C91.1253 43.7693 93.3044 43.5559 95.2847 42.7399C97.2651 41.924 98.9577 40.5422 100.149 38.7694C101.339 36.9967 101.975 34.9124 101.975 32.7803C101.975 31.3646 101.695 29.9628 101.15 28.6548C100.605 27.3469 99.8071 26.1585 98.8008 25.1575C97.7944 24.1564 96.5997 23.3624 95.2847 22.8206C93.9698 22.2788 92.5605 22 91.1373 22Z" fill="white"/>
<path d="M50.3264 51.5887C48.5826 51.5887 47.1849 52.6242 46.6826 53.8074H46.6331V53.2456C46.6331 51.9304 45.6779 51.7103 45.2355 51.7103C44.793 51.7103 43.8378 51.9304 43.8378 53.2456V62.2266C43.8378 63.6168 44.819 63.8601 45.3083 63.8601C45.7977 63.8601 46.7815 63.6168 46.7815 62.2266V57.2092C46.7815 55.6559 47.6638 54.0378 49.53 54.0378C51.3961 54.0378 51.7371 55.7698 51.7371 57.1626V62.2369C51.7371 63.6271 52.7183 63.8705 53.2076 63.8705C53.6969 63.8705 54.6808 63.6271 54.6808 62.2369V56.3212C54.6677 53.929 53.3924 51.5887 50.3264 51.5887Z" fill="#8DE8FE"/>
<path d="M37.4663 56.5645C35.8214 56.1737 34.9156 55.9562 34.9156 55.0526C34.9156 54.1491 35.8708 53.7841 36.8026 53.7841C37.5296 53.7725 38.2361 54.0236 38.7911 54.4909C39.0295 54.6993 39.3327 54.82 39.65 54.8326C39.8093 54.838 39.9679 54.8108 40.1162 54.7526C40.2644 54.6944 40.3989 54.6064 40.5115 54.4942C40.624 54.382 40.7122 54.248 40.7704 54.1004C40.8286 53.9528 40.8557 53.7949 40.8498 53.6365C40.8498 53.2948 40.7015 52.9064 40.1367 52.4896C39.3038 51.8812 38.0545 51.5887 36.8755 51.5887C34.533 51.5887 32.1905 52.7097 32.1905 55.3219C32.1905 57.5406 33.9344 58.2499 35.6756 58.6642C37.4663 59.0784 38.4033 59.3477 38.4033 60.3159C38.4033 61.3644 37.3492 61.7062 36.4903 61.7062C35.6643 61.6981 34.8668 61.4053 34.2337 60.8777C33.9544 60.634 33.5979 60.4957 33.2264 60.4868C33.0626 60.486 32.9003 60.5181 32.7491 60.581C32.598 60.644 32.4611 60.7366 32.3467 60.8533C32.2323 60.9699 32.1427 61.1084 32.0833 61.2602C32.0238 61.4121 31.9957 61.5743 32.0005 61.7373C32.0103 61.9699 32.0753 62.197 32.1902 62.3999C32.3051 62.6029 32.4666 62.7759 32.6616 62.9049C33.596 63.6116 35.0666 63.9766 36.3679 63.9766C38.942 63.9766 41.2741 62.941 41.2741 60.0725C41.2741 57.7606 39.2127 56.9788 37.4663 56.5645Z" fill="#8DE8FE"/>
<path d="M63.7201 54.0275C64.3199 54.0212 64.9055 54.2094 65.3884 54.5633C65.6606 54.802 66.0071 54.9401 66.3696 54.9543C66.5381 54.9574 66.7053 54.9267 66.8614 54.8642C67.0176 54.8015 67.1595 54.7082 67.2786 54.5898C67.3976 54.4713 67.4914 54.3302 67.5544 54.1749C67.6174 54.0195 67.6482 53.8532 67.645 53.6857C67.645 53.344 67.4966 52.8805 66.8095 52.4171C65.8827 51.8479 64.809 51.56 63.7201 51.5887C60.2611 51.5887 57.4162 53.9782 57.4162 57.7839C57.4162 61.6906 60.1881 63.9818 63.6941 63.9818C64.7013 63.9818 66.0001 63.723 66.8356 63.1301C67.4966 62.6667 67.6163 62.2498 67.6163 61.8356C67.6201 61.6789 67.5914 61.5232 67.5321 61.378C67.4728 61.2328 67.3842 61.1013 67.2717 60.9916C67.1592 60.8819 67.0252 60.7963 66.8782 60.7402C66.731 60.6841 66.5739 60.6586 66.4165 60.6654C66.0687 60.6933 65.7362 60.82 65.4587 61.0305C64.941 61.3641 64.3342 61.5346 63.7175 61.5198C61.5104 61.5198 60.4797 59.6143 60.4797 57.7839C60.4797 55.9536 61.5598 54.0275 63.7201 54.0275Z" fill="#8DE8FE"/>
<path d="M76.8508 47.3894C77.7827 47.3894 78.2251 46.8535 78.2251 46.1959C78.2251 45.3158 77.5875 44.9015 76.3616 44.9015C72.952 44.9015 71.8459 47.3894 71.8459 50.1959V51.9304H70.7188C69.5892 51.9304 69.394 52.7071 69.394 53.1006C69.394 53.4941 69.5892 54.2708 70.7188 54.2708H71.8459V62.2266C71.8459 63.6168 72.853 63.8601 73.319 63.8601C73.7849 63.8601 74.7895 63.6168 74.7895 62.2266V54.2708H76.4084C77.538 54.2708 77.7332 53.4941 77.7332 53.1006C77.7332 52.7071 77.538 51.9304 76.4084 51.9304H74.7895V50.025C74.7895 48.3913 75.258 47.3894 76.8508 47.3894Z" fill="#8DE8FE"/>
<path d="M89.3206 60.6732C89.4784 60.6667 89.636 60.6926 89.7834 60.7491C89.9308 60.8057 90.065 60.8917 90.1777 61.0018C90.2904 61.112 90.3792 61.244 90.4386 61.3896C90.498 61.5352 90.5267 61.6914 90.523 61.8486C90.523 62.2627 90.4007 62.6796 89.7422 63.143C88.9068 63.7307 87.6053 63.9999 86.5955 63.9999C83.0818 63.9999 80.3047 61.701 80.3047 57.7865C80.3047 53.9731 83.1677 51.5731 86.6215 51.5731C87.7132 51.5453 88.7893 51.8341 89.7188 52.4042C90.4059 52.8702 90.5543 53.3336 90.5543 53.6754C90.5574 53.8431 90.5266 54.0099 90.4634 54.1655C90.4004 54.3212 90.3063 54.4626 90.1871 54.5812C90.0678 54.6999 89.9256 54.7934 89.7691 54.8562C89.6126 54.9189 89.445 54.9496 89.2763 54.9465C88.9131 54.9321 88.5657 54.7941 88.2925 54.5555C87.8088 54.2012 87.2222 54.0131 86.6215 54.0197C84.4587 54.0197 83.3759 55.951 83.3759 57.7839C83.3759 59.6169 84.417 61.5249 86.6215 61.5249C87.239 61.5396 87.8467 61.3691 88.3654 61.0356C88.6429 60.8274 88.9741 60.7017 89.3206 60.6732ZM98.5421 63.9999C94.9789 63.9999 92.1263 61.4317 92.1263 57.7399C92.1263 54.0482 94.9894 51.5783 98.5421 51.5783C102.095 51.5783 104.958 54.0482 104.958 57.7399C104.958 61.4317 102.108 63.9999 98.5421 63.9999ZM98.5421 53.9757C96.1996 53.9757 95.1273 55.907 95.1273 57.7399C95.1273 59.5729 96.2074 61.5534 98.5421 61.5534C100.877 61.5534 101.959 59.5729 101.959 57.7399C101.959 55.907 100.877 53.9757 98.5421 53.9757ZM107.48 53.2404C107.48 51.92 108.44 51.6871 108.883 51.6871C109.325 51.6871 110.283 51.9071 110.283 53.2404V53.8048H110.332C110.853 52.6294 112.25 51.5783 113.995 51.5783C117.069 51.5783 118.347 53.9264 118.347 56.3212V62.2395C118.347 63.6323 117.362 63.8757 116.87 63.8757C116.379 63.8757 115.395 63.6323 115.395 62.2395V57.1523C115.395 55.7594 115.077 54.0249 113.183 54.0249C111.288 54.0249 110.431 55.6377 110.431 57.2015V62.2395C110.431 63.6323 109.448 63.8757 108.955 63.8757C108.464 63.8757 107.48 63.6323 107.48 62.2395V53.2404ZM121.274 53.2404C121.274 51.92 122.235 51.6871 122.677 51.6871C123.12 51.6871 124.077 51.9071 124.077 53.2404V53.8048H124.137C124.658 52.6294 126.056 51.5783 127.8 51.5783C130.873 51.5783 132.151 53.9264 132.151 56.3212V62.2395C132.151 63.6323 131.168 63.8757 130.675 63.8757C130.183 63.8757 129.2 63.6323 129.2 62.2395V57.1523C129.2 55.7594 128.882 54.0249 126.987 54.0249C125.093 54.0249 124.236 55.6377 124.236 57.2015V62.2395C124.236 63.6323 123.253 63.8757 122.761 63.8757C122.269 63.8757 121.285 63.6323 121.285 62.2395L121.274 53.2404ZM137.508 58.7186C137.633 60.3807 139.155 61.6026 140.876 61.6026C141.874 61.6314 142.844 61.272 143.58 60.6007C143.848 60.3363 144.209 60.1868 144.587 60.1839C144.744 60.1777 144.901 60.2038 145.047 60.2607C145.193 60.3176 145.326 60.404 145.437 60.5144C145.548 60.6247 145.634 60.7568 145.692 60.9022C145.749 61.0476 145.775 61.2032 145.769 61.3593C145.761 61.5582 145.714 61.7536 145.629 61.9341C145.545 62.1146 145.425 62.2765 145.277 62.4104C144.121 63.5106 142.794 63.9999 140.902 63.9999C137.257 63.9999 134.559 61.6699 134.559 57.8616C134.559 54.0533 137.24 51.5783 140.805 51.5783C143.668 51.5783 145.966 53.1912 146.435 56.6396C146.458 56.883 146.484 57.0565 146.484 57.2506C146.484 58.2862 145.917 58.7186 144.936 58.7186H137.508ZM143.557 56.6163C143.557 55.0992 142.695 53.7685 140.779 53.7685C139.033 53.7685 137.633 54.9672 137.508 56.6163H143.557ZM157.351 60.6732C157.509 60.6664 157.667 60.692 157.814 60.7484C157.962 60.8047 158.097 60.8907 158.21 61.0009C158.322 61.111 158.412 61.2431 158.471 61.3889C158.531 61.5347 158.56 61.6912 158.556 61.8486C158.556 62.2627 158.431 62.6796 157.775 63.143C156.94 63.7307 155.639 63.9999 154.631 63.9999C151.115 63.9999 148.338 61.701 148.338 57.7865C148.338 53.9731 151.188 51.5731 154.654 51.5731C155.746 51.5453 156.822 51.8341 157.752 52.4042C158.439 52.8702 158.587 53.3336 158.587 53.6754C158.59 53.8431 158.559 54.0099 158.497 54.1655C158.433 54.3212 158.339 54.4626 158.22 54.5812C158.1 54.6999 157.958 54.7934 157.802 54.8562C157.646 54.9189 157.478 54.9496 157.309 54.9465C156.946 54.9321 156.598 54.7941 156.326 54.5555C155.842 54.2012 155.255 54.0131 154.654 54.0197C152.492 54.0197 151.408 55.951 151.408 57.7839C151.408 59.6169 152.45 61.5249 154.654 61.5249C155.275 61.5434 155.888 61.3746 156.411 61.0408C156.686 60.8308 157.016 60.7033 157.361 60.6732H157.351ZM166.041 63.9016C162.918 63.9016 162.231 61.9935 162.231 59.7437V54.2682H161.27C160.141 54.2682 159.943 53.4915 159.943 53.0954C159.943 52.6993 160.141 51.92 161.27 51.92H162.231V49.8929C162.231 48.5467 163.189 48.3033 163.681 48.3033C164.173 48.3033 165.13 48.5467 165.13 49.8929V51.92H166.973C168.106 51.92 168.3 52.6968 168.3 53.0954C168.3 53.4941 168.106 54.2682 166.973 54.2682H165.13V59.7205C165.13 60.87 165.524 61.4809 166.263 61.4809C166.419 61.4748 166.575 61.4584 166.729 61.4317C166.842 61.4153 166.957 61.4075 167.072 61.4085C167.22 61.4005 167.369 61.4233 167.508 61.4755C167.648 61.5275 167.775 61.6079 167.881 61.7113C167.988 61.8147 168.071 61.939 168.127 62.0763C168.182 62.2135 168.209 62.3608 168.204 62.5087C168.2 62.7368 168.132 62.9592 168.005 63.1495C167.879 63.3399 167.701 63.4903 167.491 63.5832C167.038 63.7972 166.542 63.9061 166.041 63.9016Z" fill="white"/>
</g>
<defs>
<clipPath id="clip0_1_717">
<rect width="137" height="42" fill="white" transform="translate(32 22)"/>
</clipPath>
</defs>
</svg>
