<svg width="200" height="85" viewBox="0 0 200 85" fill="none" xmlns="http://www.w3.org/2000/svg">
<g id="Frame 8">
<g clip-path="url(#clip0_1_193)">
<rect width="200" height="85" rx="8" fill="#32AB8E"/>
<g id="Vector">
<path fill-rule="evenodd" clip-rule="evenodd" d="M37.7162 35.5203C37.8605 36.1298 38.0603 36.7621 38.3141 37.4047C37.6658 37.4674 37.0512 37.5649 36.4797 37.6962C35.4272 37.938 34.4507 38.3105 33.6753 38.8505C32.8928 39.3953 32.235 40.1731 32.0501 41.2031C31.8652 42.2331 32.2126 43.185 32.7582 43.9598C33.2989 44.7277 34.0867 45.4059 34.9916 45.9867C35.1606 46.0952 35.3358 46.2017 35.5168 46.3059C37.2841 47.3316 39.6158 48.1456 42.1853 48.5906C45.0832 49.0926 47.84 48.8239 49.9351 48.2292C50.0497 48.1967 50.1629 48.163 50.2746 48.1283C49.9669 49.4036 49.7575 50.62 49.659 51.6978C49.5629 52.7505 49.5647 53.7491 49.7252 54.568C49.8465 55.1873 50.1495 56.161 51.0208 56.6522C51.137 56.7211 51.2637 56.7813 51.4018 56.8307C52.4521 57.2062 53.416 56.7245 54.0148 56.2921C54.6658 55.8219 55.2931 55.1277 55.874 54.3347C57.0479 52.7323 58.2329 50.4487 59.1913 47.8619C60.1497 45.2752 60.7362 42.7776 60.8855 40.8089C60.9594 39.8346 60.9331 38.9067 60.7421 38.1355C60.5878 37.5127 60.2427 36.6831 59.4501 36.2358C59.3287 36.1639 59.1966 36.1011 59.0526 36.0497C58.1122 35.7134 57.2128 36.0211 56.5639 36.4141C55.9014 36.8154 55.2766 37.4297 54.7041 38.147C54.3027 38.65 53.9018 39.2354 53.5093 39.8942C52.8676 38.2871 51.852 36.4782 50.3516 34.7217C48.736 32.8303 46.9289 31.2978 45.2002 30.3023C44.9515 30.1579 44.7043 30.0247 44.4595 29.903C43.4951 29.4237 42.5033 29.0925 41.5559 29.0165C40.6001 28.9397 39.5872 29.1202 38.7716 29.7924L38.7998 29.8255C37.9961 30.4945 37.6257 31.4609 37.4962 32.4016C37.3645 33.3585 37.4582 34.4307 37.7162 35.5203ZM43.2069 32.4365C43.3836 32.5243 43.5641 32.6211 43.7477 32.7268C45.1259 33.5272 46.6765 34.8196 48.1177 36.5068C49.029 37.5736 49.7254 38.6556 50.2439 39.6696C48.5511 38.7806 46.4229 38.0769 44.1004 37.6746C43.1877 37.5165 42.287 37.4122 41.4146 37.3601C40.991 36.4955 40.6878 35.6531 40.5055 34.883C40.3014 34.021 40.2617 33.305 40.3342 32.7785C40.4082 32.2405 40.5765 32.0333 40.6525 31.9707C40.7249 31.911 40.911 31.8073 41.3629 31.8435C41.8233 31.8805 42.4481 32.0594 43.2069 32.4365ZM42.6425 45.797C40.3512 45.4001 38.3758 44.6903 36.9695 43.8815C36.8408 43.8068 36.717 43.7312 36.5983 43.655C35.8864 43.198 35.4164 42.7559 35.1536 42.3827C34.8957 42.0164 34.8941 41.8063 34.9105 41.7148C34.9269 41.6233 35.0016 41.4264 35.3715 41.1688C35.7483 40.9064 36.344 40.6489 37.172 40.4587C37.9045 40.2904 38.7641 40.1872 39.7145 40.1628C40.1854 40.9166 40.7271 41.6605 41.3371 42.3747C42.7827 44.067 44.4929 45.2527 46.1896 45.9873C45.0812 46.0569 43.8777 46.0109 42.6425 45.797ZM43.6433 40.4683C45.9346 40.8652 47.91 41.575 49.3164 42.3838C49.445 42.4585 49.5687 42.5341 49.6874 42.6103C50.3993 43.0672 50.8694 43.5093 51.1321 43.8825C51.1671 43.9322 51.1974 43.979 51.2235 44.023C51.1013 44.0493 50.9628 44.0711 50.8068 44.0857C50.2178 44.1407 49.4735 44.0827 48.6401 43.8636C46.9758 43.4261 45.0784 42.3781 43.5308 40.5664C43.4921 40.5211 43.4538 40.4756 43.4157 40.4301C43.4914 40.4424 43.5672 40.4551 43.6433 40.4683ZM56.998 39.9059C57.3761 39.4321 57.7015 39.1211 57.9529 38.9359C58.0198 39.308 58.0443 39.8542 57.9895 40.5767C57.8647 42.2222 57.355 44.4612 56.4601 46.8765C55.5651 49.2919 54.4906 51.3289 53.5094 52.6683C53.139 53.1739 52.8089 53.5428 52.5362 53.7906C52.4843 53.3461 52.4818 52.7355 52.5515 51.9725C52.7122 50.2136 53.2297 47.922 54.0539 45.6206C54.0969 45.5304 54.1353 45.4355 54.1673 45.336C54.2395 45.1847 54.2897 45.033 54.3253 44.8916C55.1805 42.6807 56.1378 40.9837 56.998 39.9059Z" fill="white"/>
<path d="M64.0555 51.6217V32.0944H71.8813C73.4407 32.0944 74.7884 32.3242 75.9242 32.7839C77.0793 33.2252 77.9649 33.9423 78.581 34.9352C79.2163 35.9097 79.534 37.1968 79.534 38.7965C79.534 40.3227 79.1874 41.6006 78.4944 42.6303C77.8013 43.6416 76.8483 44.4047 75.6355 44.9195C74.4418 45.416 73.075 45.6642 71.5348 45.6642H67.9251V51.6217H64.0555ZM67.9251 42.3545H71.4771C72.7477 42.3545 73.768 42.0603 74.5381 41.4719C75.3082 40.8835 75.6932 39.9825 75.6932 38.769C75.6932 37.6841 75.3659 36.8751 74.7114 36.3418C74.0761 35.7902 73.075 35.5144 71.7081 35.5144H67.9251V42.3545Z" fill="white"/>
<path d="M85.1659 51.7872C84.2418 51.7872 83.3754 51.6401 82.5669 51.3459C81.7775 51.0333 81.1422 50.5644 80.6609 49.9393C80.1796 49.2957 79.939 48.4867 79.939 47.5121C79.939 46.795 80.0737 46.1882 80.3433 45.6918C80.632 45.1769 81.0075 44.754 81.4695 44.4231C81.9508 44.0737 82.4995 43.7979 83.1155 43.5956C83.7316 43.3934 84.3669 43.2371 85.0215 43.1268C85.6953 42.998 86.4461 42.8969 87.2739 42.8234C88.1018 42.7498 88.9874 42.6671 89.9307 42.5751C89.9307 42.0235 89.8152 41.5546 89.5842 41.1685C89.3531 40.764 89.0259 40.4606 88.6023 40.2583C88.1788 40.0377 87.659 39.9274 87.0429 39.9274C86.3884 39.9274 85.8204 40.0377 85.3391 40.2583C84.8578 40.4606 84.492 40.81 84.2418 41.3064H80.401C80.5935 40.2032 81.0171 39.3298 81.6716 38.6862C82.3455 38.0427 83.1637 37.583 84.1263 37.3072C85.0889 37.013 86.0803 36.8659 87.1007 36.8659C88.6601 36.8659 89.9114 37.1325 90.8548 37.6657C91.7981 38.1989 92.4816 38.9804 92.9051 40.0101C93.3287 41.0214 93.5404 42.2626 93.5404 43.7335V51.6217H90.7026L89.9885 49.8565C89.5457 50.3714 89.0355 50.7759 88.4579 51.0701C87.8996 51.3459 87.3317 51.5298 86.7541 51.6217C86.1958 51.732 85.6664 51.7872 85.1659 51.7872ZM85.9456 48.8636C86.6771 48.8636 87.3317 48.7349 87.9093 48.4775C88.5061 48.22 88.9777 47.8523 89.3243 47.3742C89.6901 46.8778 89.8922 46.2894 89.9307 45.609V45.0574C89.5072 45.0942 89.0836 45.1402 88.6601 45.1953C88.2365 45.2321 87.8034 45.2781 87.3606 45.3332C86.937 45.37 86.5135 45.4252 86.09 45.4987C85.3776 45.5907 84.8001 45.7837 84.3573 46.0779C83.9145 46.3721 83.6931 46.7766 83.6931 47.2915C83.6931 47.696 83.8086 48.0178 84.0396 48.2568C84.2899 48.4775 84.5883 48.6338 84.9348 48.7257C85.2814 48.8176 85.6183 48.8636 85.9456 48.8636Z" fill="white"/>
<path d="M95.3715 57V37.0865H98.3825L99.0967 38.962C99.7128 38.2265 100.425 37.6933 101.234 37.3623C102.042 37.013 102.937 36.8383 103.919 36.8383C105.421 36.8383 106.663 37.1693 107.645 37.8312C108.626 38.4931 109.358 39.3941 109.839 40.5341C110.34 41.6558 110.59 42.9153 110.59 44.3127C110.59 45.747 110.33 47.0341 109.81 48.1741C109.31 49.2957 108.549 50.1875 107.529 50.8494C106.528 51.493 105.267 51.8148 103.746 51.8148C103.053 51.8148 102.418 51.7412 101.84 51.5941C101.263 51.447 100.743 51.2448 100.281 50.9873C99.8379 50.7115 99.4625 50.4081 99.1545 50.0772V57H95.3715ZM103.111 48.5602C104.054 48.5602 104.795 48.358 105.334 47.9534C105.873 47.5489 106.258 47.0341 106.489 46.4089C106.72 45.7653 106.836 45.0942 106.836 44.3955C106.836 43.66 106.711 42.9705 106.461 42.3269C106.23 41.665 105.835 41.1317 105.277 40.7272C104.718 40.3227 103.977 40.1204 103.053 40.1204C102.206 40.1204 101.484 40.3227 100.887 40.7272C100.31 41.1133 99.8668 41.6282 99.5587 42.2717C99.27 42.9153 99.1256 43.614 99.1256 44.3679C99.1256 45.1218 99.27 45.8205 99.5587 46.4641C99.8475 47.0892 100.281 47.5949 100.858 47.981C101.455 48.3671 102.206 48.5602 103.111 48.5602Z" fill="white"/>
<path d="M112.22 51.6217V37.0865H116.003V51.6217H112.22ZM114.126 35.5144C113.414 35.5144 112.837 35.3121 112.394 34.9076C111.97 34.4847 111.758 33.9515 111.758 33.3079C111.758 32.646 111.98 32.1035 112.423 31.6806C112.885 31.2577 113.462 31.0463 114.155 31.0463C114.791 31.0463 115.339 31.2577 115.801 31.6806C116.283 32.0852 116.523 32.6184 116.523 33.2803C116.523 33.9423 116.292 34.4847 115.83 34.9076C115.387 35.3121 114.819 35.5144 114.126 35.5144Z" fill="white"/>
<path d="M122.908 51.7872C121.791 51.7872 120.858 51.6033 120.107 51.2356C119.375 50.8494 118.827 50.2794 118.461 49.5255C118.114 48.7717 117.941 47.8339 117.941 46.7123V32.0944H121.724V45.9952C121.724 46.4916 121.772 46.9237 121.868 47.2915C121.984 47.6592 122.176 47.9442 122.446 48.1465C122.735 48.3488 123.139 48.4499 123.659 48.4499C124.044 48.4499 124.41 48.3947 124.756 48.2844C125.103 48.1557 125.42 47.981 125.709 47.7604L126.594 50.546C126.285 51.1101 125.69 51.3551 125.016 51.539C124.362 51.7044 123.659 51.7872 122.908 51.7872Z" fill="white"/>
<path d="M131.955 51.7872C130.838 51.7872 129.905 51.6033 129.154 51.2356C128.422 50.8494 127.873 50.2794 127.508 49.5255C127.161 48.7717 126.988 47.8339 126.988 46.7123V32.0944H130.771V45.9952C130.771 46.4916 130.819 46.9237 130.915 47.2915C131.031 47.6592 131.223 47.9442 131.493 48.1465C131.782 48.3488 132.186 48.4499 132.706 48.4499C133.091 48.4499 133.457 48.3947 133.803 48.2844C134.15 48.1557 134.467 47.981 134.756 47.7604L135.998 50.546C135.382 51.0241 134.737 51.3551 134.063 51.539C133.408 51.7044 132.706 51.7872 131.955 51.7872Z" fill="white"/>
<path d="M143.023 51.8148C141.464 51.8148 140.116 51.5114 138.98 50.9046C137.844 50.2978 136.959 49.4428 136.324 48.3396C135.707 47.2179 135.399 45.8941 135.399 44.3679C135.399 42.8234 135.717 41.4903 136.352 40.3687C136.988 39.247 137.873 38.3828 139.009 37.776C140.145 37.1509 141.473 36.8383 142.994 36.8383C144.534 36.8383 145.863 37.1509 146.979 37.776C148.115 38.4012 148.991 39.2838 149.607 40.4238C150.223 41.5454 150.531 42.8785 150.531 44.4231C150.531 45.9308 150.223 47.2455 149.607 48.3671C149.011 49.4704 148.154 50.3254 147.037 50.9322C145.921 51.5206 144.583 51.8148 143.023 51.8148ZM142.965 48.5051C143.89 48.5051 144.631 48.312 145.189 47.9259C145.767 47.5397 146.18 47.0341 146.431 46.4089C146.681 45.7837 146.806 45.1126 146.806 44.3955C146.806 43.6784 146.681 42.998 146.431 42.3545C146.18 41.7109 145.776 41.1869 145.218 40.7824C144.66 40.3778 143.909 40.1756 142.965 40.1756C142.061 40.1756 141.319 40.3778 140.742 40.7824C140.184 41.1869 139.77 41.7109 139.5 42.3545C139.25 42.9797 139.125 43.66 139.125 44.3955C139.125 45.1126 139.25 45.7929 139.5 46.4365C139.77 47.0616 140.184 47.5673 140.742 47.9534C141.319 48.3212 142.061 48.5051 142.965 48.5051Z" fill="white"/>
<path d="M151.792 51.6217V37.0865H154.832L155.546 38.8517C155.951 38.3369 156.422 37.9415 156.961 37.6657C157.52 37.3715 158.087 37.1601 158.665 37.0314C159.243 36.9026 159.782 36.8383 160.282 36.8383C161.726 36.8383 162.862 37.1417 163.69 37.7485C164.518 38.3552 165.105 39.1735 165.451 40.2032C165.817 41.2145 166 42.3453 166 43.5956V51.6217H162.217V44.1197C162.217 43.6232 162.178 43.1451 162.101 42.6855C162.024 42.2074 161.88 41.7753 161.668 41.3892C161.457 41.003 161.158 40.6996 160.773 40.479C160.388 40.2399 159.878 40.1204 159.243 40.1204C158.434 40.1204 157.751 40.3227 157.192 40.7272C156.653 41.1133 156.249 41.6374 155.979 42.2993C155.71 42.9613 155.575 43.706 155.575 44.5334V51.6217H151.792Z" fill="white"/>
</g>
<g id="Star 2" filter="url(#filter0_d_1_193)">
<path d="M7.28095 40.7877C8.54045 38.045 12.6778 39.3261 12.167 42.3007L9.45605 58.0869C9.11973 60.0453 11.0312 61.6325 12.8945 60.942L27.9136 55.376C30.7436 54.3272 32.7632 58.1587 30.2987 59.9008L17.2192 69.1464C15.5966 70.2934 15.8259 72.7673 17.6317 73.5966L32.1876 80.2809C34.9303 81.5405 33.6491 85.6778 30.6746 85.167L14.8884 82.4561C12.9299 82.1197 11.3427 84.0312 12.0333 85.8945L17.5993 100.914C18.648 103.744 14.8166 105.763 13.0745 103.299L3.82886 90.2192C2.68184 88.5966 0.207945 88.8259 -0.621325 90.6317L-7.30569 105.188C-8.5652 107.93 -12.7026 106.649 -12.1917 103.675L-9.4808 87.8884C-9.14448 85.9299 -11.0559 84.3427 -12.9192 85.0333L-27.9383 90.5993C-30.7683 91.648 -32.788 87.8166 -30.3234 86.0745L-17.244 76.8289C-15.6213 75.6818 -15.8506 73.2079 -17.6564 72.3787L-32.2123 65.6943C-34.955 64.4348 -33.6739 60.2974 -30.6993 60.8083L-14.9131 63.5192C-12.9547 63.8555 -11.3675 61.9441 -12.058 60.0808L-17.624 45.0617C-18.6728 42.2317 -14.8413 40.212 -13.0992 42.6766L-3.85361 55.756C-2.70658 57.3787 -0.232692 57.1494 0.596577 55.3436L7.28095 40.7877Z" fill="#29D3AB"/>
<path d="M14.1381 42.6392C15.045 37.3583 7.69959 35.0836 5.46343 39.9531L-1.22094 54.5089C-1.40719 54.9145 -1.96282 54.966 -2.22044 54.6016L-11.466 41.5221C-14.559 37.1467 -21.3614 40.7322 -19.4994 45.7567L-13.9334 60.7758C-13.7783 61.1943 -14.1348 61.6236 -14.5746 61.5481L-30.3608 58.8371C-35.6418 57.9302 -37.9164 65.2757 -33.0469 67.5118L-18.4911 74.1962C-18.0855 74.3825 -18.034 74.9381 -18.3984 75.1957L-31.4779 84.4413C-35.8533 87.5342 -32.2678 94.3367 -27.2433 92.4746L-12.2242 86.9086C-11.8057 86.7535 -11.3764 87.11 -11.4519 87.5499L-14.1629 103.336C-15.0698 108.617 -7.72433 110.892 -5.48817 106.022L1.1962 91.4663C1.38245 91.0607 1.93808 91.0093 2.19569 91.3737L11.4413 104.453C14.5342 108.829 21.3367 105.243 19.4746 100.219L13.9086 85.1995C13.7535 84.781 14.11 84.3517 14.5499 84.4272L30.3361 87.1382C35.617 88.045 37.8917 80.6996 33.0222 78.4634L18.4663 71.7791C18.0607 71.5928 18.0093 71.0372 18.3737 70.7796L31.4532 61.534C35.8286 58.4411 32.243 51.6386 27.2186 53.5006L12.1995 59.0666C11.781 59.2217 11.3517 58.8652 11.4272 58.4254L14.1381 42.6392Z" stroke="white" stroke-width="4"/>
</g>
<g id="Star 1" filter="url(#filter1_d_1_193)">
<path d="M178.231 -18.4231C178.158 -22.362 183.801 -23.1956 184.869 -19.4035L191.186 3.0249C191.6 4.49643 192.965 5.50166 194.505 5.46969L217.982 4.98242C221.951 4.90004 222.778 10.4987 218.954 11.5674L196.34 17.8878C194.856 18.3025 193.84 19.6594 193.868 21.1879L194.305 44.4847C194.379 48.4237 188.736 49.2572 187.668 45.4651L181.351 23.0367C180.937 21.5652 179.572 20.56 178.031 20.5919L154.555 21.0792C150.586 21.1616 149.759 15.5629 153.582 14.4943L176.197 8.17384C177.681 7.75915 178.697 6.40225 178.668 4.87374L178.231 -18.4231Z" fill="#FDC500"/>
<path d="M186.794 -19.9457C185.09 -25.9956 176.114 -24.6699 176.232 -18.3856L176.669 4.91124C176.68 5.51869 176.275 6.07551 175.659 6.24765L153.044 12.5681C146.957 14.2694 148.277 23.2099 154.597 23.0788L178.073 22.5915C178.712 22.5782 179.261 22.9941 179.426 23.5789L185.743 46.0073C187.447 52.0572 196.423 50.7315 196.305 44.4472L195.868 21.1504C195.857 20.5429 196.262 19.9861 196.878 19.814L219.493 13.4935C225.58 11.7923 224.259 2.85169 217.94 2.98285L194.464 3.47012C193.825 3.48339 193.276 3.06751 193.111 2.48271L186.794 -19.9457Z" stroke="white" stroke-width="4"/>
</g>
<g id="Polygon 1 (Stroke)" filter="url(#filter2_d_1_193)">
<path fill-rule="evenodd" clip-rule="evenodd" d="M155.009 78.1069C153.942 77.3077 152.429 77.5251 151.63 78.5926L136.107 99.3246C135.308 100.392 135.525 101.905 136.593 102.705L157.325 118.227C158.392 119.026 159.905 118.809 160.705 117.742L176.227 97.0094C177.026 95.942 176.809 94.4288 175.742 93.6295L155.009 78.1069ZM157.056 69.6158C153.967 67.3027 149.588 67.932 147.275 71.0213L127.616 97.2777C125.303 100.367 125.932 104.746 129.021 107.059L155.278 126.718C158.367 129.031 162.746 128.402 165.059 125.313L184.718 99.0564C187.031 95.9671 186.402 91.5876 183.313 89.2746L157.056 69.6158Z" fill="#0DFF8B"/>
<path d="M153.231 79.7913C153.368 79.608 153.628 79.5707 153.811 79.7079L174.543 95.2305C174.726 95.3677 174.763 95.6275 174.626 95.8107L159.104 116.543C158.966 116.726 158.707 116.763 158.523 116.626L137.791 101.104C137.608 100.966 137.571 100.707 137.708 100.523L153.231 79.7913ZM158.255 68.0148C154.282 65.0397 148.649 65.8491 145.674 69.8226L126.015 96.079C123.04 100.052 123.849 105.685 127.823 108.66L154.079 128.319C158.052 131.294 163.685 130.485 166.66 126.511L186.319 100.255C189.294 96.2816 188.485 90.6487 184.511 87.6736L158.255 68.0148Z" stroke="white" stroke-width="4"/>
</g>
<g id="Polygon 1 (Stroke)_2" filter="url(#filter3_d_1_193)">
<path fill-rule="evenodd" clip-rule="evenodd" d="M42.904 -14.5523C42.4545 -15.4774 41.3401 -15.8629 40.415 -15.4134L22.4477 -6.68268C21.5226 -6.23316 21.1371 -5.11881 21.5866 -4.19372L30.3173 13.7736C30.7668 14.6987 31.8812 15.0842 32.8063 14.6347L50.7736 5.90401C51.6987 5.45448 52.0842 4.34014 51.6347 3.41504L42.904 -14.5523ZM47.3073 -19.651C46.0063 -22.3283 42.7813 -23.4441 40.104 -22.1431L17.349 -11.086C14.6717 -9.78502 13.5559 -6.55997 14.8569 -3.88265L25.914 18.8723C27.215 21.5496 30.44 22.6654 33.1173 21.3644L55.8723 10.3073C58.5496 9.00634 59.6654 5.7813 58.3644 3.10397L47.3073 -19.651Z" fill="#77FFFF"/>
<path d="M23.4457 -4.94399L41.1653 -13.5543L49.7757 4.16531L32.056 12.7757L23.4457 -4.94399ZM49.1062 -20.5251C47.3225 -24.1959 42.9007 -25.7257 39.2299 -23.942L16.4749 -12.8849C12.8041 -11.1011 11.2743 -6.67935 13.058 -3.00854L24.1151 19.7464C25.8989 23.4172 30.3206 24.947 33.9915 23.1633L56.7464 12.1062C60.4172 10.3225 61.947 5.90068 60.1633 2.22986L49.1062 -20.5251Z" stroke="white" stroke-width="4"/>
</g>
</g>
</g>
<defs>
<filter id="filter0_d_1_193" x="-37.7373" y="35.2628" width="77.4498" height="77.4497" filterUnits="userSpaceOnUse" color-interpolation-filters="sRGB">
<feFlood flood-opacity="0" result="BackgroundImageFix"/>
<feColorMatrix in="SourceAlpha" type="matrix" values="0 0 0 0 0 0 0 0 0 0 0 0 0 0 0 0 0 0 127 0" result="hardAlpha"/>
<feOffset dx="2" dy="2"/>
<feComposite in2="hardAlpha" operator="out"/>
<feColorMatrix type="matrix" values="0 0 0 0 0 0 0 0 0 0 0 0 0 0 0 0 0 0 0.25 0"/>
<feBlend mode="normal" in2="BackgroundImageFix" result="effect1_dropShadow_1_193"/>
<feBlend mode="normal" in="SourceGraphic" in2="effect1_dropShadow_1_193" result="shape"/>
</filter>
<filter id="filter1_d_1_193" x="147.104" y="-25.8556" width="80.3284" height="79.7727" filterUnits="userSpaceOnUse" color-interpolation-filters="sRGB">
<feFlood flood-opacity="0" result="BackgroundImageFix"/>
<feColorMatrix in="SourceAlpha" type="matrix" values="0 0 0 0 0 0 0 0 0 0 0 0 0 0 0 0 0 0 127 0" result="hardAlpha"/>
<feOffset dx="2" dy="2"/>
<feComposite in2="hardAlpha" operator="out"/>
<feColorMatrix type="matrix" values="0 0 0 0 0 0 0 0 0 0 0 0 0 0 0 0 0 0 0.25 0"/>
<feBlend mode="normal" in2="BackgroundImageFix" result="effect1_dropShadow_1_193"/>
<feBlend mode="normal" in="SourceGraphic" in2="effect1_dropShadow_1_193" result="shape"/>
</filter>
<filter id="filter2_d_1_193" x="122.221" y="64.2209" width="69.8922" height="69.8922" filterUnits="userSpaceOnUse" color-interpolation-filters="sRGB">
<feFlood flood-opacity="0" result="BackgroundImageFix"/>
<feColorMatrix in="SourceAlpha" type="matrix" values="0 0 0 0 0 0 0 0 0 0 0 0 0 0 0 0 0 0 127 0" result="hardAlpha"/>
<feOffset dx="2" dy="2"/>
<feComposite in2="hardAlpha" operator="out"/>
<feColorMatrix type="matrix" values="0 0 0 0 0 0 0 0 0 0 0 0 0 0 0 0 0 0 0.25 0"/>
<feBlend mode="normal" in2="BackgroundImageFix" result="effect1_dropShadow_1_193"/>
<feBlend mode="normal" in="SourceGraphic" in2="effect1_dropShadow_1_193" result="shape"/>
</filter>
<filter id="filter3_d_1_193" x="10.3128" y="-26.6873" width="54.5958" height="54.5958" filterUnits="userSpaceOnUse" color-interpolation-filters="sRGB">
<feFlood flood-opacity="0" result="BackgroundImageFix"/>
<feColorMatrix in="SourceAlpha" type="matrix" values="0 0 0 0 0 0 0 0 0 0 0 0 0 0 0 0 0 0 127 0" result="hardAlpha"/>
<feOffset dx="2" dy="2"/>
<feComposite in2="hardAlpha" operator="out"/>
<feColorMatrix type="matrix" values="0 0 0 0 0 0 0 0 0 0 0 0 0 0 0 0 0 0 0.25 0"/>
<feBlend mode="normal" in2="BackgroundImageFix" result="effect1_dropShadow_1_193"/>
<feBlend mode="normal" in="SourceGraphic" in2="effect1_dropShadow_1_193" result="shape"/>
</filter>
<clipPath id="clip0_1_193">
<rect width="200" height="85" rx="8" fill="white"/>
</clipPath>
</defs>
</svg>
