<svg width="380" height="116" viewBox="0 0 380 116" fill="none" xmlns="http://www.w3.org/2000/svg">
<rect x="104.958" y="50.9104" width="217.47" height="40.9846" fill="white"/>
<mask id="path-2-outside-1_3704_2045" maskUnits="userSpaceOnUse" x="3.15186" y="22" width="373" height="94" fill="black">
<rect fill="white" x="3.15186" y="22" width="373" height="94"/>
<path fill-rule="evenodd" clip-rule="evenodd" d="M26.4055 48.1329C26.7905 49.8283 27.3237 51.5871 28.0011 53.3747C26.271 53.5491 24.6309 53.8203 23.1058 54.1855C20.2973 54.8581 17.6915 55.8944 15.6223 57.3964C13.5343 58.9118 11.7788 61.0753 11.2855 63.9405C10.7921 66.8056 11.7191 69.4534 13.175 71.6088C14.6178 73.7449 16.7203 75.6312 19.1348 77.247C19.5858 77.5488 20.0534 77.8449 20.5365 78.1349C25.2525 80.988 31.4746 83.2522 38.3313 84.4903C46.0642 85.8865 53.4207 85.1391 59.0116 83.4849C59.3174 83.3944 59.6195 83.3008 59.9175 83.2041C59.0963 86.7518 58.5377 90.1352 58.2748 93.1334C58.0182 96.0615 58.0232 98.8395 58.4513 101.117C58.775 102.84 59.5836 105.549 61.9086 106.915C62.2188 107.107 62.5568 107.274 62.9253 107.411C65.728 108.456 68.3003 107.116 69.8982 105.913C71.6354 104.605 73.3093 102.674 74.8594 100.468C77.9918 96.011 81.154 89.6587 83.7115 82.4632C86.2691 75.2677 87.8341 68.3203 88.2325 62.8439C88.4297 60.1338 88.3596 57.5527 87.8498 55.4074C87.4381 53.675 86.5174 51.3674 84.4022 50.123C84.0783 49.9232 83.7257 49.7485 83.3416 49.6054C80.832 48.67 78.4319 49.526 76.7004 50.6191C74.9324 51.7353 73.2652 53.4443 71.7377 55.4394C70.6664 56.8385 69.5967 58.4672 68.5492 60.2996C66.8368 55.8292 64.1267 50.7974 60.123 45.9114C55.8117 40.65 50.9895 36.3871 46.3765 33.618C45.7127 33.2165 45.0532 32.8459 44.4 32.5075C41.8263 31.1741 39.1797 30.2528 36.6517 30.0413C34.101 29.8279 31.4735 30.4217 29.2971 32.2918C27.1523 34.1527 26.164 36.8409 25.8185 39.4576C25.4671 42.1194 25.717 45.1019 26.4055 48.1329ZM41.0573 39.5546C41.5288 39.7989 42.0105 40.0683 42.5005 40.3622C46.1782 42.5888 50.316 46.1836 54.1618 50.8769C56.5935 53.8445 58.4519 56.8543 59.8355 59.6748C55.3184 57.2019 49.6393 55.2445 43.4416 54.1254C41.0062 53.6857 38.6027 53.3956 36.2745 53.2505C35.1442 50.8456 34.3353 48.5023 33.8487 46.3602C33.3041 43.9624 33.1982 41.9705 33.3915 40.5061C33.5891 39.0095 34.0382 38.4332 34.241 38.259C34.4343 38.0929 34.9308 37.8044 36.1367 37.9052C37.3653 38.008 39.0325 38.5056 41.0573 39.5546ZM39.5511 76.7192C33.4368 75.6152 28.1657 73.6409 24.4128 71.391C24.0695 71.1831 23.7392 70.9729 23.4224 70.7608C21.5228 69.4897 20.2684 68.26 19.5671 67.2218C18.8789 66.2029 18.8746 65.6183 18.9184 65.3639C18.9623 65.1094 19.1615 64.5616 20.1486 63.8452C21.1543 63.1152 22.7437 62.399 24.9533 61.8698C26.908 61.4017 29.2019 61.1148 31.7378 61.0467C32.9946 63.1437 34.4399 65.2129 36.0678 67.1995C39.9253 71.907 44.4892 75.2052 49.0168 77.2488C46.0589 77.4423 42.8475 77.3144 39.5511 76.7192ZM42.2218 61.8965C48.3363 63.0005 53.6076 64.9749 57.3605 67.225C57.7037 67.4328 58.0339 67.6429 58.3506 67.8548C60.2502 69.126 61.5045 70.3557 62.2058 71.3938C62.2991 71.532 62.3798 71.6621 62.4496 71.7845C62.1234 71.8579 61.7539 71.9183 61.3376 71.9589C59.7658 72.112 57.7798 71.9506 55.5557 71.3412C51.1148 70.1242 46.0513 67.209 41.9218 62.1694C41.8185 62.0433 41.7161 61.9169 41.6146 61.7902C41.8164 61.8244 42.0188 61.8598 42.2218 61.8965ZM77.8587 60.3323C78.8678 59.0142 79.7361 58.1492 80.4069 57.6338C80.5854 58.669 80.6508 60.1884 80.5046 62.198C80.1716 66.7754 78.8114 73.0034 76.4233 79.7222C74.0352 86.441 71.1677 92.1072 68.5495 95.8329C67.561 97.2395 66.6802 98.2655 65.9526 98.9548C65.814 97.7184 65.8073 96.0198 65.9933 93.8976C66.4222 89.0049 67.8032 82.6303 70.0024 76.2286C70.1173 75.9778 70.2197 75.7138 70.305 75.4369C70.4977 75.0162 70.6316 74.594 70.7267 74.2007C73.0087 68.0507 75.5633 63.3302 77.8587 60.3323Z"/>
<path d="M96.8989 92.4602V38.5639H117.529C121.64 38.5639 125.192 39.1983 128.187 40.467C131.232 41.685 133.566 43.6643 135.19 46.4048C136.865 49.0945 137.702 52.647 137.702 57.0622C137.702 61.2744 136.789 64.8016 134.962 67.6436C133.135 70.4348 130.623 72.5409 127.425 73.9619C124.279 75.3321 120.676 76.0173 116.616 76.0173H107.1V92.4602H96.8989ZM107.1 66.8823H116.463C119.813 66.8823 122.503 66.0703 124.533 64.4463C126.563 62.8223 127.578 60.3356 127.578 56.9861C127.578 53.9919 126.715 51.7589 124.989 50.2871C123.315 48.7646 120.676 48.0034 117.072 48.0034H107.1V66.8823Z"/>
<path d="M153.871 92.917C151.435 92.917 149.151 92.511 147.02 91.699C144.939 90.8362 143.264 89.5421 141.995 87.8166C140.727 86.0404 140.092 83.8074 140.092 81.1176C140.092 79.1384 140.447 77.4636 141.158 76.0934C141.919 74.6724 142.909 73.5052 144.127 72.5917C145.396 71.6274 146.842 70.8662 148.466 70.3079C150.09 69.7497 151.765 69.3183 153.49 69.0138C155.267 68.6585 157.246 68.3794 159.428 68.1764C161.61 67.9734 163.945 67.7451 166.432 67.4913C166.432 65.9688 166.127 64.6747 165.518 63.6089C164.909 62.4924 164.046 61.6551 162.93 61.0968C161.813 60.4878 160.443 60.1833 158.819 60.1833C157.094 60.1833 155.596 60.4878 154.328 61.0968C153.059 61.6551 152.095 62.6193 151.435 63.9896H141.31C141.818 60.9446 142.934 58.534 144.66 56.7577C146.436 54.9815 148.593 53.7127 151.13 52.9515C153.668 52.1395 156.282 51.7335 158.971 51.7335C163.082 51.7335 166.381 52.4694 168.868 53.9411C171.355 55.4128 173.156 57.5697 174.273 60.4117C175.389 63.2029 175.947 66.6286 175.947 70.6885V92.4602H166.888L166.584 87.5882C165.417 89.0092 164.072 90.1257 162.549 90.9377C161.078 91.699 159.58 92.2065 158.058 92.4602C156.586 92.7647 155.19 92.917 153.871 92.917ZM155.926 84.8477C157.855 84.8477 159.58 84.4925 161.103 83.782C162.676 83.0715 163.92 82.0565 164.833 80.737C165.797 79.3668 166.33 77.7428 166.432 75.865V74.3425C165.315 74.444 164.199 74.5709 163.082 74.7232C161.966 74.8247 160.824 74.9515 159.657 75.1038C158.54 75.2053 157.423 75.3575 156.307 75.5605C154.429 75.8143 152.907 76.3471 151.739 77.1591C150.572 77.9711 149.989 79.0876 149.989 80.5086C149.989 81.6251 150.293 82.5132 150.902 83.173C151.562 83.782 152.348 84.2134 153.262 84.4671C154.175 84.7209 155.064 84.8477 155.926 84.8477Z"/>
<path d="M181.155 107.305V52.3425H190.518L190.975 57.519C192.599 55.489 194.477 54.0172 196.609 53.1037C198.74 52.1395 201.1 51.6574 203.688 51.6574C207.647 51.6574 210.92 52.5709 213.509 54.3979C216.097 56.2248 218.025 58.7116 219.294 61.8581C220.614 64.9538 221.273 68.4302 221.273 72.2872C221.273 76.2456 220.588 79.7981 219.218 82.9446C217.898 86.0404 215.894 88.5017 213.204 90.3287C210.565 92.105 207.241 92.9931 203.232 92.9931C201.405 92.9931 199.73 92.7901 198.207 92.3841C196.685 91.9781 195.314 91.4198 194.096 90.7093C192.929 89.9481 191.94 89.1107 191.127 88.1972V107.305H181.155ZM201.557 84.0104C204.044 84.0104 205.997 83.4521 207.418 82.3356C208.839 81.2191 209.854 79.7981 210.464 78.0726C211.073 76.2964 211.377 74.444 211.377 72.5155C211.377 70.4855 211.047 68.5824 210.387 66.8062C209.778 64.9792 208.738 63.5074 207.266 62.3909C205.794 61.2745 203.841 60.7162 201.405 60.7162C199.171 60.7162 197.268 61.2745 195.695 62.3909C194.173 63.4567 193.005 64.8777 192.193 66.6539C191.432 68.4302 191.051 70.3587 191.051 72.4394C191.051 74.5202 191.432 76.4486 192.193 78.2249C192.955 79.9504 194.096 81.346 195.619 82.4117C197.192 83.4775 199.171 84.0104 201.557 84.0104Z"/>
<path d="M225.011 92.4602V52.3425H234.983V92.4602H225.011ZM230.035 48.0034C228.157 48.0034 226.635 47.4451 225.467 46.3286C224.351 45.1614 223.793 43.6896 223.793 41.9134C223.793 40.0864 224.376 38.5893 225.544 37.422C226.762 36.2548 228.284 35.6712 230.111 35.6712C231.786 35.6712 233.232 36.2548 234.45 37.422C235.719 38.5385 236.353 40.0103 236.353 41.8373C236.353 43.6643 235.744 45.1614 234.526 46.3286C233.359 47.4451 231.862 48.0034 230.035 48.0034Z"/>
<path d="M253.565 92.917C250.622 92.917 248.16 92.4095 246.181 91.3945C244.252 90.3287 242.806 88.7555 241.842 86.6747C240.928 84.594 240.471 82.0057 240.471 78.91V38.5639H250.444V76.9308C250.444 78.301 250.571 79.4936 250.825 80.5086C251.129 81.5236 251.637 82.3102 252.347 82.8685C253.108 83.4267 254.174 83.7059 255.544 83.7059C256.559 83.7059 257.524 83.5536 258.437 83.2491C259.351 82.8939 260.188 82.4117 260.949 81.8027L264.223 89.4913C262.599 90.8108 260.899 91.7243 259.122 92.2318C257.397 92.6886 255.544 92.917 253.565 92.917Z"/>
<path d="M277.795 92.917C274.851 92.917 272.39 92.4095 270.41 91.3945C268.482 90.3287 267.035 88.7555 266.071 86.6747C265.158 84.594 264.701 82.0057 264.701 78.91V38.5639H274.673V76.9308C274.673 78.301 274.8 79.4936 275.054 80.5086C275.359 81.5236 275.866 82.3102 276.577 82.8685C277.338 83.4267 278.404 83.7059 279.774 83.7059C280.789 83.7059 281.753 83.5536 282.667 83.2491C283.58 82.8939 284.418 82.4117 285.179 81.8027L288.452 89.4913C286.828 90.8108 285.128 91.7243 283.352 92.2318C281.626 92.6886 279.774 92.917 277.795 92.917Z"/>
<path d="M307.353 92.9931C303.242 92.9931 299.69 92.1557 296.695 90.481C293.701 88.8062 291.366 86.4464 289.692 83.4014C288.068 80.3056 287.256 76.6516 287.256 72.4394C287.256 68.1764 288.093 64.4971 289.768 61.4013C291.443 58.3056 293.777 55.9203 296.771 54.2456C299.766 52.5201 303.268 51.6574 307.277 51.6574C311.337 51.6574 314.839 52.5201 317.782 54.2456C320.776 55.9711 323.086 58.4071 324.71 61.5536C326.334 64.6493 327.146 68.3287 327.146 72.5917C327.146 76.7531 326.334 80.3818 324.71 83.4775C323.136 86.5225 320.878 88.8823 317.934 90.5571C314.991 92.1811 311.464 92.9931 307.353 92.9931ZM307.201 83.8581C309.637 83.8581 311.591 83.3252 313.062 82.2595C314.585 81.1938 315.676 79.7981 316.336 78.0726C316.996 76.3471 317.325 74.4948 317.325 72.5155C317.325 70.5363 316.996 68.6585 316.336 66.8823C315.676 65.1061 314.61 63.6597 313.139 62.5432C311.667 61.4267 309.687 60.8685 307.201 60.8685C304.815 60.8685 302.861 61.4267 301.339 62.5432C299.867 63.6597 298.776 65.1061 298.066 66.8823C297.406 68.6078 297.076 70.4855 297.076 72.5155C297.076 74.4948 297.406 76.3725 298.066 78.1488C298.776 79.8743 299.867 81.2699 301.339 82.3356C302.861 83.3506 304.815 83.8581 307.201 83.8581Z"/>
<path d="M330.85 92.4602V52.3425H340.213L340.746 57.2145C341.812 55.7935 343.055 54.7023 344.476 53.9411C345.948 53.1291 347.445 52.5455 348.968 52.1902C350.49 51.835 351.911 51.6574 353.231 51.6574C357.037 51.6574 360.031 52.4947 362.214 54.1695C364.396 55.8442 365.944 58.1026 366.857 60.9446C367.822 63.7358 368.304 66.8569 368.304 70.3079V92.4602H358.331V71.7543C358.331 70.384 358.23 69.0645 358.027 67.7958C357.824 66.4763 357.443 65.2837 356.885 64.2179C356.327 63.1522 355.54 62.3148 354.525 61.7058C353.51 61.0461 352.165 60.7162 350.49 60.7162C348.359 60.7162 346.557 61.2745 345.085 62.3909C343.664 63.4567 342.598 64.9031 341.888 66.7301C341.177 68.557 340.822 70.6124 340.822 72.8962V92.4602H330.85Z"/>
</mask>
<path fill-rule="evenodd" clip-rule="evenodd" d="M26.4055 48.1329C26.7905 49.8283 27.3237 51.5871 28.0011 53.3747C26.271 53.5491 24.6309 53.8203 23.1058 54.1855C20.2973 54.8581 17.6915 55.8944 15.6223 57.3964C13.5343 58.9118 11.7788 61.0753 11.2855 63.9405C10.7921 66.8056 11.7191 69.4534 13.175 71.6088C14.6178 73.7449 16.7203 75.6312 19.1348 77.247C19.5858 77.5488 20.0534 77.8449 20.5365 78.1349C25.2525 80.988 31.4746 83.2522 38.3313 84.4903C46.0642 85.8865 53.4207 85.1391 59.0116 83.4849C59.3174 83.3944 59.6195 83.3008 59.9175 83.2041C59.0963 86.7518 58.5377 90.1352 58.2748 93.1334C58.0182 96.0615 58.0232 98.8395 58.4513 101.117C58.775 102.84 59.5836 105.549 61.9086 106.915C62.2188 107.107 62.5568 107.274 62.9253 107.411C65.728 108.456 68.3003 107.116 69.8982 105.913C71.6354 104.605 73.3093 102.674 74.8594 100.468C77.9918 96.011 81.154 89.6587 83.7115 82.4632C86.2691 75.2677 87.8341 68.3203 88.2325 62.8439C88.4297 60.1338 88.3596 57.5527 87.8498 55.4074C87.4381 53.675 86.5174 51.3674 84.4022 50.123C84.0783 49.9232 83.7257 49.7485 83.3416 49.6054C80.832 48.67 78.4319 49.526 76.7004 50.6191C74.9324 51.7353 73.2652 53.4443 71.7377 55.4394C70.6664 56.8385 69.5967 58.4672 68.5492 60.2996C66.8368 55.8292 64.1267 50.7974 60.123 45.9114C55.8117 40.65 50.9895 36.3871 46.3765 33.618C45.7127 33.2165 45.0532 32.8459 44.4 32.5075C41.8263 31.1741 39.1797 30.2528 36.6517 30.0413C34.101 29.8279 31.4735 30.4217 29.2971 32.2918C27.1523 34.1527 26.164 36.8409 25.8185 39.4576C25.4671 42.1194 25.717 45.1019 26.4055 48.1329ZM41.0573 39.5546C41.5288 39.7989 42.0105 40.0683 42.5005 40.3622C46.1782 42.5888 50.316 46.1836 54.1618 50.8769C56.5935 53.8445 58.4519 56.8543 59.8355 59.6748C55.3184 57.2019 49.6393 55.2445 43.4416 54.1254C41.0062 53.6857 38.6027 53.3956 36.2745 53.2505C35.1442 50.8456 34.3353 48.5023 33.8487 46.3602C33.3041 43.9624 33.1982 41.9705 33.3915 40.5061C33.5891 39.0095 34.0382 38.4332 34.241 38.259C34.4343 38.0929 34.9308 37.8044 36.1367 37.9052C37.3653 38.008 39.0325 38.5056 41.0573 39.5546ZM39.5511 76.7192C33.4368 75.6152 28.1657 73.6409 24.4128 71.391C24.0695 71.1831 23.7392 70.9729 23.4224 70.7608C21.5228 69.4897 20.2684 68.26 19.5671 67.2218C18.8789 66.2029 18.8746 65.6183 18.9184 65.3639C18.9623 65.1094 19.1615 64.5616 20.1486 63.8452C21.1543 63.1152 22.7437 62.399 24.9533 61.8698C26.908 61.4017 29.2019 61.1148 31.7378 61.0467C32.9946 63.1437 34.4399 65.2129 36.0678 67.1995C39.9253 71.907 44.4892 75.2052 49.0168 77.2488C46.0589 77.4423 42.8475 77.3144 39.5511 76.7192ZM42.2218 61.8965C48.3363 63.0005 53.6076 64.9749 57.3605 67.225C57.7037 67.4328 58.0339 67.6429 58.3506 67.8548C60.2502 69.126 61.5045 70.3557 62.2058 71.3938C62.2991 71.532 62.3798 71.6621 62.4496 71.7845C62.1234 71.8579 61.7539 71.9183 61.3376 71.9589C59.7658 72.112 57.7798 71.9506 55.5557 71.3412C51.1148 70.1242 46.0513 67.209 41.9218 62.1694C41.8185 62.0433 41.7161 61.9169 41.6146 61.7902C41.8164 61.8244 42.0188 61.8598 42.2218 61.8965ZM77.8587 60.3323C78.8678 59.0142 79.7361 58.1492 80.4069 57.6338C80.5854 58.669 80.6508 60.1884 80.5046 62.198C80.1716 66.7754 78.8114 73.0034 76.4233 79.7222C74.0352 86.441 71.1677 92.1072 68.5495 95.8329C67.561 97.2395 66.6802 98.2655 65.9526 98.9548C65.814 97.7184 65.8073 96.0198 65.9933 93.8976C66.4222 89.0049 67.8032 82.6303 70.0024 76.2286C70.1173 75.9778 70.2197 75.7138 70.305 75.4369C70.4977 75.0162 70.6316 74.594 70.7267 74.2007C73.0087 68.0507 75.5633 63.3302 77.8587 60.3323Z" fill="#29947A"/>
<path d="M96.8989 92.4602V38.5639H117.529C121.64 38.5639 125.192 39.1983 128.187 40.467C131.232 41.685 133.566 43.6643 135.19 46.4048C136.865 49.0945 137.702 52.647 137.702 57.0622C137.702 61.2744 136.789 64.8016 134.962 67.6436C133.135 70.4348 130.623 72.5409 127.425 73.9619C124.279 75.3321 120.676 76.0173 116.616 76.0173H107.1V92.4602H96.8989ZM107.1 66.8823H116.463C119.813 66.8823 122.503 66.0703 124.533 64.4463C126.563 62.8223 127.578 60.3356 127.578 56.9861C127.578 53.9919 126.715 51.7589 124.989 50.2871C123.315 48.7646 120.676 48.0034 117.072 48.0034H107.1V66.8823Z" fill="#29947A"/>
<path d="M153.871 92.917C151.435 92.917 149.151 92.511 147.02 91.699C144.939 90.8362 143.264 89.5421 141.995 87.8166C140.727 86.0404 140.092 83.8074 140.092 81.1176C140.092 79.1384 140.447 77.4636 141.158 76.0934C141.919 74.6724 142.909 73.5052 144.127 72.5917C145.396 71.6274 146.842 70.8662 148.466 70.3079C150.09 69.7497 151.765 69.3183 153.49 69.0138C155.267 68.6585 157.246 68.3794 159.428 68.1764C161.61 67.9734 163.945 67.7451 166.432 67.4913C166.432 65.9688 166.127 64.6747 165.518 63.6089C164.909 62.4924 164.046 61.6551 162.93 61.0968C161.813 60.4878 160.443 60.1833 158.819 60.1833C157.094 60.1833 155.596 60.4878 154.328 61.0968C153.059 61.6551 152.095 62.6193 151.435 63.9896H141.31C141.818 60.9446 142.934 58.534 144.66 56.7577C146.436 54.9815 148.593 53.7127 151.13 52.9515C153.668 52.1395 156.282 51.7335 158.971 51.7335C163.082 51.7335 166.381 52.4694 168.868 53.9411C171.355 55.4128 173.156 57.5697 174.273 60.4117C175.389 63.2029 175.947 66.6286 175.947 70.6885V92.4602H166.888L166.584 87.5882C165.417 89.0092 164.072 90.1257 162.549 90.9377C161.078 91.699 159.58 92.2065 158.058 92.4602C156.586 92.7647 155.19 92.917 153.871 92.917ZM155.926 84.8477C157.855 84.8477 159.58 84.4925 161.103 83.782C162.676 83.0715 163.92 82.0565 164.833 80.737C165.797 79.3668 166.33 77.7428 166.432 75.865V74.3425C165.315 74.444 164.199 74.5709 163.082 74.7232C161.966 74.8247 160.824 74.9515 159.657 75.1038C158.54 75.2053 157.423 75.3575 156.307 75.5605C154.429 75.8143 152.907 76.3471 151.739 77.1591C150.572 77.9711 149.989 79.0876 149.989 80.5086C149.989 81.6251 150.293 82.5132 150.902 83.173C151.562 83.782 152.348 84.2134 153.262 84.4671C154.175 84.7209 155.064 84.8477 155.926 84.8477Z" fill="#29947A"/>
<path d="M181.155 107.305V52.3425H190.518L190.975 57.519C192.599 55.489 194.477 54.0172 196.609 53.1037C198.74 52.1395 201.1 51.6574 203.688 51.6574C207.647 51.6574 210.92 52.5709 213.509 54.3979C216.097 56.2248 218.025 58.7116 219.294 61.8581C220.614 64.9538 221.273 68.4302 221.273 72.2872C221.273 76.2456 220.588 79.7981 219.218 82.9446C217.898 86.0404 215.894 88.5017 213.204 90.3287C210.565 92.105 207.241 92.9931 203.232 92.9931C201.405 92.9931 199.73 92.7901 198.207 92.3841C196.685 91.9781 195.314 91.4198 194.096 90.7093C192.929 89.9481 191.94 89.1107 191.127 88.1972V107.305H181.155ZM201.557 84.0104C204.044 84.0104 205.997 83.4521 207.418 82.3356C208.839 81.2191 209.854 79.7981 210.464 78.0726C211.073 76.2964 211.377 74.444 211.377 72.5155C211.377 70.4855 211.047 68.5824 210.387 66.8062C209.778 64.9792 208.738 63.5074 207.266 62.3909C205.794 61.2745 203.841 60.7162 201.405 60.7162C199.171 60.7162 197.268 61.2745 195.695 62.3909C194.173 63.4567 193.005 64.8777 192.193 66.6539C191.432 68.4302 191.051 70.3587 191.051 72.4394C191.051 74.5202 191.432 76.4486 192.193 78.2249C192.955 79.9504 194.096 81.346 195.619 82.4117C197.192 83.4775 199.171 84.0104 201.557 84.0104Z" fill="#29947A"/>
<path d="M225.011 92.4602V52.3425H234.983V92.4602H225.011ZM230.035 48.0034C228.157 48.0034 226.635 47.4451 225.467 46.3286C224.351 45.1614 223.793 43.6896 223.793 41.9134C223.793 40.0864 224.376 38.5893 225.544 37.422C226.762 36.2548 228.284 35.6712 230.111 35.6712C231.786 35.6712 233.232 36.2548 234.45 37.422C235.719 38.5385 236.353 40.0103 236.353 41.8373C236.353 43.6643 235.744 45.1614 234.526 46.3286C233.359 47.4451 231.862 48.0034 230.035 48.0034Z" fill="#29947A"/>
<path d="M253.565 92.917C250.622 92.917 248.16 92.4095 246.181 91.3945C244.252 90.3287 242.806 88.7555 241.842 86.6747C240.928 84.594 240.471 82.0057 240.471 78.91V38.5639H250.444V76.9308C250.444 78.301 250.571 79.4936 250.825 80.5086C251.129 81.5236 251.637 82.3102 252.347 82.8685C253.108 83.4267 254.174 83.7059 255.544 83.7059C256.559 83.7059 257.524 83.5536 258.437 83.2491C259.351 82.8939 260.188 82.4117 260.949 81.8027L264.223 89.4913C262.599 90.8108 260.899 91.7243 259.122 92.2318C257.397 92.6886 255.544 92.917 253.565 92.917Z" fill="#29947A"/>
<path d="M277.795 92.917C274.851 92.917 272.39 92.4095 270.41 91.3945C268.482 90.3287 267.035 88.7555 266.071 86.6747C265.158 84.594 264.701 82.0057 264.701 78.91V38.5639H274.673V76.9308C274.673 78.301 274.8 79.4936 275.054 80.5086C275.359 81.5236 275.866 82.3102 276.577 82.8685C277.338 83.4267 278.404 83.7059 279.774 83.7059C280.789 83.7059 281.753 83.5536 282.667 83.2491C283.58 82.8939 284.418 82.4117 285.179 81.8027L288.452 89.4913C286.828 90.8108 285.128 91.7243 283.352 92.2318C281.626 92.6886 279.774 92.917 277.795 92.917Z" fill="#29947A"/>
<path d="M307.353 92.9931C303.242 92.9931 299.69 92.1557 296.695 90.481C293.701 88.8062 291.366 86.4464 289.692 83.4014C288.068 80.3056 287.256 76.6516 287.256 72.4394C287.256 68.1764 288.093 64.4971 289.768 61.4013C291.443 58.3056 293.777 55.9203 296.771 54.2456C299.766 52.5201 303.268 51.6574 307.277 51.6574C311.337 51.6574 314.839 52.5201 317.782 54.2456C320.776 55.9711 323.086 58.4071 324.71 61.5536C326.334 64.6493 327.146 68.3287 327.146 72.5917C327.146 76.7531 326.334 80.3818 324.71 83.4775C323.136 86.5225 320.878 88.8823 317.934 90.5571C314.991 92.1811 311.464 92.9931 307.353 92.9931ZM307.201 83.8581C309.637 83.8581 311.591 83.3252 313.062 82.2595C314.585 81.1938 315.676 79.7981 316.336 78.0726C316.996 76.3471 317.325 74.4948 317.325 72.5155C317.325 70.5363 316.996 68.6585 316.336 66.8823C315.676 65.1061 314.61 63.6597 313.139 62.5432C311.667 61.4267 309.687 60.8685 307.201 60.8685C304.815 60.8685 302.861 61.4267 301.339 62.5432C299.867 63.6597 298.776 65.1061 298.066 66.8823C297.406 68.6078 297.076 70.4855 297.076 72.5155C297.076 74.4948 297.406 76.3725 298.066 78.1488C298.776 79.8743 299.867 81.2699 301.339 82.3356C302.861 83.3506 304.815 83.8581 307.201 83.8581Z" fill="#29947A"/>
<path d="M330.85 92.4602V52.3425H340.213L340.746 57.2145C341.812 55.7935 343.055 54.7023 344.476 53.9411C345.948 53.1291 347.445 52.5455 348.968 52.1902C350.49 51.835 351.911 51.6574 353.231 51.6574C357.037 51.6574 360.031 52.4947 362.214 54.1695C364.396 55.8442 365.944 58.1026 366.857 60.9446C367.822 63.7358 368.304 66.8569 368.304 70.3079V92.4602H358.331V71.7543C358.331 70.384 358.23 69.0645 358.027 67.7958C357.824 66.4763 357.443 65.2837 356.885 64.2179C356.327 63.1522 355.54 62.3148 354.525 61.7058C353.51 61.0461 352.165 60.7162 350.49 60.7162C348.359 60.7162 346.557 61.2745 345.085 62.3909C343.664 63.4567 342.598 64.9031 341.888 66.7301C341.177 68.557 340.822 70.6124 340.822 72.8962V92.4602H330.85Z" fill="#29947A"/>
<path fill-rule="evenodd" clip-rule="evenodd" d="M26.4055 48.1329C26.7905 49.8283 27.3237 51.5871 28.0011 53.3747C26.271 53.5491 24.6309 53.8203 23.1058 54.1855C20.2973 54.8581 17.6915 55.8944 15.6223 57.3964C13.5343 58.9118 11.7788 61.0753 11.2855 63.9405C10.7921 66.8056 11.7191 69.4534 13.175 71.6088C14.6178 73.7449 16.7203 75.6312 19.1348 77.247C19.5858 77.5488 20.0534 77.8449 20.5365 78.1349C25.2525 80.988 31.4746 83.2522 38.3313 84.4903C46.0642 85.8865 53.4207 85.1391 59.0116 83.4849C59.3174 83.3944 59.6195 83.3008 59.9175 83.2041C59.0963 86.7518 58.5377 90.1352 58.2748 93.1334C58.0182 96.0615 58.0232 98.8395 58.4513 101.117C58.775 102.84 59.5836 105.549 61.9086 106.915C62.2188 107.107 62.5568 107.274 62.9253 107.411C65.728 108.456 68.3003 107.116 69.8982 105.913C71.6354 104.605 73.3093 102.674 74.8594 100.468C77.9918 96.011 81.154 89.6587 83.7115 82.4632C86.2691 75.2677 87.8341 68.3203 88.2325 62.8439C88.4297 60.1338 88.3596 57.5527 87.8498 55.4074C87.4381 53.675 86.5174 51.3674 84.4022 50.123C84.0783 49.9232 83.7257 49.7485 83.3416 49.6054C80.832 48.67 78.4319 49.526 76.7004 50.6191C74.9324 51.7353 73.2652 53.4443 71.7377 55.4394C70.6664 56.8385 69.5967 58.4672 68.5492 60.2996C66.8368 55.8292 64.1267 50.7974 60.123 45.9114C55.8117 40.65 50.9895 36.3871 46.3765 33.618C45.7127 33.2165 45.0532 32.8459 44.4 32.5075C41.8263 31.1741 39.1797 30.2528 36.6517 30.0413C34.101 29.8279 31.4735 30.4217 29.2971 32.2918C27.1523 34.1527 26.164 36.8409 25.8185 39.4576C25.4671 42.1194 25.717 45.1019 26.4055 48.1329ZM41.0573 39.5546C41.5288 39.7989 42.0105 40.0683 42.5005 40.3622C46.1782 42.5888 50.316 46.1836 54.1618 50.8769C56.5935 53.8445 58.4519 56.8543 59.8355 59.6748C55.3184 57.2019 49.6393 55.2445 43.4416 54.1254C41.0062 53.6857 38.6027 53.3956 36.2745 53.2505C35.1442 50.8456 34.3353 48.5023 33.8487 46.3602C33.3041 43.9624 33.1982 41.9705 33.3915 40.5061C33.5891 39.0095 34.0382 38.4332 34.241 38.259C34.4343 38.0929 34.9308 37.8044 36.1367 37.9052C37.3653 38.008 39.0325 38.5056 41.0573 39.5546ZM39.5511 76.7192C33.4368 75.6152 28.1657 73.6409 24.4128 71.391C24.0695 71.1831 23.7392 70.9729 23.4224 70.7608C21.5228 69.4897 20.2684 68.26 19.5671 67.2218C18.8789 66.2029 18.8746 65.6183 18.9184 65.3639C18.9623 65.1094 19.1615 64.5616 20.1486 63.8452C21.1543 63.1152 22.7437 62.399 24.9533 61.8698C26.908 61.4017 29.2019 61.1148 31.7378 61.0467C32.9946 63.1437 34.4399 65.2129 36.0678 67.1995C39.9253 71.907 44.4892 75.2052 49.0168 77.2488C46.0589 77.4423 42.8475 77.3144 39.5511 76.7192ZM42.2218 61.8965C48.3363 63.0005 53.6076 64.9749 57.3605 67.225C57.7037 67.4328 58.0339 67.6429 58.3506 67.8548C60.2502 69.126 61.5045 70.3557 62.2058 71.3938C62.2991 71.532 62.3798 71.6621 62.4496 71.7845C62.1234 71.8579 61.7539 71.9183 61.3376 71.9589C59.7658 72.112 57.7798 71.9506 55.5557 71.3412C51.1148 70.1242 46.0513 67.209 41.9218 62.1694C41.8185 62.0433 41.7161 61.9169 41.6146 61.7902C41.8164 61.8244 42.0188 61.8598 42.2218 61.8965ZM77.8587 60.3323C78.8678 59.0142 79.7361 58.1492 80.4069 57.6338C80.5854 58.669 80.6508 60.1884 80.5046 62.198C80.1716 66.7754 78.8114 73.0034 76.4233 79.7222C74.0352 86.441 71.1677 92.1072 68.5495 95.8329C67.561 97.2395 66.6802 98.2655 65.9526 98.9548C65.814 97.7184 65.8073 96.0198 65.9933 93.8976C66.4222 89.0049 67.8032 82.6303 70.0024 76.2286C70.1173 75.9778 70.2197 75.7138 70.305 75.4369C70.4977 75.0162 70.6316 74.594 70.7267 74.2007C73.0087 68.0507 75.5633 63.3302 77.8587 60.3323Z" stroke="white" stroke-width="15.0556" stroke-linejoin="round" mask="url(#path-2-outside-1_3704_2045)"/>
<path d="M96.8989 92.4602V38.5639H117.529C121.64 38.5639 125.192 39.1983 128.187 40.467C131.232 41.685 133.566 43.6643 135.19 46.4048C136.865 49.0945 137.702 52.647 137.702 57.0622C137.702 61.2744 136.789 64.8016 134.962 67.6436C133.135 70.4348 130.623 72.5409 127.425 73.9619C124.279 75.3321 120.676 76.0173 116.616 76.0173H107.1V92.4602H96.8989ZM107.1 66.8823H116.463C119.813 66.8823 122.503 66.0703 124.533 64.4463C126.563 62.8223 127.578 60.3356 127.578 56.9861C127.578 53.9919 126.715 51.7589 124.989 50.2871C123.315 48.7646 120.676 48.0034 117.072 48.0034H107.1V66.8823Z" stroke="white" stroke-width="15.0556" stroke-linejoin="round" mask="url(#path-2-outside-1_3704_2045)"/>
<path d="M153.871 92.917C151.435 92.917 149.151 92.511 147.02 91.699C144.939 90.8362 143.264 89.5421 141.995 87.8166C140.727 86.0404 140.092 83.8074 140.092 81.1176C140.092 79.1384 140.447 77.4636 141.158 76.0934C141.919 74.6724 142.909 73.5052 144.127 72.5917C145.396 71.6274 146.842 70.8662 148.466 70.3079C150.09 69.7497 151.765 69.3183 153.49 69.0138C155.267 68.6585 157.246 68.3794 159.428 68.1764C161.61 67.9734 163.945 67.7451 166.432 67.4913C166.432 65.9688 166.127 64.6747 165.518 63.6089C164.909 62.4924 164.046 61.6551 162.93 61.0968C161.813 60.4878 160.443 60.1833 158.819 60.1833C157.094 60.1833 155.596 60.4878 154.328 61.0968C153.059 61.6551 152.095 62.6193 151.435 63.9896H141.31C141.818 60.9446 142.934 58.534 144.66 56.7577C146.436 54.9815 148.593 53.7127 151.13 52.9515C153.668 52.1395 156.282 51.7335 158.971 51.7335C163.082 51.7335 166.381 52.4694 168.868 53.9411C171.355 55.4128 173.156 57.5697 174.273 60.4117C175.389 63.2029 175.947 66.6286 175.947 70.6885V92.4602H166.888L166.584 87.5882C165.417 89.0092 164.072 90.1257 162.549 90.9377C161.078 91.699 159.58 92.2065 158.058 92.4602C156.586 92.7647 155.19 92.917 153.871 92.917ZM155.926 84.8477C157.855 84.8477 159.58 84.4925 161.103 83.782C162.676 83.0715 163.92 82.0565 164.833 80.737C165.797 79.3668 166.33 77.7428 166.432 75.865V74.3425C165.315 74.444 164.199 74.5709 163.082 74.7232C161.966 74.8247 160.824 74.9515 159.657 75.1038C158.54 75.2053 157.423 75.3575 156.307 75.5605C154.429 75.8143 152.907 76.3471 151.739 77.1591C150.572 77.9711 149.989 79.0876 149.989 80.5086C149.989 81.6251 150.293 82.5132 150.902 83.173C151.562 83.782 152.348 84.2134 153.262 84.4671C154.175 84.7209 155.064 84.8477 155.926 84.8477Z" stroke="white" stroke-width="15.0556" stroke-linejoin="round" mask="url(#path-2-outside-1_3704_2045)"/>
<path d="M181.155 107.305V52.3425H190.518L190.975 57.519C192.599 55.489 194.477 54.0172 196.609 53.1037C198.74 52.1395 201.1 51.6574 203.688 51.6574C207.647 51.6574 210.92 52.5709 213.509 54.3979C216.097 56.2248 218.025 58.7116 219.294 61.8581C220.614 64.9538 221.273 68.4302 221.273 72.2872C221.273 76.2456 220.588 79.7981 219.218 82.9446C217.898 86.0404 215.894 88.5017 213.204 90.3287C210.565 92.105 207.241 92.9931 203.232 92.9931C201.405 92.9931 199.73 92.7901 198.207 92.3841C196.685 91.9781 195.314 91.4198 194.096 90.7093C192.929 89.9481 191.94 89.1107 191.127 88.1972V107.305H181.155ZM201.557 84.0104C204.044 84.0104 205.997 83.4521 207.418 82.3356C208.839 81.2191 209.854 79.7981 210.464 78.0726C211.073 76.2964 211.377 74.444 211.377 72.5155C211.377 70.4855 211.047 68.5824 210.387 66.8062C209.778 64.9792 208.738 63.5074 207.266 62.3909C205.794 61.2745 203.841 60.7162 201.405 60.7162C199.171 60.7162 197.268 61.2745 195.695 62.3909C194.173 63.4567 193.005 64.8777 192.193 66.6539C191.432 68.4302 191.051 70.3587 191.051 72.4394C191.051 74.5202 191.432 76.4486 192.193 78.2249C192.955 79.9504 194.096 81.346 195.619 82.4117C197.192 83.4775 199.171 84.0104 201.557 84.0104Z" stroke="white" stroke-width="15.0556" stroke-linejoin="round" mask="url(#path-2-outside-1_3704_2045)"/>
<path d="M225.011 92.4602V52.3425H234.983V92.4602H225.011ZM230.035 48.0034C228.157 48.0034 226.635 47.4451 225.467 46.3286C224.351 45.1614 223.793 43.6896 223.793 41.9134C223.793 40.0864 224.376 38.5893 225.544 37.422C226.762 36.2548 228.284 35.6712 230.111 35.6712C231.786 35.6712 233.232 36.2548 234.45 37.422C235.719 38.5385 236.353 40.0103 236.353 41.8373C236.353 43.6643 235.744 45.1614 234.526 46.3286C233.359 47.4451 231.862 48.0034 230.035 48.0034Z" stroke="white" stroke-width="15.0556" stroke-linejoin="round" mask="url(#path-2-outside-1_3704_2045)"/>
<path d="M253.565 92.917C250.622 92.917 248.16 92.4095 246.181 91.3945C244.252 90.3287 242.806 88.7555 241.842 86.6747C240.928 84.594 240.471 82.0057 240.471 78.91V38.5639H250.444V76.9308C250.444 78.301 250.571 79.4936 250.825 80.5086C251.129 81.5236 251.637 82.3102 252.347 82.8685C253.108 83.4267 254.174 83.7059 255.544 83.7059C256.559 83.7059 257.524 83.5536 258.437 83.2491C259.351 82.8939 260.188 82.4117 260.949 81.8027L264.223 89.4913C262.599 90.8108 260.899 91.7243 259.122 92.2318C257.397 92.6886 255.544 92.917 253.565 92.917Z" stroke="white" stroke-width="15.0556" stroke-linejoin="round" mask="url(#path-2-outside-1_3704_2045)"/>
<path d="M277.795 92.917C274.851 92.917 272.39 92.4095 270.41 91.3945C268.482 90.3287 267.035 88.7555 266.071 86.6747C265.158 84.594 264.701 82.0057 264.701 78.91V38.5639H274.673V76.9308C274.673 78.301 274.8 79.4936 275.054 80.5086C275.359 81.5236 275.866 82.3102 276.577 82.8685C277.338 83.4267 278.404 83.7059 279.774 83.7059C280.789 83.7059 281.753 83.5536 282.667 83.2491C283.58 82.8939 284.418 82.4117 285.179 81.8027L288.452 89.4913C286.828 90.8108 285.128 91.7243 283.352 92.2318C281.626 92.6886 279.774 92.917 277.795 92.917Z" stroke="white" stroke-width="15.0556" stroke-linejoin="round" mask="url(#path-2-outside-1_3704_2045)"/>
<path d="M307.353 92.9931C303.242 92.9931 299.69 92.1557 296.695 90.481C293.701 88.8062 291.366 86.4464 289.692 83.4014C288.068 80.3056 287.256 76.6516 287.256 72.4394C287.256 68.1764 288.093 64.4971 289.768 61.4013C291.443 58.3056 293.777 55.9203 296.771 54.2456C299.766 52.5201 303.268 51.6574 307.277 51.6574C311.337 51.6574 314.839 52.5201 317.782 54.2456C320.776 55.9711 323.086 58.4071 324.71 61.5536C326.334 64.6493 327.146 68.3287 327.146 72.5917C327.146 76.7531 326.334 80.3818 324.71 83.4775C323.136 86.5225 320.878 88.8823 317.934 90.5571C314.991 92.1811 311.464 92.9931 307.353 92.9931ZM307.201 83.8581C309.637 83.8581 311.591 83.3252 313.062 82.2595C314.585 81.1938 315.676 79.7981 316.336 78.0726C316.996 76.3471 317.325 74.4948 317.325 72.5155C317.325 70.5363 316.996 68.6585 316.336 66.8823C315.676 65.1061 314.61 63.6597 313.139 62.5432C311.667 61.4267 309.687 60.8685 307.201 60.8685C304.815 60.8685 302.861 61.4267 301.339 62.5432C299.867 63.6597 298.776 65.1061 298.066 66.8823C297.406 68.6078 297.076 70.4855 297.076 72.5155C297.076 74.4948 297.406 76.3725 298.066 78.1488C298.776 79.8743 299.867 81.2699 301.339 82.3356C302.861 83.3506 304.815 83.8581 307.201 83.8581Z" stroke="white" stroke-width="15.0556" stroke-linejoin="round" mask="url(#path-2-outside-1_3704_2045)"/>
<path d="M330.85 92.4602V52.3425H340.213L340.746 57.2145C341.812 55.7935 343.055 54.7023 344.476 53.9411C345.948 53.1291 347.445 52.5455 348.968 52.1902C350.49 51.835 351.911 51.6574 353.231 51.6574C357.037 51.6574 360.031 52.4947 362.214 54.1695C364.396 55.8442 365.944 58.1026 366.857 60.9446C367.822 63.7358 368.304 66.8569 368.304 70.3079V92.4602H358.331V71.7543C358.331 70.384 358.23 69.0645 358.027 67.7958C357.824 66.4763 357.443 65.2837 356.885 64.2179C356.327 63.1522 355.54 62.3148 354.525 61.7058C353.51 61.0461 352.165 60.7162 350.49 60.7162C348.359 60.7162 346.557 61.2745 345.085 62.3909C343.664 63.4567 342.598 64.9031 341.888 66.7301C341.177 68.557 340.822 70.6124 340.822 72.8962V92.4602H330.85Z" stroke="white" stroke-width="15.0556" stroke-linejoin="round" mask="url(#path-2-outside-1_3704_2045)"/>
</svg>
