<svg width="656" height="215" viewBox="0 0 656 215" fill="none" xmlns="http://www.w3.org/2000/svg">
<mask id="path-1-outside-1_191_338" maskUnits="userSpaceOnUse" x="-0.995117" y="-0.00195312" width="657" height="215" fill="black">
<rect fill="white" x="-0.995117" y="-0.00195312" width="657" height="215"/>
<path fill-rule="evenodd" clip-rule="evenodd" d="M54.1279 60.5591C54.9893 64.3514 56.182 68.2856 57.6973 72.2842C53.8272 72.6743 50.1581 73.2809 46.7464 74.0979C40.4636 75.6026 34.6345 77.9205 30.0054 81.2802C25.3346 84.6701 21.4074 89.5097 20.3038 95.9185C19.2001 102.327 21.2739 108.25 24.5307 113.072C27.7584 117.85 32.4618 122.069 37.8631 125.683C38.8721 126.359 39.918 127.021 40.9988 127.67C51.5487 134.052 65.4678 139.116 80.8066 141.886C98.1054 145.009 114.562 143.337 127.069 139.637C127.753 139.435 128.429 139.225 129.096 139.009C127.259 146.945 126.009 154.513 125.421 161.22C124.847 167.769 124.858 173.983 125.816 179.078C126.54 182.932 128.349 188.991 133.55 192.047C134.244 192.476 135 192.85 135.825 193.157C142.094 195.494 147.849 192.497 151.423 189.806C155.309 186.881 159.054 182.561 162.522 177.627C169.529 167.656 176.603 153.447 182.324 137.352C188.046 121.256 191.547 105.716 192.438 93.4657C192.879 87.4035 192.722 81.6299 191.582 76.8311C190.661 72.956 188.601 67.7943 183.869 65.0106C183.145 64.5636 182.356 64.173 181.497 63.8528C175.883 61.7606 170.514 63.6751 166.64 66.1204C162.685 68.6171 158.955 72.4399 155.538 76.9028C153.142 80.0324 150.749 83.6754 148.406 87.7745C144.575 77.7747 138.512 66.5193 129.556 55.5899C119.911 43.8208 109.123 34.2852 98.8041 28.0911C97.3192 27.193 95.8437 26.3639 94.3825 25.6069C88.6251 22.6243 82.7045 20.5635 77.0494 20.0904C71.3432 19.6131 65.4654 20.9414 60.5967 25.1245C55.7986 29.2872 53.5877 35.3002 52.8149 41.1536C52.0287 47.1077 52.5879 53.779 54.1279 60.5591ZM86.9047 41.3705C87.9596 41.917 89.0372 42.5196 90.1334 43.1769C98.3605 48.1576 107.617 56.1988 116.22 66.697C121.66 73.3351 125.817 80.0677 128.913 86.3768C118.808 80.8453 106.103 76.4667 92.2386 73.9635C86.7904 72.9798 81.4138 72.3311 76.2055 72.0065C73.677 66.627 71.8672 61.3854 70.7788 56.5937C69.5605 51.2302 69.3235 46.7745 69.756 43.4988C70.198 40.1512 71.2027 38.8621 71.6564 38.4723C72.0888 38.1008 73.1995 37.4554 75.8971 37.6811C78.6456 37.911 82.3751 39.024 86.9047 41.3705ZM83.5354 124.503C69.8574 122.033 58.0656 117.617 49.6703 112.584C48.9024 112.119 48.1634 111.649 47.4546 111.175C43.2051 108.331 40.399 105.581 38.8302 103.259C37.2906 100.979 37.2811 99.6717 37.3791 99.1026C37.4771 98.5334 37.9229 97.308 40.1309 95.7054C42.3807 94.0726 45.9365 92.4705 50.8794 91.2868C55.252 90.2396 60.3837 89.5978 66.0566 89.4456C68.8681 94.1362 72.1014 98.7649 75.743 103.209C84.3724 113.739 94.582 121.116 104.711 125.688C98.0937 126.12 90.9096 125.834 83.5354 124.503ZM89.5098 91.3464C103.188 93.816 114.981 98.2325 123.376 103.266C124.144 103.73 124.882 104.2 125.591 104.674C129.84 107.518 132.646 110.269 134.215 112.591C134.424 112.9 134.604 113.191 134.76 113.465C134.031 113.629 133.204 113.764 132.273 113.855C128.757 114.197 124.314 113.836 119.338 112.473C109.404 109.751 98.0766 103.23 88.8387 91.957C88.6076 91.6749 88.3785 91.3921 88.1515 91.1087C88.603 91.1852 89.0558 91.2644 89.5098 91.3464ZM169.231 87.8475C171.489 84.8992 173.431 82.9642 174.932 81.8114C175.331 84.1269 175.477 87.5257 175.15 92.0208C174.405 102.26 171.363 116.191 166.02 131.22C160.678 146.249 154.263 158.924 148.406 167.258C146.195 170.404 144.224 172.699 142.597 174.241C142.287 171.476 142.272 167.676 142.688 162.929C143.647 151.984 146.737 137.725 151.656 123.405C151.913 122.844 152.143 122.254 152.333 121.635C152.764 120.694 153.064 119.749 153.277 118.869C158.382 105.113 164.096 94.5536 169.231 87.8475Z"/>
<path d="M219.505 161.713V41.1536H305.505V62.2685H242.325V91.7271H296.82V112.161H242.325V140.768H305.505V161.713H219.505Z"/>
<path d="M336.519 161.713L304.503 71.9745H329.026L351.676 143.152L373.985 71.9745H398.508L366.492 161.713H336.519Z"/>
<path d="M441.373 162.905C431.95 162.905 423.946 161.032 417.361 157.285C410.89 153.426 405.895 148.09 402.375 141.279C398.969 134.354 397.266 126.294 397.266 117.099C397.266 107.904 399.026 99.8439 402.546 92.9191C406.179 85.8808 411.287 80.375 417.872 76.4018C424.457 72.4286 432.291 70.442 441.373 70.442C448.185 70.442 454.146 71.6339 459.255 74.0179C464.477 76.4018 468.848 79.6939 472.368 83.8942C475.887 87.9809 478.498 92.6921 480.201 98.0275C481.904 103.363 482.699 109.096 482.585 115.226C482.585 116.702 482.529 118.121 482.415 119.483C482.302 120.845 482.075 122.264 481.734 123.74H419.575C419.916 127.486 420.881 130.892 422.47 133.957C424.173 137.022 426.558 139.463 429.623 141.279C432.688 142.982 436.548 143.833 441.203 143.833C444.041 143.833 446.709 143.493 449.207 142.812C451.705 142.13 453.862 141.109 455.678 139.746C457.495 138.271 458.744 136.511 459.425 134.468H481.564C480.088 141.052 477.363 146.444 473.389 150.644C469.416 154.845 464.591 157.967 458.914 160.01C453.351 161.94 447.504 162.905 441.373 162.905ZM419.916 107.734H461.128C461.014 104.328 460.163 101.206 458.573 98.3681C457.098 95.4166 454.884 93.0894 451.932 91.3866C448.98 89.6838 445.29 88.8323 440.863 88.8323C436.321 88.8323 432.518 89.7405 429.453 91.5568C426.501 93.3732 424.23 95.7571 422.641 98.7087C421.051 101.547 420.143 104.555 419.916 107.734Z"/>
<path d="M490.963 161.713V71.9745H511.91L513.102 82.8725C515.486 79.6939 518.268 77.2532 521.447 75.5504C524.739 73.7341 528.088 72.4286 531.494 71.6339C534.9 70.8393 538.079 70.442 541.031 70.442C549.546 70.442 556.244 72.3151 561.126 76.0613C566.008 79.8074 569.47 84.8591 571.514 91.2163C573.671 97.4599 574.75 104.441 574.75 112.161V161.713H552.441V115.396C552.441 112.331 552.214 109.38 551.76 106.542C551.305 103.59 550.454 100.922 549.205 98.5384C547.956 96.1544 546.196 94.2814 543.926 92.9191C541.655 91.4433 538.647 90.7054 534.9 90.7054C530.132 90.7054 526.101 91.9542 522.809 94.4516C519.63 96.8356 517.246 100.071 515.656 104.158C514.067 108.244 513.272 112.842 513.272 117.95V161.713H490.963Z"/>
<path d="M625.931 161.713C618.551 161.713 612.42 160.805 607.539 158.988C602.657 157.058 598.967 153.937 596.469 149.623C594.085 145.195 592.893 139.292 592.893 131.914V91.7271H579.269V71.9745H592.893V47.454H615.202V71.9745H635.467V91.7271H615.202V128.848C615.202 132.935 615.94 136.114 617.416 138.384C618.892 140.655 622.184 141.79 627.293 141.79H634.616V161.713H625.931Z"/>
</mask>
<path fill-rule="evenodd" clip-rule="evenodd" d="M54.1279 60.5591C54.9893 64.3514 56.182 68.2856 57.6973 72.2842C53.8272 72.6743 50.1581 73.2809 46.7464 74.0979C40.4636 75.6026 34.6345 77.9205 30.0054 81.2802C25.3346 84.6701 21.4074 89.5097 20.3038 95.9185C19.2001 102.327 21.2739 108.25 24.5307 113.072C27.7584 117.85 32.4618 122.069 37.8631 125.683C38.8721 126.359 39.918 127.021 40.9988 127.67C51.5487 134.052 65.4678 139.116 80.8066 141.886C98.1054 145.009 114.562 143.337 127.069 139.637C127.753 139.435 128.429 139.225 129.096 139.009C127.259 146.945 126.009 154.513 125.421 161.22C124.847 167.769 124.858 173.983 125.816 179.078C126.54 182.932 128.349 188.991 133.55 192.047C134.244 192.476 135 192.85 135.825 193.157C142.094 195.494 147.849 192.497 151.423 189.806C155.309 186.881 159.054 182.561 162.522 177.627C169.529 167.656 176.603 153.447 182.324 137.352C188.046 121.256 191.547 105.716 192.438 93.4657C192.879 87.4035 192.722 81.6299 191.582 76.8311C190.661 72.956 188.601 67.7943 183.869 65.0106C183.145 64.5636 182.356 64.173 181.497 63.8528C175.883 61.7606 170.514 63.6751 166.64 66.1204C162.685 68.6171 158.955 72.4399 155.538 76.9028C153.142 80.0324 150.749 83.6754 148.406 87.7745C144.575 77.7747 138.512 66.5193 129.556 55.5899C119.911 43.8208 109.123 34.2852 98.8041 28.0911C97.3192 27.193 95.8437 26.3639 94.3825 25.6069C88.6251 22.6243 82.7045 20.5635 77.0494 20.0904C71.3432 19.6131 65.4654 20.9414 60.5967 25.1245C55.7986 29.2872 53.5877 35.3002 52.8149 41.1536C52.0287 47.1077 52.5879 53.779 54.1279 60.5591ZM86.9047 41.3705C87.9596 41.917 89.0372 42.5196 90.1334 43.1769C98.3605 48.1576 107.617 56.1988 116.22 66.697C121.66 73.3351 125.817 80.0677 128.913 86.3768C118.808 80.8453 106.103 76.4667 92.2386 73.9635C86.7904 72.9798 81.4138 72.3311 76.2055 72.0065C73.677 66.627 71.8672 61.3854 70.7788 56.5937C69.5605 51.2302 69.3235 46.7745 69.756 43.4988C70.198 40.1512 71.2027 38.8621 71.6564 38.4723C72.0888 38.1008 73.1995 37.4554 75.8971 37.6811C78.6456 37.911 82.3751 39.024 86.9047 41.3705ZM83.5354 124.503C69.8574 122.033 58.0656 117.617 49.6703 112.584C48.9024 112.119 48.1634 111.649 47.4546 111.175C43.2051 108.331 40.399 105.581 38.8302 103.259C37.2906 100.979 37.2811 99.6717 37.3791 99.1026C37.4771 98.5334 37.9229 97.308 40.1309 95.7054C42.3807 94.0726 45.9365 92.4705 50.8794 91.2868C55.252 90.2396 60.3837 89.5978 66.0566 89.4456C68.8681 94.1362 72.1014 98.7649 75.743 103.209C84.3724 113.739 94.582 121.116 104.711 125.688C98.0937 126.12 90.9096 125.834 83.5354 124.503ZM89.5098 91.3464C103.188 93.816 114.981 98.2325 123.376 103.266C124.144 103.73 124.882 104.2 125.591 104.674C129.84 107.518 132.646 110.269 134.215 112.591C134.424 112.9 134.604 113.191 134.76 113.465C134.031 113.629 133.204 113.764 132.273 113.855C128.757 114.197 124.314 113.836 119.338 112.473C109.404 109.751 98.0766 103.23 88.8387 91.957C88.6076 91.6749 88.3785 91.3921 88.1515 91.1087C88.603 91.1852 89.0558 91.2644 89.5098 91.3464ZM169.231 87.8475C171.489 84.8992 173.431 82.9642 174.932 81.8114C175.331 84.1269 175.477 87.5257 175.15 92.0208C174.405 102.26 171.363 116.191 166.02 131.22C160.678 146.249 154.263 158.924 148.406 167.258C146.195 170.404 144.224 172.699 142.597 174.241C142.287 171.476 142.272 167.676 142.688 162.929C143.647 151.984 146.737 137.725 151.656 123.405C151.913 122.844 152.143 122.254 152.333 121.635C152.764 120.694 153.064 119.749 153.277 118.869C158.382 105.113 164.096 94.5536 169.231 87.8475Z" fill="#29947A"/>
<path d="M219.505 161.713V41.1536H305.505V62.2685H242.325V91.7271H296.82V112.161H242.325V140.768H305.505V161.713H219.505Z" fill="#29947A"/>
<path d="M336.519 161.713L304.503 71.9745H329.026L351.676 143.152L373.985 71.9745H398.508L366.492 161.713H336.519Z" fill="#29947A"/>
<path d="M441.373 162.905C431.95 162.905 423.946 161.032 417.361 157.285C410.89 153.426 405.895 148.09 402.375 141.279C398.969 134.354 397.266 126.294 397.266 117.099C397.266 107.904 399.026 99.8439 402.546 92.9191C406.179 85.8808 411.287 80.375 417.872 76.4018C424.457 72.4286 432.291 70.442 441.373 70.442C448.185 70.442 454.146 71.6339 459.255 74.0179C464.477 76.4018 468.848 79.6939 472.368 83.8942C475.887 87.9809 478.498 92.6921 480.201 98.0275C481.904 103.363 482.699 109.096 482.585 115.226C482.585 116.702 482.529 118.121 482.415 119.483C482.302 120.845 482.075 122.264 481.734 123.74H419.575C419.916 127.486 420.881 130.892 422.47 133.957C424.173 137.022 426.558 139.463 429.623 141.279C432.688 142.982 436.548 143.833 441.203 143.833C444.041 143.833 446.709 143.493 449.207 142.812C451.705 142.13 453.862 141.109 455.678 139.746C457.495 138.271 458.744 136.511 459.425 134.468H481.564C480.088 141.052 477.363 146.444 473.389 150.644C469.416 154.845 464.591 157.967 458.914 160.01C453.351 161.94 447.504 162.905 441.373 162.905ZM419.916 107.734H461.128C461.014 104.328 460.163 101.206 458.573 98.3681C457.098 95.4166 454.884 93.0894 451.932 91.3866C448.98 89.6838 445.29 88.8323 440.863 88.8323C436.321 88.8323 432.518 89.7405 429.453 91.5568C426.501 93.3732 424.23 95.7571 422.641 98.7087C421.051 101.547 420.143 104.555 419.916 107.734Z" fill="#29947A"/>
<path d="M490.963 161.713V71.9745H511.91L513.102 82.8725C515.486 79.6939 518.268 77.2532 521.447 75.5504C524.739 73.7341 528.088 72.4286 531.494 71.6339C534.9 70.8393 538.079 70.442 541.031 70.442C549.546 70.442 556.244 72.3151 561.126 76.0613C566.008 79.8074 569.47 84.8591 571.514 91.2163C573.671 97.4599 574.75 104.441 574.75 112.161V161.713H552.441V115.396C552.441 112.331 552.214 109.38 551.76 106.542C551.305 103.59 550.454 100.922 549.205 98.5384C547.956 96.1544 546.196 94.2814 543.926 92.9191C541.655 91.4433 538.647 90.7054 534.9 90.7054C530.132 90.7054 526.101 91.9542 522.809 94.4516C519.63 96.8356 517.246 100.071 515.656 104.158C514.067 108.244 513.272 112.842 513.272 117.95V161.713H490.963Z" fill="#29947A"/>
<path d="M625.931 161.713C618.551 161.713 612.42 160.805 607.539 158.988C602.657 157.058 598.967 153.937 596.469 149.623C594.085 145.195 592.893 139.292 592.893 131.914V91.7271H579.269V71.9745H592.893V47.454H615.202V71.9745H635.467V91.7271H615.202V128.848C615.202 132.935 615.94 136.114 617.416 138.384C618.892 140.655 622.184 141.79 627.293 141.79H634.616V161.713H625.931Z" fill="#29947A"/>
<path fill-rule="evenodd" clip-rule="evenodd" d="M54.1279 60.5591C54.9893 64.3514 56.182 68.2856 57.6973 72.2842C53.8272 72.6743 50.1581 73.2809 46.7464 74.0979C40.4636 75.6026 34.6345 77.9205 30.0054 81.2802C25.3346 84.6701 21.4074 89.5097 20.3038 95.9185C19.2001 102.327 21.2739 108.25 24.5307 113.072C27.7584 117.85 32.4618 122.069 37.8631 125.683C38.8721 126.359 39.918 127.021 40.9988 127.67C51.5487 134.052 65.4678 139.116 80.8066 141.886C98.1054 145.009 114.562 143.337 127.069 139.637C127.753 139.435 128.429 139.225 129.096 139.009C127.259 146.945 126.009 154.513 125.421 161.22C124.847 167.769 124.858 173.983 125.816 179.078C126.54 182.932 128.349 188.991 133.55 192.047C134.244 192.476 135 192.85 135.825 193.157C142.094 195.494 147.849 192.497 151.423 189.806C155.309 186.881 159.054 182.561 162.522 177.627C169.529 167.656 176.603 153.447 182.324 137.352C188.046 121.256 191.547 105.716 192.438 93.4657C192.879 87.4035 192.722 81.6299 191.582 76.8311C190.661 72.956 188.601 67.7943 183.869 65.0106C183.145 64.5636 182.356 64.173 181.497 63.8528C175.883 61.7606 170.514 63.6751 166.64 66.1204C162.685 68.6171 158.955 72.4399 155.538 76.9028C153.142 80.0324 150.749 83.6754 148.406 87.7745C144.575 77.7747 138.512 66.5193 129.556 55.5899C119.911 43.8208 109.123 34.2852 98.8041 28.0911C97.3192 27.193 95.8437 26.3639 94.3825 25.6069C88.6251 22.6243 82.7045 20.5635 77.0494 20.0904C71.3432 19.6131 65.4654 20.9414 60.5967 25.1245C55.7986 29.2872 53.5877 35.3002 52.8149 41.1536C52.0287 47.1077 52.5879 53.779 54.1279 60.5591ZM86.9047 41.3705C87.9596 41.917 89.0372 42.5196 90.1334 43.1769C98.3605 48.1576 107.617 56.1988 116.22 66.697C121.66 73.3351 125.817 80.0677 128.913 86.3768C118.808 80.8453 106.103 76.4667 92.2386 73.9635C86.7904 72.9798 81.4138 72.3311 76.2055 72.0065C73.677 66.627 71.8672 61.3854 70.7788 56.5937C69.5605 51.2302 69.3235 46.7745 69.756 43.4988C70.198 40.1512 71.2027 38.8621 71.6564 38.4723C72.0888 38.1008 73.1995 37.4554 75.8971 37.6811C78.6456 37.911 82.3751 39.024 86.9047 41.3705ZM83.5354 124.503C69.8574 122.033 58.0656 117.617 49.6703 112.584C48.9024 112.119 48.1634 111.649 47.4546 111.175C43.2051 108.331 40.399 105.581 38.8302 103.259C37.2906 100.979 37.2811 99.6717 37.3791 99.1026C37.4771 98.5334 37.9229 97.308 40.1309 95.7054C42.3807 94.0726 45.9365 92.4705 50.8794 91.2868C55.252 90.2396 60.3837 89.5978 66.0566 89.4456C68.8681 94.1362 72.1014 98.7649 75.743 103.209C84.3724 113.739 94.582 121.116 104.711 125.688C98.0937 126.12 90.9096 125.834 83.5354 124.503ZM89.5098 91.3464C103.188 93.816 114.981 98.2325 123.376 103.266C124.144 103.73 124.882 104.2 125.591 104.674C129.84 107.518 132.646 110.269 134.215 112.591C134.424 112.9 134.604 113.191 134.76 113.465C134.031 113.629 133.204 113.764 132.273 113.855C128.757 114.197 124.314 113.836 119.338 112.473C109.404 109.751 98.0766 103.23 88.8387 91.957C88.6076 91.6749 88.3785 91.3921 88.1515 91.1087C88.603 91.1852 89.0558 91.2644 89.5098 91.3464ZM169.231 87.8475C171.489 84.8992 173.431 82.9642 174.932 81.8114C175.331 84.1269 175.477 87.5257 175.15 92.0208C174.405 102.26 171.363 116.191 166.02 131.22C160.678 146.249 154.263 158.924 148.406 167.258C146.195 170.404 144.224 172.699 142.597 174.241C142.287 171.476 142.272 167.676 142.688 162.929C143.647 151.984 146.737 137.725 151.656 123.405C151.913 122.844 152.143 122.254 152.333 121.635C152.764 120.694 153.064 119.749 153.277 118.869C158.382 105.113 164.096 94.5536 169.231 87.8475Z" stroke="white" stroke-width="40" stroke-linejoin="round" mask="url(#path-1-outside-1_191_338)"/>
<path d="M219.505 161.713V41.1536H305.505V62.2685H242.325V91.7271H296.82V112.161H242.325V140.768H305.505V161.713H219.505Z" stroke="white" stroke-width="40" stroke-linejoin="round" mask="url(#path-1-outside-1_191_338)"/>
<path d="M336.519 161.713L304.503 71.9745H329.026L351.676 143.152L373.985 71.9745H398.508L366.492 161.713H336.519Z" stroke="white" stroke-width="40" stroke-linejoin="round" mask="url(#path-1-outside-1_191_338)"/>
<path d="M441.373 162.905C431.95 162.905 423.946 161.032 417.361 157.285C410.89 153.426 405.895 148.09 402.375 141.279C398.969 134.354 397.266 126.294 397.266 117.099C397.266 107.904 399.026 99.8439 402.546 92.9191C406.179 85.8808 411.287 80.375 417.872 76.4018C424.457 72.4286 432.291 70.442 441.373 70.442C448.185 70.442 454.146 71.6339 459.255 74.0179C464.477 76.4018 468.848 79.6939 472.368 83.8942C475.887 87.9809 478.498 92.6921 480.201 98.0275C481.904 103.363 482.699 109.096 482.585 115.226C482.585 116.702 482.529 118.121 482.415 119.483C482.302 120.845 482.075 122.264 481.734 123.74H419.575C419.916 127.486 420.881 130.892 422.47 133.957C424.173 137.022 426.558 139.463 429.623 141.279C432.688 142.982 436.548 143.833 441.203 143.833C444.041 143.833 446.709 143.493 449.207 142.812C451.705 142.13 453.862 141.109 455.678 139.746C457.495 138.271 458.744 136.511 459.425 134.468H481.564C480.088 141.052 477.363 146.444 473.389 150.644C469.416 154.845 464.591 157.967 458.914 160.01C453.351 161.94 447.504 162.905 441.373 162.905ZM419.916 107.734H461.128C461.014 104.328 460.163 101.206 458.573 98.3681C457.098 95.4166 454.884 93.0894 451.932 91.3866C448.98 89.6838 445.29 88.8323 440.863 88.8323C436.321 88.8323 432.518 89.7405 429.453 91.5568C426.501 93.3732 424.23 95.7571 422.641 98.7087C421.051 101.547 420.143 104.555 419.916 107.734Z" stroke="white" stroke-width="40" stroke-linejoin="round" mask="url(#path-1-outside-1_191_338)"/>
<path d="M490.963 161.713V71.9745H511.91L513.102 82.8725C515.486 79.6939 518.268 77.2532 521.447 75.5504C524.739 73.7341 528.088 72.4286 531.494 71.6339C534.9 70.8393 538.079 70.442 541.031 70.442C549.546 70.442 556.244 72.3151 561.126 76.0613C566.008 79.8074 569.47 84.8591 571.514 91.2163C573.671 97.4599 574.75 104.441 574.75 112.161V161.713H552.441V115.396C552.441 112.331 552.214 109.38 551.76 106.542C551.305 103.59 550.454 100.922 549.205 98.5384C547.956 96.1544 546.196 94.2814 543.926 92.9191C541.655 91.4433 538.647 90.7054 534.9 90.7054C530.132 90.7054 526.101 91.9542 522.809 94.4516C519.63 96.8356 517.246 100.071 515.656 104.158C514.067 108.244 513.272 112.842 513.272 117.95V161.713H490.963Z" stroke="white" stroke-width="40" stroke-linejoin="round" mask="url(#path-1-outside-1_191_338)"/>
<path d="M625.931 161.713C618.551 161.713 612.42 160.805 607.539 158.988C602.657 157.058 598.967 153.937 596.469 149.623C594.085 145.195 592.893 139.292 592.893 131.914V91.7271H579.269V71.9745H592.893V47.454H615.202V71.9745H635.467V91.7271H615.202V128.848C615.202 132.935 615.94 136.114 617.416 138.384C618.892 140.655 622.184 141.79 627.293 141.79H634.616V161.713H625.931Z" stroke="white" stroke-width="40" stroke-linejoin="round" mask="url(#path-1-outside-1_191_338)"/>
</svg>
