<svg width="1354" height="215" viewBox="0 0 1354 215" fill="none" xmlns="http://www.w3.org/2000/svg">
<rect x="320.005" y="62.998" width="495" height="101" fill="white"/>
<rect x="204.005" y="43.998" width="85" height="63" fill="white"/>
<rect x="946.005" y="55.998" width="87" height="101" fill="white"/>
<rect x="1236" y="55.998" width="87" height="101" fill="white"/>
<mask id="path-5-outside-1_252_450" maskUnits="userSpaceOnUse" x="-0.995117" y="-0.00195312" width="1355" height="215" fill="black">
<rect fill="white" x="-0.995117" y="-0.00195312" width="1355" height="215"/>
<path fill-rule="evenodd" clip-rule="evenodd" d="M54.1265 60.5591C54.9878 64.3514 56.1805 68.2856 57.6957 72.2842C53.8257 72.6743 50.1568 73.2809 46.7453 74.0979C40.4628 75.6026 34.6339 77.9206 30.005 81.2802C25.3344 84.6701 21.4074 89.5096 20.3038 95.9185C19.2002 102.327 21.2739 108.25 24.5305 113.072C27.7581 117.85 32.4612 122.069 37.8623 125.683C38.8713 126.359 39.9171 127.021 40.9979 127.67C51.5474 134.052 65.4658 139.116 80.804 141.886C98.102 145.009 114.558 143.337 127.065 139.637C127.749 139.435 128.425 139.225 129.091 139.009C127.254 146.945 126.005 154.513 125.417 161.22C124.843 167.769 124.854 173.983 125.811 179.078C126.536 182.932 128.344 188.991 133.545 192.047C134.239 192.476 134.995 192.85 135.82 193.157C142.089 195.494 147.843 192.497 151.418 189.806C155.304 186.881 159.048 182.561 162.516 177.627C169.523 167.656 176.596 153.447 182.317 137.352C188.038 121.256 191.539 105.716 192.431 93.4657C192.872 87.4035 192.715 81.6299 191.574 76.8311C190.654 72.956 188.594 67.7943 183.862 65.0106C183.138 64.5636 182.349 64.173 181.49 63.8528C175.876 61.7606 170.507 63.6751 166.634 66.1204C162.679 68.6171 158.95 72.4399 155.532 76.9028C153.136 80.0324 150.743 83.6754 148.4 87.7745C144.569 77.7747 138.507 66.5193 129.551 55.5899C119.907 43.8208 109.12 34.2852 98.8007 28.0911C97.3159 27.193 95.8405 26.3639 94.3793 25.6069C88.6221 22.6243 82.7018 20.5635 77.0469 20.0904C71.341 19.6131 65.4635 20.9414 60.595 25.1245C55.797 29.2872 53.5863 35.3002 52.8134 41.1536C52.0273 47.1077 52.5865 53.779 54.1265 60.5591ZM86.9019 41.3705C87.9567 41.917 89.0342 42.5196 90.1304 43.1769C98.3572 48.1576 107.613 56.1988 116.216 66.697C121.656 73.3351 125.813 80.0677 128.908 86.3768C118.803 80.8452 106.099 76.4667 92.2355 73.9635C86.7876 72.9798 81.4112 72.3311 76.2031 72.0065C73.6747 66.627 71.865 61.3854 70.7766 56.5937C69.5584 51.2302 69.3214 46.7745 69.7539 43.4988C70.1959 40.1512 71.2005 38.8621 71.6542 38.4723C72.0866 38.1008 73.1973 37.4554 75.8947 37.6811C78.643 37.911 82.3725 39.024 86.9019 41.3705ZM83.5327 124.503C69.8553 122.033 58.064 117.617 49.6691 112.584C48.9011 112.119 48.1622 111.649 47.4534 111.175C43.2041 108.331 40.3981 105.581 38.8294 103.259C37.2899 100.979 37.2804 99.6717 37.3784 99.1026C37.4764 98.5334 37.9221 97.308 40.1301 95.7054C42.3798 94.0726 45.9354 92.4705 50.8781 91.2868C55.2505 90.2397 60.382 89.5978 66.0546 89.4456C68.866 94.1362 72.0992 98.7649 75.7406 103.209C84.3697 113.739 94.5788 121.116 104.707 125.688C98.0904 126.121 90.9066 125.834 83.5327 124.503ZM89.5068 91.3464C103.185 93.816 114.976 98.2325 123.371 103.266C124.139 103.73 124.878 104.2 125.586 104.674C129.835 107.518 132.641 110.269 134.21 112.591C134.419 112.9 134.599 113.191 134.755 113.465C134.026 113.629 133.199 113.764 132.268 113.855C128.752 114.197 124.309 113.836 119.334 112.473C109.4 109.751 98.0733 103.23 88.8358 91.957C88.6047 91.6749 88.3756 91.3921 88.1486 91.1087C88.6001 91.1852 89.0528 91.2644 89.5068 91.3464ZM169.225 87.8475C171.482 84.8992 173.424 82.9642 174.925 81.8114C175.324 84.1269 175.471 87.5257 175.144 92.0208C174.399 102.26 171.356 116.191 166.014 131.22C160.672 146.249 154.257 158.924 148.401 167.258C146.189 170.404 144.219 172.699 142.592 174.241C142.281 171.476 142.266 167.676 142.683 162.929C143.642 151.984 146.731 137.725 151.651 123.405C151.908 122.844 152.137 122.254 152.328 121.635C152.759 120.694 153.058 119.749 153.271 118.869C158.376 105.113 164.09 94.5536 169.225 87.8475Z"/>
<path d="M211.818 160.4V39.8406H257.966C267.162 39.8406 275.109 41.2596 281.807 44.0976C288.619 46.8221 293.841 51.2494 297.474 57.3795C301.22 63.3961 303.093 71.3426 303.093 81.2189C303.093 90.6412 301.05 98.5309 296.963 104.888C292.876 111.132 287.256 115.843 280.104 119.021C273.065 122.086 265.005 123.619 255.923 123.619H234.637V160.4H211.818ZM234.637 103.185H255.582C263.075 103.185 269.092 101.369 273.633 97.7362C278.174 94.1035 280.445 88.541 280.445 81.0486C280.445 74.3509 278.515 69.356 274.655 66.0639C270.908 62.6583 265.005 60.9554 256.945 60.9554H234.637V103.185Z"/>
<path d="M339.261 161.421C333.812 161.421 328.703 160.513 323.935 158.697C319.281 156.767 315.534 153.872 312.696 150.013C309.858 146.039 308.439 141.044 308.439 135.028C308.439 130.601 309.233 126.854 310.823 123.789C312.526 120.611 314.739 118 317.464 115.956C320.302 113.799 323.538 112.097 327.171 110.848C330.804 109.599 334.55 108.634 338.41 107.953C342.383 107.158 346.811 106.534 351.693 106.08C356.574 105.626 361.796 105.115 367.359 104.547C367.359 101.142 366.678 98.2471 365.316 95.8631C363.953 93.3657 362.023 91.4926 359.526 90.2438C357.028 88.8816 353.963 88.2005 350.33 88.2005C346.47 88.2005 343.121 88.8816 340.283 90.2438C337.445 91.4926 335.288 93.6495 333.812 96.7145H311.163C312.299 89.9033 314.796 84.511 318.656 80.5378C322.63 76.5646 327.455 73.7265 333.131 72.0237C338.807 70.2074 344.654 69.2992 350.671 69.2992C359.866 69.2992 367.246 70.9453 372.808 74.2374C378.371 77.5295 382.402 82.3541 384.899 88.7113C387.397 94.9549 388.646 102.618 388.646 111.699V160.4H368.381L367.7 149.502C365.089 152.68 362.08 155.178 358.674 156.994C355.382 158.697 352.033 159.832 348.627 160.4C345.335 161.081 342.213 161.421 339.261 161.421ZM343.859 143.372C348.173 143.372 352.033 142.577 355.439 140.988C358.958 139.398 361.74 137.128 363.783 134.176C365.94 131.111 367.132 127.479 367.359 123.278V119.873C364.862 120.1 362.364 120.384 359.866 120.724C357.369 120.951 354.814 121.235 352.203 121.576C349.706 121.803 347.208 122.143 344.711 122.597C340.51 123.165 337.104 124.357 334.493 126.173C331.882 127.99 330.577 130.487 330.577 133.666C330.577 136.163 331.258 138.15 332.62 139.625C334.096 140.988 335.856 141.953 337.899 142.52C339.942 143.088 341.929 143.372 343.859 143.372Z"/>
<path d="M400.294 193.605V70.6615H421.24L422.262 82.2406C425.895 77.6998 430.095 74.4077 434.863 72.3643C439.631 70.2074 444.91 69.129 450.7 69.129C459.555 69.129 466.878 71.1723 472.668 75.2591C478.458 79.3458 482.772 84.9084 485.61 91.9466C488.562 98.8714 490.037 106.648 490.037 115.275C490.037 124.13 488.505 132.076 485.44 139.115C482.488 146.039 478.004 151.545 471.987 155.632C466.083 159.605 458.647 161.592 449.679 161.592C445.592 161.592 441.845 161.138 438.439 160.229C435.034 159.321 431.968 158.073 429.244 156.483C426.633 154.78 424.419 152.907 422.602 150.864V193.605H400.294ZM445.932 141.499C451.495 141.499 455.866 140.25 459.045 137.752C462.223 135.255 464.494 132.076 465.856 128.217C467.218 124.243 467.9 120.1 467.9 115.786C467.9 111.245 467.162 106.988 465.686 103.015C464.324 98.9282 461.996 95.6361 458.704 93.1386C455.412 90.6412 451.041 89.3924 445.592 89.3924C440.596 89.3924 436.339 90.6412 432.82 93.1386C429.414 95.5225 426.803 98.7011 424.986 102.674C423.284 106.648 422.432 110.961 422.432 115.616C422.432 120.27 423.284 124.584 424.986 128.557C426.689 132.417 429.244 135.539 432.65 137.923C436.169 140.307 440.596 141.499 445.932 141.499Z"/>
<path d="M498.398 160.4V70.6615H520.706V160.4H498.398ZM509.637 60.9554C505.436 60.9554 502.03 59.7067 499.419 57.2093C496.922 54.5983 495.673 51.3062 495.673 47.3329C495.673 43.2462 496.978 39.8973 499.59 37.2863C502.314 34.6754 505.72 33.3699 509.807 33.3699C513.553 33.3699 516.789 34.6754 519.514 37.2863C522.352 39.7838 523.771 43.0759 523.771 47.1627C523.771 51.2494 522.409 54.5983 519.684 57.2093C517.073 59.7067 513.724 60.9554 509.637 60.9554Z"/>
<path d="M562.272 161.421C555.688 161.421 550.182 160.286 545.754 158.016C541.44 155.632 538.205 152.113 536.048 147.458C534.004 142.804 532.982 137.014 532.982 130.09V39.8406H555.291V125.662C555.291 128.727 555.574 131.395 556.142 133.666C556.823 135.936 557.958 137.696 559.548 138.944C561.251 140.193 563.635 140.817 566.7 140.817C568.97 140.817 571.127 140.477 573.171 139.796C575.214 139.001 577.088 137.923 578.791 136.56L586.113 153.759C582.48 156.71 578.677 158.754 574.704 159.889C570.844 160.911 566.7 161.421 562.272 161.421Z"/>
<path d="M616.473 161.421C609.888 161.421 604.382 160.286 599.954 158.016C595.64 155.632 592.405 152.113 590.248 147.458C588.204 142.804 587.183 137.014 587.183 130.09V39.8406H609.491V125.662C609.491 128.727 609.775 131.395 610.342 133.666C611.023 135.936 612.159 137.696 613.748 138.944C615.451 140.193 617.835 140.817 620.9 140.817C623.171 140.817 625.328 140.477 627.371 139.796C629.415 139.001 631.288 137.923 632.991 136.56L640.313 153.759C636.68 156.71 632.877 158.754 628.904 159.889C625.044 160.911 620.9 161.421 616.473 161.421Z"/>
<path d="M682.593 161.592C673.397 161.592 665.451 159.719 658.753 155.972C652.054 152.226 646.832 146.947 643.086 140.136C639.453 133.211 637.636 125.038 637.636 115.616C637.636 106.08 639.51 97.8497 643.256 90.925C647.002 84.0002 652.225 78.6647 658.923 74.9185C665.621 71.0588 673.454 69.129 682.423 69.129C691.505 69.129 699.338 71.0588 705.923 74.9185C712.621 78.7782 717.786 84.2272 721.419 91.2655C725.052 98.1903 726.869 106.421 726.869 115.956C726.869 125.265 725.052 133.382 721.419 140.307C717.9 147.118 712.848 152.397 706.263 156.143C699.679 159.775 691.789 161.592 682.593 161.592ZM682.253 141.158C687.702 141.158 692.073 139.966 695.365 137.582C698.771 135.198 701.212 132.076 702.687 128.217C704.163 124.357 704.901 120.213 704.901 115.786C704.901 111.359 704.163 107.158 702.687 103.185C701.212 99.212 698.827 95.9766 695.535 93.4792C692.243 90.9817 687.815 89.733 682.253 89.733C676.917 89.733 672.546 90.9817 669.14 93.4792C665.848 95.9766 663.407 99.212 661.818 103.185C660.342 107.045 659.604 111.245 659.604 115.786C659.604 120.213 660.342 124.414 661.818 128.387C663.407 132.247 665.848 135.368 669.14 137.752C672.546 140.023 676.917 141.158 682.253 141.158Z"/>
<path d="M735.154 160.4V70.6615H756.1L757.292 81.5595C759.676 78.3809 762.457 75.9402 765.636 74.2374C768.929 72.4211 772.278 71.1156 775.683 70.3209C779.089 69.5263 782.268 69.129 785.22 69.129C793.734 69.129 800.432 71.0021 805.314 74.7482C810.195 78.4944 813.658 83.5461 815.702 89.9033C817.859 96.1469 818.937 103.128 818.937 110.848V160.4H796.629V114.083C796.629 111.018 796.402 108.067 795.948 105.229C795.494 102.277 794.642 99.6093 793.394 97.2254C792.145 94.8414 790.385 92.9683 788.115 91.6061C785.844 90.1303 782.836 89.3924 779.089 89.3924C774.321 89.3924 770.291 90.6412 766.999 93.1386C763.82 95.5225 761.436 98.7579 759.846 102.845C758.257 106.931 757.462 111.529 757.462 116.637V160.4H735.154Z"/>
<path d="M892.078 160.4L860.063 70.6615H884.585L907.233 141.839L929.542 70.6615H954.063L922.049 160.4H892.078Z"/>
<path d="M1000.33 161.762C994.77 161.762 989.321 161.138 983.985 159.889C978.649 158.527 973.825 156.426 969.51 153.588C965.196 150.637 961.734 146.834 959.123 142.18C956.625 137.525 955.376 131.849 955.376 125.151C955.376 120.724 956.058 116.694 957.42 113.062C958.782 109.429 960.769 106.25 963.38 103.526C966.105 100.688 969.283 98.4173 972.916 96.7145C969.624 94.7847 966.956 92.4575 964.913 89.733C962.869 86.895 961.393 83.8867 960.485 80.7081C959.69 77.416 959.293 74.1806 959.293 71.002C959.293 65.099 960.428 60.104 962.699 56.0173C965.083 51.817 968.262 48.4682 972.235 45.9707C976.209 43.3597 980.636 41.4866 985.518 40.3514C990.513 39.1027 995.565 38.4783 1000.67 38.4783C1005.78 38.4783 1010.78 39.1027 1015.66 40.3514C1020.54 41.4866 1024.97 43.4165 1028.94 46.141C1032.92 48.752 1036.04 52.1576 1038.31 56.3579C1040.69 60.5581 1041.88 65.6666 1041.88 71.6832C1041.88 74.6347 1041.37 77.6998 1040.35 80.8784C1039.44 84.0569 1037.97 87.0085 1035.92 89.733C1033.88 92.344 1031.21 94.6144 1027.92 96.5442C1031.67 98.1335 1034.85 100.347 1037.46 103.185C1040.18 105.91 1042.22 109.145 1043.59 112.891C1045.06 116.524 1045.8 120.667 1045.8 125.322C1045.8 132.02 1044.5 137.696 1041.88 142.35C1039.27 147.004 1035.75 150.75 1031.33 153.588C1027.01 156.426 1022.19 158.527 1016.85 159.889C1011.52 161.138 1006.01 161.762 1000.33 161.762ZM1000.5 141.158C1003.11 141.158 1005.67 140.874 1008.17 140.307C1010.78 139.739 1013.16 138.831 1015.32 137.582C1017.59 136.22 1019.35 134.46 1020.6 132.303C1021.96 130.146 1022.64 127.479 1022.64 124.3C1022.64 120.44 1021.62 117.262 1019.58 114.764C1017.65 112.267 1015.03 110.451 1011.74 109.315C1008.45 108.067 1004.7 107.442 1000.5 107.442C996.416 107.442 992.67 108.067 989.264 109.315C985.858 110.451 983.134 112.267 981.09 114.764C979.16 117.262 978.195 120.44 978.195 124.3C978.195 127.479 978.877 130.146 980.239 132.303C981.601 134.46 983.361 136.22 985.518 137.582C987.675 138.831 990.059 139.739 992.67 140.307C995.281 140.874 997.892 141.158 1000.5 141.158ZM1000.67 89.733C1004.42 89.733 1007.66 89.1086 1010.38 87.8599C1013.1 86.6112 1015.26 84.8516 1016.85 82.5812C1018.44 80.3108 1019.24 77.643 1019.24 74.578C1019.24 70.9453 1018.38 67.937 1016.68 65.553C1015.09 63.1691 1012.88 61.4095 1010.04 60.2743C1007.2 59.0256 1003.97 58.4012 1000.33 58.4012C996.587 58.4012 993.294 59.0256 990.456 60.2743C987.732 61.4095 985.631 63.1123 984.155 65.3828C982.68 67.6532 981.942 70.4912 981.942 73.8968C981.942 77.1889 982.736 80.0837 984.326 82.5812C985.915 84.9651 988.129 86.7814 990.967 88.0302C993.805 89.1654 997.041 89.733 1000.67 89.733Z"/>
<path d="M1070.66 162.443C1066.8 162.443 1063.51 161.251 1060.79 158.867C1058.06 156.37 1056.7 152.964 1056.7 148.65C1056.7 144.223 1058.06 140.704 1060.79 138.093C1063.62 135.482 1066.92 134.176 1070.66 134.176C1074.52 134.176 1077.76 135.482 1080.37 138.093C1083.09 140.59 1084.46 144.053 1084.46 148.48C1084.46 152.907 1083.09 156.37 1080.37 158.867C1077.76 161.251 1074.52 162.443 1070.66 162.443Z"/>
<path d="M1154.84 160.4V137.923H1092.86V120.554L1149.4 39.8406H1177.49V117.148H1191.12V137.923H1177.49V160.4H1154.84ZM1119.08 117.148H1154.84V64.5314L1119.08 117.148Z"/>
<path d="M1214.19 162.443C1210.33 162.443 1207.04 161.251 1204.32 158.867C1201.59 156.37 1200.23 152.964 1200.23 148.65C1200.23 144.223 1201.59 140.704 1204.32 138.093C1207.15 135.482 1210.45 134.176 1214.19 134.176C1218.05 134.176 1221.29 135.482 1223.9 138.093C1226.62 140.59 1227.99 144.053 1227.99 148.48C1227.99 152.907 1226.62 156.37 1223.9 158.867C1221.29 161.251 1218.05 162.443 1214.19 162.443Z"/>
<path d="M1285.47 161.762C1276.73 161.762 1269.29 160.173 1263.16 156.994C1257.03 153.816 1252.04 149.445 1248.18 143.882C1244.43 138.206 1241.65 131.679 1239.83 124.3C1238.13 116.808 1237.28 108.861 1237.28 100.461C1237.28 91.8331 1238.13 83.7731 1239.83 76.2808C1241.65 68.7884 1244.49 62.2042 1248.35 56.5281C1252.21 50.8521 1257.2 46.4248 1263.33 43.2462C1269.58 40.0676 1277.07 38.4783 1285.81 38.4783C1294.78 38.4783 1302.33 40.1811 1308.46 43.5868C1314.71 46.8789 1319.7 51.4197 1323.45 57.2093C1327.19 62.9988 1329.86 69.583 1331.45 76.9619C1333.15 84.3407 1334 92.0602 1334 100.12C1334 108.294 1333.15 116.07 1331.45 123.449C1329.86 130.828 1327.19 137.412 1323.45 143.201C1319.7 148.877 1314.71 153.418 1308.46 156.824C1302.22 160.116 1294.55 161.762 1285.47 161.762ZM1285.47 140.817C1291.15 140.817 1295.69 139.512 1299.1 136.901C1302.5 134.176 1305.06 130.771 1306.76 126.684C1308.57 122.484 1309.77 118.056 1310.33 113.402C1310.9 108.634 1311.19 104.207 1311.19 100.12C1311.19 96.1469 1310.9 91.8331 1310.33 87.1788C1309.77 82.5244 1308.63 78.1539 1306.93 74.0671C1305.23 69.8668 1302.67 66.4612 1299.27 63.8502C1295.97 61.1257 1291.49 59.7635 1285.81 59.7635C1280.14 59.7635 1275.6 61.069 1272.19 63.68C1268.78 66.2909 1266.17 69.6966 1264.36 73.8968C1262.65 78.0971 1261.52 82.5244 1260.95 87.1788C1260.38 91.8331 1260.1 96.1469 1260.1 100.12C1260.1 104.207 1260.33 108.577 1260.78 113.232C1261.35 117.886 1262.48 122.313 1264.19 126.514C1265.89 130.714 1268.44 134.176 1271.85 136.901C1275.25 139.512 1279.8 140.817 1285.47 140.817Z"/>
</mask>
<path fill-rule="evenodd" clip-rule="evenodd" d="M54.1265 60.5591C54.9878 64.3514 56.1805 68.2856 57.6957 72.2842C53.8257 72.6743 50.1568 73.2809 46.7453 74.0979C40.4628 75.6026 34.6339 77.9206 30.005 81.2802C25.3344 84.6701 21.4074 89.5096 20.3038 95.9185C19.2002 102.327 21.2739 108.25 24.5305 113.072C27.7581 117.85 32.4612 122.069 37.8623 125.683C38.8713 126.359 39.9171 127.021 40.9979 127.67C51.5474 134.052 65.4658 139.116 80.804 141.886C98.102 145.009 114.558 143.337 127.065 139.637C127.749 139.435 128.425 139.225 129.091 139.009C127.254 146.945 126.005 154.513 125.417 161.22C124.843 167.769 124.854 173.983 125.811 179.078C126.536 182.932 128.344 188.991 133.545 192.047C134.239 192.476 134.995 192.85 135.82 193.157C142.089 195.494 147.843 192.497 151.418 189.806C155.304 186.881 159.048 182.561 162.516 177.627C169.523 167.656 176.596 153.447 182.317 137.352C188.038 121.256 191.539 105.716 192.431 93.4657C192.872 87.4035 192.715 81.6299 191.574 76.8311C190.654 72.956 188.594 67.7943 183.862 65.0106C183.138 64.5636 182.349 64.173 181.49 63.8528C175.876 61.7606 170.507 63.6751 166.634 66.1204C162.679 68.6171 158.95 72.4399 155.532 76.9028C153.136 80.0324 150.743 83.6754 148.4 87.7745C144.569 77.7747 138.507 66.5193 129.551 55.5899C119.907 43.8208 109.12 34.2852 98.8007 28.0911C97.3159 27.193 95.8405 26.3639 94.3793 25.6069C88.6221 22.6243 82.7018 20.5635 77.0469 20.0904C71.341 19.6131 65.4635 20.9414 60.595 25.1245C55.797 29.2872 53.5863 35.3002 52.8134 41.1536C52.0273 47.1077 52.5865 53.779 54.1265 60.5591ZM86.9019 41.3705C87.9567 41.917 89.0342 42.5196 90.1304 43.1769C98.3572 48.1576 107.613 56.1988 116.216 66.697C121.656 73.3351 125.813 80.0677 128.908 86.3768C118.803 80.8452 106.099 76.4667 92.2355 73.9635C86.7876 72.9798 81.4112 72.3311 76.2031 72.0065C73.6747 66.627 71.865 61.3854 70.7766 56.5937C69.5584 51.2302 69.3214 46.7745 69.7539 43.4988C70.1959 40.1512 71.2005 38.8621 71.6542 38.4723C72.0866 38.1008 73.1973 37.4554 75.8947 37.6811C78.643 37.911 82.3725 39.024 86.9019 41.3705ZM83.5327 124.503C69.8553 122.033 58.064 117.617 49.6691 112.584C48.9011 112.119 48.1622 111.649 47.4534 111.175C43.2041 108.331 40.3981 105.581 38.8294 103.259C37.2899 100.979 37.2804 99.6717 37.3784 99.1026C37.4764 98.5334 37.9221 97.308 40.1301 95.7054C42.3798 94.0726 45.9354 92.4705 50.8781 91.2868C55.2505 90.2397 60.382 89.5978 66.0546 89.4456C68.866 94.1362 72.0992 98.7649 75.7406 103.209C84.3697 113.739 94.5788 121.116 104.707 125.688C98.0904 126.121 90.9066 125.834 83.5327 124.503ZM89.5068 91.3464C103.185 93.816 114.976 98.2325 123.371 103.266C124.139 103.73 124.878 104.2 125.586 104.674C129.835 107.518 132.641 110.269 134.21 112.591C134.419 112.9 134.599 113.191 134.755 113.465C134.026 113.629 133.199 113.764 132.268 113.855C128.752 114.197 124.309 113.836 119.334 112.473C109.4 109.751 98.0733 103.23 88.8358 91.957C88.6047 91.6749 88.3756 91.3921 88.1486 91.1087C88.6001 91.1852 89.0528 91.2644 89.5068 91.3464ZM169.225 87.8475C171.482 84.8992 173.424 82.9642 174.925 81.8114C175.324 84.1269 175.471 87.5257 175.144 92.0208C174.399 102.26 171.356 116.191 166.014 131.22C160.672 146.249 154.257 158.924 148.401 167.258C146.189 170.404 144.219 172.699 142.592 174.241C142.281 171.476 142.266 167.676 142.683 162.929C143.642 151.984 146.731 137.725 151.651 123.405C151.908 122.844 152.137 122.254 152.328 121.635C152.759 120.694 153.058 119.749 153.271 118.869C158.376 105.113 164.09 94.5536 169.225 87.8475Z" fill="#29947A"/>
<path d="M211.818 160.4V39.8406H257.966C267.162 39.8406 275.109 41.2596 281.807 44.0976C288.619 46.8221 293.841 51.2494 297.474 57.3795C301.22 63.3961 303.093 71.3426 303.093 81.2189C303.093 90.6412 301.05 98.5309 296.963 104.888C292.876 111.132 287.256 115.843 280.104 119.021C273.065 122.086 265.005 123.619 255.923 123.619H234.637V160.4H211.818ZM234.637 103.185H255.582C263.075 103.185 269.092 101.369 273.633 97.7362C278.174 94.1035 280.445 88.541 280.445 81.0486C280.445 74.3509 278.515 69.356 274.655 66.0639C270.908 62.6583 265.005 60.9554 256.945 60.9554H234.637V103.185Z" fill="#29947A"/>
<path d="M339.261 161.421C333.812 161.421 328.703 160.513 323.935 158.697C319.281 156.767 315.534 153.872 312.696 150.013C309.858 146.039 308.439 141.044 308.439 135.028C308.439 130.601 309.233 126.854 310.823 123.789C312.526 120.611 314.739 118 317.464 115.956C320.302 113.799 323.538 112.097 327.171 110.848C330.804 109.599 334.55 108.634 338.41 107.953C342.383 107.158 346.811 106.534 351.693 106.08C356.574 105.626 361.796 105.115 367.359 104.547C367.359 101.142 366.678 98.2471 365.316 95.8631C363.953 93.3657 362.023 91.4926 359.526 90.2438C357.028 88.8816 353.963 88.2005 350.33 88.2005C346.47 88.2005 343.121 88.8816 340.283 90.2438C337.445 91.4926 335.288 93.6495 333.812 96.7145H311.163C312.299 89.9033 314.796 84.511 318.656 80.5378C322.63 76.5646 327.455 73.7265 333.131 72.0237C338.807 70.2074 344.654 69.2992 350.671 69.2992C359.866 69.2992 367.246 70.9453 372.808 74.2374C378.371 77.5295 382.402 82.3541 384.899 88.7113C387.397 94.9549 388.646 102.618 388.646 111.699V160.4H368.381L367.7 149.502C365.089 152.68 362.08 155.178 358.674 156.994C355.382 158.697 352.033 159.832 348.627 160.4C345.335 161.081 342.213 161.421 339.261 161.421ZM343.859 143.372C348.173 143.372 352.033 142.577 355.439 140.988C358.958 139.398 361.74 137.128 363.783 134.176C365.94 131.111 367.132 127.479 367.359 123.278V119.873C364.862 120.1 362.364 120.384 359.866 120.724C357.369 120.951 354.814 121.235 352.203 121.576C349.706 121.803 347.208 122.143 344.711 122.597C340.51 123.165 337.104 124.357 334.493 126.173C331.882 127.99 330.577 130.487 330.577 133.666C330.577 136.163 331.258 138.15 332.62 139.625C334.096 140.988 335.856 141.953 337.899 142.52C339.942 143.088 341.929 143.372 343.859 143.372Z" fill="#29947A"/>
<path d="M400.294 193.605V70.6615H421.24L422.262 82.2406C425.895 77.6998 430.095 74.4077 434.863 72.3643C439.631 70.2074 444.91 69.129 450.7 69.129C459.555 69.129 466.878 71.1723 472.668 75.2591C478.458 79.3458 482.772 84.9084 485.61 91.9466C488.562 98.8714 490.037 106.648 490.037 115.275C490.037 124.13 488.505 132.076 485.44 139.115C482.488 146.039 478.004 151.545 471.987 155.632C466.083 159.605 458.647 161.592 449.679 161.592C445.592 161.592 441.845 161.138 438.439 160.229C435.034 159.321 431.968 158.073 429.244 156.483C426.633 154.78 424.419 152.907 422.602 150.864V193.605H400.294ZM445.932 141.499C451.495 141.499 455.866 140.25 459.045 137.752C462.223 135.255 464.494 132.076 465.856 128.217C467.218 124.243 467.9 120.1 467.9 115.786C467.9 111.245 467.162 106.988 465.686 103.015C464.324 98.9282 461.996 95.6361 458.704 93.1386C455.412 90.6412 451.041 89.3924 445.592 89.3924C440.596 89.3924 436.339 90.6412 432.82 93.1386C429.414 95.5225 426.803 98.7011 424.986 102.674C423.284 106.648 422.432 110.961 422.432 115.616C422.432 120.27 423.284 124.584 424.986 128.557C426.689 132.417 429.244 135.539 432.65 137.923C436.169 140.307 440.596 141.499 445.932 141.499Z" fill="#29947A"/>
<path d="M498.398 160.4V70.6615H520.706V160.4H498.398ZM509.637 60.9554C505.436 60.9554 502.03 59.7067 499.419 57.2093C496.922 54.5983 495.673 51.3062 495.673 47.3329C495.673 43.2462 496.978 39.8973 499.59 37.2863C502.314 34.6754 505.72 33.3699 509.807 33.3699C513.553 33.3699 516.789 34.6754 519.514 37.2863C522.352 39.7838 523.771 43.0759 523.771 47.1627C523.771 51.2494 522.409 54.5983 519.684 57.2093C517.073 59.7067 513.724 60.9554 509.637 60.9554Z" fill="#29947A"/>
<path d="M562.272 161.421C555.688 161.421 550.182 160.286 545.754 158.016C541.44 155.632 538.205 152.113 536.048 147.458C534.004 142.804 532.982 137.014 532.982 130.09V39.8406H555.291V125.662C555.291 128.727 555.574 131.395 556.142 133.666C556.823 135.936 557.958 137.696 559.548 138.944C561.251 140.193 563.635 140.817 566.7 140.817C568.97 140.817 571.127 140.477 573.171 139.796C575.214 139.001 577.088 137.923 578.791 136.56L586.113 153.759C582.48 156.71 578.677 158.754 574.704 159.889C570.844 160.911 566.7 161.421 562.272 161.421Z" fill="#29947A"/>
<path d="M616.473 161.421C609.888 161.421 604.382 160.286 599.954 158.016C595.64 155.632 592.405 152.113 590.248 147.458C588.204 142.804 587.183 137.014 587.183 130.09V39.8406H609.491V125.662C609.491 128.727 609.775 131.395 610.342 133.666C611.023 135.936 612.159 137.696 613.748 138.944C615.451 140.193 617.835 140.817 620.9 140.817C623.171 140.817 625.328 140.477 627.371 139.796C629.415 139.001 631.288 137.923 632.991 136.56L640.313 153.759C636.68 156.71 632.877 158.754 628.904 159.889C625.044 160.911 620.9 161.421 616.473 161.421Z" fill="#29947A"/>
<path d="M682.593 161.592C673.397 161.592 665.451 159.719 658.753 155.972C652.054 152.226 646.832 146.947 643.086 140.136C639.453 133.211 637.636 125.038 637.636 115.616C637.636 106.08 639.51 97.8497 643.256 90.925C647.002 84.0002 652.225 78.6647 658.923 74.9185C665.621 71.0588 673.454 69.129 682.423 69.129C691.505 69.129 699.338 71.0588 705.923 74.9185C712.621 78.7782 717.786 84.2272 721.419 91.2655C725.052 98.1903 726.869 106.421 726.869 115.956C726.869 125.265 725.052 133.382 721.419 140.307C717.9 147.118 712.848 152.397 706.263 156.143C699.679 159.775 691.789 161.592 682.593 161.592ZM682.253 141.158C687.702 141.158 692.073 139.966 695.365 137.582C698.771 135.198 701.212 132.076 702.687 128.217C704.163 124.357 704.901 120.213 704.901 115.786C704.901 111.359 704.163 107.158 702.687 103.185C701.212 99.212 698.827 95.9766 695.535 93.4792C692.243 90.9817 687.815 89.733 682.253 89.733C676.917 89.733 672.546 90.9817 669.14 93.4792C665.848 95.9766 663.407 99.212 661.818 103.185C660.342 107.045 659.604 111.245 659.604 115.786C659.604 120.213 660.342 124.414 661.818 128.387C663.407 132.247 665.848 135.368 669.14 137.752C672.546 140.023 676.917 141.158 682.253 141.158Z" fill="#29947A"/>
<path d="M735.154 160.4V70.6615H756.1L757.292 81.5595C759.676 78.3809 762.457 75.9402 765.636 74.2374C768.929 72.4211 772.278 71.1156 775.683 70.3209C779.089 69.5263 782.268 69.129 785.22 69.129C793.734 69.129 800.432 71.0021 805.314 74.7482C810.195 78.4944 813.658 83.5461 815.702 89.9033C817.859 96.1469 818.937 103.128 818.937 110.848V160.4H796.629V114.083C796.629 111.018 796.402 108.067 795.948 105.229C795.494 102.277 794.642 99.6093 793.394 97.2254C792.145 94.8414 790.385 92.9683 788.115 91.6061C785.844 90.1303 782.836 89.3924 779.089 89.3924C774.321 89.3924 770.291 90.6412 766.999 93.1386C763.82 95.5225 761.436 98.7579 759.846 102.845C758.257 106.931 757.462 111.529 757.462 116.637V160.4H735.154Z" fill="#29947A"/>
<path d="M892.078 160.4L860.063 70.6615H884.585L907.233 141.839L929.542 70.6615H954.063L922.049 160.4H892.078Z" fill="#29947A"/>
<path d="M1000.33 161.762C994.77 161.762 989.321 161.138 983.985 159.889C978.649 158.527 973.825 156.426 969.51 153.588C965.196 150.637 961.734 146.834 959.123 142.18C956.625 137.525 955.376 131.849 955.376 125.151C955.376 120.724 956.058 116.694 957.42 113.062C958.782 109.429 960.769 106.25 963.38 103.526C966.105 100.688 969.283 98.4173 972.916 96.7145C969.624 94.7847 966.956 92.4575 964.913 89.733C962.869 86.895 961.393 83.8867 960.485 80.7081C959.69 77.416 959.293 74.1806 959.293 71.002C959.293 65.099 960.428 60.104 962.699 56.0173C965.083 51.817 968.262 48.4682 972.235 45.9707C976.209 43.3597 980.636 41.4866 985.518 40.3514C990.513 39.1027 995.565 38.4783 1000.67 38.4783C1005.78 38.4783 1010.78 39.1027 1015.66 40.3514C1020.54 41.4866 1024.97 43.4165 1028.94 46.141C1032.92 48.752 1036.04 52.1576 1038.31 56.3579C1040.69 60.5581 1041.88 65.6666 1041.88 71.6832C1041.88 74.6347 1041.37 77.6998 1040.35 80.8784C1039.44 84.0569 1037.97 87.0085 1035.92 89.733C1033.88 92.344 1031.21 94.6144 1027.92 96.5442C1031.67 98.1335 1034.85 100.347 1037.46 103.185C1040.18 105.91 1042.22 109.145 1043.59 112.891C1045.06 116.524 1045.8 120.667 1045.8 125.322C1045.8 132.02 1044.5 137.696 1041.88 142.35C1039.27 147.004 1035.75 150.75 1031.33 153.588C1027.01 156.426 1022.19 158.527 1016.85 159.889C1011.52 161.138 1006.01 161.762 1000.33 161.762ZM1000.5 141.158C1003.11 141.158 1005.67 140.874 1008.17 140.307C1010.78 139.739 1013.16 138.831 1015.32 137.582C1017.59 136.22 1019.35 134.46 1020.6 132.303C1021.96 130.146 1022.64 127.479 1022.64 124.3C1022.64 120.44 1021.62 117.262 1019.58 114.764C1017.65 112.267 1015.03 110.451 1011.74 109.315C1008.45 108.067 1004.7 107.442 1000.5 107.442C996.416 107.442 992.67 108.067 989.264 109.315C985.858 110.451 983.134 112.267 981.09 114.764C979.16 117.262 978.195 120.44 978.195 124.3C978.195 127.479 978.877 130.146 980.239 132.303C981.601 134.46 983.361 136.22 985.518 137.582C987.675 138.831 990.059 139.739 992.67 140.307C995.281 140.874 997.892 141.158 1000.5 141.158ZM1000.67 89.733C1004.42 89.733 1007.66 89.1086 1010.38 87.8599C1013.1 86.6112 1015.26 84.8516 1016.85 82.5812C1018.44 80.3108 1019.24 77.643 1019.24 74.578C1019.24 70.9453 1018.38 67.937 1016.68 65.553C1015.09 63.1691 1012.88 61.4095 1010.04 60.2743C1007.2 59.0256 1003.97 58.4012 1000.33 58.4012C996.587 58.4012 993.294 59.0256 990.456 60.2743C987.732 61.4095 985.631 63.1123 984.155 65.3828C982.68 67.6532 981.942 70.4912 981.942 73.8968C981.942 77.1889 982.736 80.0837 984.326 82.5812C985.915 84.9651 988.129 86.7814 990.967 88.0302C993.805 89.1654 997.041 89.733 1000.67 89.733Z" fill="#29947A"/>
<path d="M1070.66 162.443C1066.8 162.443 1063.51 161.251 1060.79 158.867C1058.06 156.37 1056.7 152.964 1056.7 148.65C1056.7 144.223 1058.06 140.704 1060.79 138.093C1063.62 135.482 1066.92 134.176 1070.66 134.176C1074.52 134.176 1077.76 135.482 1080.37 138.093C1083.09 140.59 1084.46 144.053 1084.46 148.48C1084.46 152.907 1083.09 156.37 1080.37 158.867C1077.76 161.251 1074.52 162.443 1070.66 162.443Z" fill="#29947A"/>
<path d="M1154.84 160.4V137.923H1092.86V120.554L1149.4 39.8406H1177.49V117.148H1191.12V137.923H1177.49V160.4H1154.84ZM1119.08 117.148H1154.84V64.5314L1119.08 117.148Z" fill="#29947A"/>
<path d="M1214.19 162.443C1210.33 162.443 1207.04 161.251 1204.32 158.867C1201.59 156.37 1200.23 152.964 1200.23 148.65C1200.23 144.223 1201.59 140.704 1204.32 138.093C1207.15 135.482 1210.45 134.176 1214.19 134.176C1218.05 134.176 1221.29 135.482 1223.9 138.093C1226.62 140.59 1227.99 144.053 1227.99 148.48C1227.99 152.907 1226.62 156.37 1223.9 158.867C1221.29 161.251 1218.05 162.443 1214.19 162.443Z" fill="#29947A"/>
<path d="M1285.47 161.762C1276.73 161.762 1269.29 160.173 1263.16 156.994C1257.03 153.816 1252.04 149.445 1248.18 143.882C1244.43 138.206 1241.65 131.679 1239.83 124.3C1238.13 116.808 1237.28 108.861 1237.28 100.461C1237.28 91.8331 1238.13 83.7731 1239.83 76.2808C1241.65 68.7884 1244.49 62.2042 1248.35 56.5281C1252.21 50.8521 1257.2 46.4248 1263.33 43.2462C1269.58 40.0676 1277.07 38.4783 1285.81 38.4783C1294.78 38.4783 1302.33 40.1811 1308.46 43.5868C1314.71 46.8789 1319.7 51.4197 1323.45 57.2093C1327.19 62.9988 1329.86 69.583 1331.45 76.9619C1333.15 84.3407 1334 92.0602 1334 100.12C1334 108.294 1333.15 116.07 1331.45 123.449C1329.86 130.828 1327.19 137.412 1323.45 143.201C1319.7 148.877 1314.71 153.418 1308.46 156.824C1302.22 160.116 1294.55 161.762 1285.47 161.762ZM1285.47 140.817C1291.15 140.817 1295.69 139.512 1299.1 136.901C1302.5 134.176 1305.06 130.771 1306.76 126.684C1308.57 122.484 1309.77 118.056 1310.33 113.402C1310.9 108.634 1311.19 104.207 1311.19 100.12C1311.19 96.1469 1310.9 91.8331 1310.33 87.1788C1309.77 82.5244 1308.63 78.1539 1306.93 74.0671C1305.23 69.8668 1302.67 66.4612 1299.27 63.8502C1295.97 61.1257 1291.49 59.7635 1285.81 59.7635C1280.14 59.7635 1275.6 61.069 1272.19 63.68C1268.78 66.2909 1266.17 69.6966 1264.36 73.8968C1262.65 78.0971 1261.52 82.5244 1260.95 87.1788C1260.38 91.8331 1260.1 96.1469 1260.1 100.12C1260.1 104.207 1260.33 108.577 1260.78 113.232C1261.35 117.886 1262.48 122.313 1264.19 126.514C1265.89 130.714 1268.44 134.176 1271.85 136.901C1275.25 139.512 1279.8 140.817 1285.47 140.817Z" fill="#29947A"/>
<path fill-rule="evenodd" clip-rule="evenodd" d="M54.1265 60.5591C54.9878 64.3514 56.1805 68.2856 57.6957 72.2842C53.8257 72.6743 50.1568 73.2809 46.7453 74.0979C40.4628 75.6026 34.6339 77.9206 30.005 81.2802C25.3344 84.6701 21.4074 89.5096 20.3038 95.9185C19.2002 102.327 21.2739 108.25 24.5305 113.072C27.7581 117.85 32.4612 122.069 37.8623 125.683C38.8713 126.359 39.9171 127.021 40.9979 127.67C51.5474 134.052 65.4658 139.116 80.804 141.886C98.102 145.009 114.558 143.337 127.065 139.637C127.749 139.435 128.425 139.225 129.091 139.009C127.254 146.945 126.005 154.513 125.417 161.22C124.843 167.769 124.854 173.983 125.811 179.078C126.536 182.932 128.344 188.991 133.545 192.047C134.239 192.476 134.995 192.85 135.82 193.157C142.089 195.494 147.843 192.497 151.418 189.806C155.304 186.881 159.048 182.561 162.516 177.627C169.523 167.656 176.596 153.447 182.317 137.352C188.038 121.256 191.539 105.716 192.431 93.4657C192.872 87.4035 192.715 81.6299 191.574 76.8311C190.654 72.956 188.594 67.7943 183.862 65.0106C183.138 64.5636 182.349 64.173 181.49 63.8528C175.876 61.7606 170.507 63.6751 166.634 66.1204C162.679 68.6171 158.95 72.4399 155.532 76.9028C153.136 80.0324 150.743 83.6754 148.4 87.7745C144.569 77.7747 138.507 66.5193 129.551 55.5899C119.907 43.8208 109.12 34.2852 98.8007 28.0911C97.3159 27.193 95.8405 26.3639 94.3793 25.6069C88.6221 22.6243 82.7018 20.5635 77.0469 20.0904C71.341 19.6131 65.4635 20.9414 60.595 25.1245C55.797 29.2872 53.5863 35.3002 52.8134 41.1536C52.0273 47.1077 52.5865 53.779 54.1265 60.5591ZM86.9019 41.3705C87.9567 41.917 89.0342 42.5196 90.1304 43.1769C98.3572 48.1576 107.613 56.1988 116.216 66.697C121.656 73.3351 125.813 80.0677 128.908 86.3768C118.803 80.8452 106.099 76.4667 92.2355 73.9635C86.7876 72.9798 81.4112 72.3311 76.2031 72.0065C73.6747 66.627 71.865 61.3854 70.7766 56.5937C69.5584 51.2302 69.3214 46.7745 69.7539 43.4988C70.1959 40.1512 71.2005 38.8621 71.6542 38.4723C72.0866 38.1008 73.1973 37.4554 75.8947 37.6811C78.643 37.911 82.3725 39.024 86.9019 41.3705ZM83.5327 124.503C69.8553 122.033 58.064 117.617 49.6691 112.584C48.9011 112.119 48.1622 111.649 47.4534 111.175C43.2041 108.331 40.3981 105.581 38.8294 103.259C37.2899 100.979 37.2804 99.6717 37.3784 99.1026C37.4764 98.5334 37.9221 97.308 40.1301 95.7054C42.3798 94.0726 45.9354 92.4705 50.8781 91.2868C55.2505 90.2397 60.382 89.5978 66.0546 89.4456C68.866 94.1362 72.0992 98.7649 75.7406 103.209C84.3697 113.739 94.5788 121.116 104.707 125.688C98.0904 126.121 90.9066 125.834 83.5327 124.503ZM89.5068 91.3464C103.185 93.816 114.976 98.2325 123.371 103.266C124.139 103.73 124.878 104.2 125.586 104.674C129.835 107.518 132.641 110.269 134.21 112.591C134.419 112.9 134.599 113.191 134.755 113.465C134.026 113.629 133.199 113.764 132.268 113.855C128.752 114.197 124.309 113.836 119.334 112.473C109.4 109.751 98.0733 103.23 88.8358 91.957C88.6047 91.6749 88.3756 91.3921 88.1486 91.1087C88.6001 91.1852 89.0528 91.2644 89.5068 91.3464ZM169.225 87.8475C171.482 84.8992 173.424 82.9642 174.925 81.8114C175.324 84.1269 175.471 87.5257 175.144 92.0208C174.399 102.26 171.356 116.191 166.014 131.22C160.672 146.249 154.257 158.924 148.401 167.258C146.189 170.404 144.219 172.699 142.592 174.241C142.281 171.476 142.266 167.676 142.683 162.929C143.642 151.984 146.731 137.725 151.651 123.405C151.908 122.844 152.137 122.254 152.328 121.635C152.759 120.694 153.058 119.749 153.271 118.869C158.376 105.113 164.09 94.5536 169.225 87.8475Z" stroke="white" stroke-width="40" stroke-linejoin="round" mask="url(#path-5-outside-1_252_450)"/>
<path d="M211.818 160.4V39.8406H257.966C267.162 39.8406 275.109 41.2596 281.807 44.0976C288.619 46.8221 293.841 51.2494 297.474 57.3795C301.22 63.3961 303.093 71.3426 303.093 81.2189C303.093 90.6412 301.05 98.5309 296.963 104.888C292.876 111.132 287.256 115.843 280.104 119.021C273.065 122.086 265.005 123.619 255.923 123.619H234.637V160.4H211.818ZM234.637 103.185H255.582C263.075 103.185 269.092 101.369 273.633 97.7362C278.174 94.1035 280.445 88.541 280.445 81.0486C280.445 74.3509 278.515 69.356 274.655 66.0639C270.908 62.6583 265.005 60.9554 256.945 60.9554H234.637V103.185Z" stroke="white" stroke-width="40" stroke-linejoin="round" mask="url(#path-5-outside-1_252_450)"/>
<path d="M339.261 161.421C333.812 161.421 328.703 160.513 323.935 158.697C319.281 156.767 315.534 153.872 312.696 150.013C309.858 146.039 308.439 141.044 308.439 135.028C308.439 130.601 309.233 126.854 310.823 123.789C312.526 120.611 314.739 118 317.464 115.956C320.302 113.799 323.538 112.097 327.171 110.848C330.804 109.599 334.55 108.634 338.41 107.953C342.383 107.158 346.811 106.534 351.693 106.08C356.574 105.626 361.796 105.115 367.359 104.547C367.359 101.142 366.678 98.2471 365.316 95.8631C363.953 93.3657 362.023 91.4926 359.526 90.2438C357.028 88.8816 353.963 88.2005 350.33 88.2005C346.47 88.2005 343.121 88.8816 340.283 90.2438C337.445 91.4926 335.288 93.6495 333.812 96.7145H311.163C312.299 89.9033 314.796 84.511 318.656 80.5378C322.63 76.5646 327.455 73.7265 333.131 72.0237C338.807 70.2074 344.654 69.2992 350.671 69.2992C359.866 69.2992 367.246 70.9453 372.808 74.2374C378.371 77.5295 382.402 82.3541 384.899 88.7113C387.397 94.9549 388.646 102.618 388.646 111.699V160.4H368.381L367.7 149.502C365.089 152.68 362.08 155.178 358.674 156.994C355.382 158.697 352.033 159.832 348.627 160.4C345.335 161.081 342.213 161.421 339.261 161.421ZM343.859 143.372C348.173 143.372 352.033 142.577 355.439 140.988C358.958 139.398 361.74 137.128 363.783 134.176C365.94 131.111 367.132 127.479 367.359 123.278V119.873C364.862 120.1 362.364 120.384 359.866 120.724C357.369 120.951 354.814 121.235 352.203 121.576C349.706 121.803 347.208 122.143 344.711 122.597C340.51 123.165 337.104 124.357 334.493 126.173C331.882 127.99 330.577 130.487 330.577 133.666C330.577 136.163 331.258 138.15 332.62 139.625C334.096 140.988 335.856 141.953 337.899 142.52C339.942 143.088 341.929 143.372 343.859 143.372Z" stroke="white" stroke-width="40" stroke-linejoin="round" mask="url(#path-5-outside-1_252_450)"/>
<path d="M400.294 193.605V70.6615H421.24L422.262 82.2406C425.895 77.6998 430.095 74.4077 434.863 72.3643C439.631 70.2074 444.91 69.129 450.7 69.129C459.555 69.129 466.878 71.1723 472.668 75.2591C478.458 79.3458 482.772 84.9084 485.61 91.9466C488.562 98.8714 490.037 106.648 490.037 115.275C490.037 124.13 488.505 132.076 485.44 139.115C482.488 146.039 478.004 151.545 471.987 155.632C466.083 159.605 458.647 161.592 449.679 161.592C445.592 161.592 441.845 161.138 438.439 160.229C435.034 159.321 431.968 158.073 429.244 156.483C426.633 154.78 424.419 152.907 422.602 150.864V193.605H400.294ZM445.932 141.499C451.495 141.499 455.866 140.25 459.045 137.752C462.223 135.255 464.494 132.076 465.856 128.217C467.218 124.243 467.9 120.1 467.9 115.786C467.9 111.245 467.162 106.988 465.686 103.015C464.324 98.9282 461.996 95.6361 458.704 93.1386C455.412 90.6412 451.041 89.3924 445.592 89.3924C440.596 89.3924 436.339 90.6412 432.82 93.1386C429.414 95.5225 426.803 98.7011 424.986 102.674C423.284 106.648 422.432 110.961 422.432 115.616C422.432 120.27 423.284 124.584 424.986 128.557C426.689 132.417 429.244 135.539 432.65 137.923C436.169 140.307 440.596 141.499 445.932 141.499Z" stroke="white" stroke-width="40" stroke-linejoin="round" mask="url(#path-5-outside-1_252_450)"/>
<path d="M498.398 160.4V70.6615H520.706V160.4H498.398ZM509.637 60.9554C505.436 60.9554 502.03 59.7067 499.419 57.2093C496.922 54.5983 495.673 51.3062 495.673 47.3329C495.673 43.2462 496.978 39.8973 499.59 37.2863C502.314 34.6754 505.72 33.3699 509.807 33.3699C513.553 33.3699 516.789 34.6754 519.514 37.2863C522.352 39.7838 523.771 43.0759 523.771 47.1627C523.771 51.2494 522.409 54.5983 519.684 57.2093C517.073 59.7067 513.724 60.9554 509.637 60.9554Z" stroke="white" stroke-width="40" stroke-linejoin="round" mask="url(#path-5-outside-1_252_450)"/>
<path d="M562.272 161.421C555.688 161.421 550.182 160.286 545.754 158.016C541.44 155.632 538.205 152.113 536.048 147.458C534.004 142.804 532.982 137.014 532.982 130.09V39.8406H555.291V125.662C555.291 128.727 555.574 131.395 556.142 133.666C556.823 135.936 557.958 137.696 559.548 138.944C561.251 140.193 563.635 140.817 566.7 140.817C568.97 140.817 571.127 140.477 573.171 139.796C575.214 139.001 577.088 137.923 578.791 136.56L586.113 153.759C582.48 156.71 578.677 158.754 574.704 159.889C570.844 160.911 566.7 161.421 562.272 161.421Z" stroke="white" stroke-width="40" stroke-linejoin="round" mask="url(#path-5-outside-1_252_450)"/>
<path d="M616.473 161.421C609.888 161.421 604.382 160.286 599.954 158.016C595.64 155.632 592.405 152.113 590.248 147.458C588.204 142.804 587.183 137.014 587.183 130.09V39.8406H609.491V125.662C609.491 128.727 609.775 131.395 610.342 133.666C611.023 135.936 612.159 137.696 613.748 138.944C615.451 140.193 617.835 140.817 620.9 140.817C623.171 140.817 625.328 140.477 627.371 139.796C629.415 139.001 631.288 137.923 632.991 136.56L640.313 153.759C636.68 156.71 632.877 158.754 628.904 159.889C625.044 160.911 620.9 161.421 616.473 161.421Z" stroke="white" stroke-width="40" stroke-linejoin="round" mask="url(#path-5-outside-1_252_450)"/>
<path d="M682.593 161.592C673.397 161.592 665.451 159.719 658.753 155.972C652.054 152.226 646.832 146.947 643.086 140.136C639.453 133.211 637.636 125.038 637.636 115.616C637.636 106.08 639.51 97.8497 643.256 90.925C647.002 84.0002 652.225 78.6647 658.923 74.9185C665.621 71.0588 673.454 69.129 682.423 69.129C691.505 69.129 699.338 71.0588 705.923 74.9185C712.621 78.7782 717.786 84.2272 721.419 91.2655C725.052 98.1903 726.869 106.421 726.869 115.956C726.869 125.265 725.052 133.382 721.419 140.307C717.9 147.118 712.848 152.397 706.263 156.143C699.679 159.775 691.789 161.592 682.593 161.592ZM682.253 141.158C687.702 141.158 692.073 139.966 695.365 137.582C698.771 135.198 701.212 132.076 702.687 128.217C704.163 124.357 704.901 120.213 704.901 115.786C704.901 111.359 704.163 107.158 702.687 103.185C701.212 99.212 698.827 95.9766 695.535 93.4792C692.243 90.9817 687.815 89.733 682.253 89.733C676.917 89.733 672.546 90.9817 669.14 93.4792C665.848 95.9766 663.407 99.212 661.818 103.185C660.342 107.045 659.604 111.245 659.604 115.786C659.604 120.213 660.342 124.414 661.818 128.387C663.407 132.247 665.848 135.368 669.14 137.752C672.546 140.023 676.917 141.158 682.253 141.158Z" stroke="white" stroke-width="40" stroke-linejoin="round" mask="url(#path-5-outside-1_252_450)"/>
<path d="M735.154 160.4V70.6615H756.1L757.292 81.5595C759.676 78.3809 762.457 75.9402 765.636 74.2374C768.929 72.4211 772.278 71.1156 775.683 70.3209C779.089 69.5263 782.268 69.129 785.22 69.129C793.734 69.129 800.432 71.0021 805.314 74.7482C810.195 78.4944 813.658 83.5461 815.702 89.9033C817.859 96.1469 818.937 103.128 818.937 110.848V160.4H796.629V114.083C796.629 111.018 796.402 108.067 795.948 105.229C795.494 102.277 794.642 99.6093 793.394 97.2254C792.145 94.8414 790.385 92.9683 788.115 91.6061C785.844 90.1303 782.836 89.3924 779.089 89.3924C774.321 89.3924 770.291 90.6412 766.999 93.1386C763.82 95.5225 761.436 98.7579 759.846 102.845C758.257 106.931 757.462 111.529 757.462 116.637V160.4H735.154Z" stroke="white" stroke-width="40" stroke-linejoin="round" mask="url(#path-5-outside-1_252_450)"/>
<path d="M892.078 160.4L860.063 70.6615H884.585L907.233 141.839L929.542 70.6615H954.063L922.049 160.4H892.078Z" stroke="white" stroke-width="40" stroke-linejoin="round" mask="url(#path-5-outside-1_252_450)"/>
<path d="M1000.33 161.762C994.77 161.762 989.321 161.138 983.985 159.889C978.649 158.527 973.825 156.426 969.51 153.588C965.196 150.637 961.734 146.834 959.123 142.18C956.625 137.525 955.376 131.849 955.376 125.151C955.376 120.724 956.058 116.694 957.42 113.062C958.782 109.429 960.769 106.25 963.38 103.526C966.105 100.688 969.283 98.4173 972.916 96.7145C969.624 94.7847 966.956 92.4575 964.913 89.733C962.869 86.895 961.393 83.8867 960.485 80.7081C959.69 77.416 959.293 74.1806 959.293 71.002C959.293 65.099 960.428 60.104 962.699 56.0173C965.083 51.817 968.262 48.4682 972.235 45.9707C976.209 43.3597 980.636 41.4866 985.518 40.3514C990.513 39.1027 995.565 38.4783 1000.67 38.4783C1005.78 38.4783 1010.78 39.1027 1015.66 40.3514C1020.54 41.4866 1024.97 43.4165 1028.94 46.141C1032.92 48.752 1036.04 52.1576 1038.31 56.3579C1040.69 60.5581 1041.88 65.6666 1041.88 71.6832C1041.88 74.6347 1041.37 77.6998 1040.35 80.8784C1039.44 84.0569 1037.97 87.0085 1035.92 89.733C1033.88 92.344 1031.21 94.6144 1027.92 96.5442C1031.67 98.1335 1034.85 100.347 1037.46 103.185C1040.18 105.91 1042.22 109.145 1043.59 112.891C1045.06 116.524 1045.8 120.667 1045.8 125.322C1045.8 132.02 1044.5 137.696 1041.88 142.35C1039.27 147.004 1035.75 150.75 1031.33 153.588C1027.01 156.426 1022.19 158.527 1016.85 159.889C1011.52 161.138 1006.01 161.762 1000.33 161.762ZM1000.5 141.158C1003.11 141.158 1005.67 140.874 1008.17 140.307C1010.78 139.739 1013.16 138.831 1015.32 137.582C1017.59 136.22 1019.35 134.46 1020.6 132.303C1021.96 130.146 1022.64 127.479 1022.64 124.3C1022.64 120.44 1021.62 117.262 1019.58 114.764C1017.65 112.267 1015.03 110.451 1011.74 109.315C1008.45 108.067 1004.7 107.442 1000.5 107.442C996.416 107.442 992.67 108.067 989.264 109.315C985.858 110.451 983.134 112.267 981.09 114.764C979.16 117.262 978.195 120.44 978.195 124.3C978.195 127.479 978.877 130.146 980.239 132.303C981.601 134.46 983.361 136.22 985.518 137.582C987.675 138.831 990.059 139.739 992.67 140.307C995.281 140.874 997.892 141.158 1000.5 141.158ZM1000.67 89.733C1004.42 89.733 1007.66 89.1086 1010.38 87.8599C1013.1 86.6112 1015.26 84.8516 1016.85 82.5812C1018.44 80.3108 1019.24 77.643 1019.24 74.578C1019.24 70.9453 1018.38 67.937 1016.68 65.553C1015.09 63.1691 1012.88 61.4095 1010.04 60.2743C1007.2 59.0256 1003.97 58.4012 1000.33 58.4012C996.587 58.4012 993.294 59.0256 990.456 60.2743C987.732 61.4095 985.631 63.1123 984.155 65.3828C982.68 67.6532 981.942 70.4912 981.942 73.8968C981.942 77.1889 982.736 80.0837 984.326 82.5812C985.915 84.9651 988.129 86.7814 990.967 88.0302C993.805 89.1654 997.041 89.733 1000.67 89.733Z" stroke="white" stroke-width="40" stroke-linejoin="round" mask="url(#path-5-outside-1_252_450)"/>
<path d="M1070.66 162.443C1066.8 162.443 1063.51 161.251 1060.79 158.867C1058.06 156.37 1056.7 152.964 1056.7 148.65C1056.7 144.223 1058.06 140.704 1060.79 138.093C1063.62 135.482 1066.92 134.176 1070.66 134.176C1074.52 134.176 1077.76 135.482 1080.37 138.093C1083.09 140.59 1084.46 144.053 1084.46 148.48C1084.46 152.907 1083.09 156.37 1080.37 158.867C1077.76 161.251 1074.52 162.443 1070.66 162.443Z" stroke="white" stroke-width="40" stroke-linejoin="round" mask="url(#path-5-outside-1_252_450)"/>
<path d="M1154.84 160.4V137.923H1092.86V120.554L1149.4 39.8406H1177.49V117.148H1191.12V137.923H1177.49V160.4H1154.84ZM1119.08 117.148H1154.84V64.5314L1119.08 117.148Z" stroke="white" stroke-width="40" stroke-linejoin="round" mask="url(#path-5-outside-1_252_450)"/>
<path d="M1214.19 162.443C1210.33 162.443 1207.04 161.251 1204.32 158.867C1201.59 156.37 1200.23 152.964 1200.23 148.65C1200.23 144.223 1201.59 140.704 1204.32 138.093C1207.15 135.482 1210.45 134.176 1214.19 134.176C1218.05 134.176 1221.29 135.482 1223.9 138.093C1226.62 140.59 1227.99 144.053 1227.99 148.48C1227.99 152.907 1226.62 156.37 1223.9 158.867C1221.29 161.251 1218.05 162.443 1214.19 162.443Z" stroke="white" stroke-width="40" stroke-linejoin="round" mask="url(#path-5-outside-1_252_450)"/>
<path d="M1285.47 161.762C1276.73 161.762 1269.29 160.173 1263.16 156.994C1257.03 153.816 1252.04 149.445 1248.18 143.882C1244.43 138.206 1241.65 131.679 1239.83 124.3C1238.13 116.808 1237.28 108.861 1237.28 100.461C1237.28 91.8331 1238.13 83.7731 1239.83 76.2808C1241.65 68.7884 1244.49 62.2042 1248.35 56.5281C1252.21 50.8521 1257.2 46.4248 1263.33 43.2462C1269.58 40.0676 1277.07 38.4783 1285.81 38.4783C1294.78 38.4783 1302.33 40.1811 1308.46 43.5868C1314.71 46.8789 1319.7 51.4197 1323.45 57.2093C1327.19 62.9988 1329.86 69.583 1331.45 76.9619C1333.15 84.3407 1334 92.0602 1334 100.12C1334 108.294 1333.15 116.07 1331.45 123.449C1329.86 130.828 1327.19 137.412 1323.45 143.201C1319.7 148.877 1314.71 153.418 1308.46 156.824C1302.22 160.116 1294.55 161.762 1285.47 161.762ZM1285.47 140.817C1291.15 140.817 1295.69 139.512 1299.1 136.901C1302.5 134.176 1305.06 130.771 1306.76 126.684C1308.57 122.484 1309.77 118.056 1310.33 113.402C1310.9 108.634 1311.19 104.207 1311.19 100.12C1311.19 96.1469 1310.9 91.8331 1310.33 87.1788C1309.77 82.5244 1308.63 78.1539 1306.93 74.0671C1305.23 69.8668 1302.67 66.4612 1299.27 63.8502C1295.97 61.1257 1291.49 59.7635 1285.81 59.7635C1280.14 59.7635 1275.6 61.069 1272.19 63.68C1268.78 66.2909 1266.17 69.6966 1264.36 73.8968C1262.65 78.0971 1261.52 82.5244 1260.95 87.1788C1260.38 91.8331 1260.1 96.1469 1260.1 100.12C1260.1 104.207 1260.33 108.577 1260.78 113.232C1261.35 117.886 1262.48 122.313 1264.19 126.514C1265.89 130.714 1268.44 134.176 1271.85 136.901C1275.25 139.512 1279.8 140.817 1285.47 140.817Z" stroke="white" stroke-width="40" stroke-linejoin="round" mask="url(#path-5-outside-1_252_450)"/>
</svg>
