<svg width="895" height="895" viewBox="0 0 895 895" fill="none" xmlns="http://www.w3.org/2000/svg">
<g clip-path="url(#clip0_103_109)">
<path d="M395.582 187.554C394.621 185.152 391.518 184.515 389.689 186.344L386.008 190.025C384.902 191.131 383.458 191.837 381.906 192.032L362.184 194.497C360.529 194.704 358.99 195.456 357.811 196.636C355.283 199.164 351.322 199.556 348.347 197.573L343.418 194.287C338.327 190.893 331.668 191 326.689 194.556L319.957 199.365C316.166 202.073 314.908 207.137 316.992 211.305C318.56 214.442 318.266 218.189 316.228 221.043L304.122 237.992L299.638 258.174C298.714 262.331 301.387 266.435 305.563 267.27L305.916 267.34C309.976 268.153 312.533 272.193 311.529 276.21L311.405 276.709C310.736 279.383 311.821 282.189 314.114 283.718C317.112 285.716 317.922 289.766 315.923 292.763L314.836 294.394C313.888 295.816 312.494 296.881 310.873 297.422C307.064 298.692 304.874 302.68 305.848 306.575L306.804 310.399C307.051 311.389 307.825 312.163 308.815 312.41L309.221 312.512C311.907 313.183 311.907 317.001 309.221 317.672C308.037 317.968 307.206 319.032 307.206 320.253V328.251C307.206 331.674 308.566 334.956 310.985 337.376L311.832 338.222C314.794 341.184 316.458 345.201 316.458 349.39V369.876C316.458 374.411 315.402 378.884 313.374 382.94L316.458 398.36L330.211 400.653C332.952 401.109 334.96 403.48 334.96 406.259C334.96 408.867 336.735 411.14 339.265 411.772L347.295 413.78L356.547 407.612L356.779 407.844C360.672 411.737 365.492 414.574 370.786 416.086L372.913 416.694C380.178 418.77 387.978 417.742 394.457 413.854L396.899 412.389C398.756 411.274 400.343 409.761 401.545 407.959C404.258 403.889 408.826 401.444 413.717 401.444H418.223L431.025 412.114C434.63 415.118 439.4 416.329 444.002 415.409C449.089 414.391 454.348 415.984 458.016 419.652L462.577 424.213C463.795 425.432 465.447 426.116 467.17 426.116C469.342 426.116 471.371 427.202 472.576 429.009L476.815 435.368H485.338C489.564 435.368 493.428 432.98 495.317 429.2L501.485 441.536C509.445 443.526 517.854 442.603 525.193 438.934L532.323 435.368V434.015C532.323 427.56 536.716 421.934 542.978 420.368C544.094 420.089 545.24 419.948 546.39 419.948H553.91C559.763 429.704 569.7 436.302 580.963 437.911L584.747 438.452L597.083 426.116L605.595 406.962C608.046 401.446 612.554 397.106 618.158 394.864L622.39 393.171C623.984 392.533 625.346 391.428 626.298 390L626.585 389.57C629.026 385.908 633.973 384.919 637.634 387.36C639.318 388.483 641.367 388.923 643.364 388.59L646.669 388.039C653.842 386.844 659.377 381.078 660.279 373.862L664.926 336.68L668.01 315.092L666.064 307.308C665.355 304.473 663.247 302.196 660.475 301.272C657.515 300.286 655.328 297.764 654.77 294.693L651.362 275.949C650.578 271.637 645.275 269.981 642.176 273.079C640.967 274.289 639.26 274.858 637.567 274.616L625.807 272.936C622.04 272.398 618.669 275.321 618.669 279.126C618.669 282.107 616.565 284.673 613.643 285.257L612.47 285.492C607.7 286.446 603.25 282.798 603.25 277.934C603.25 274.397 600.843 271.314 597.412 270.456L592.523 269.234C591.525 268.985 590.47 269.277 589.743 270.004C587.9 271.848 584.747 270.542 584.747 267.935V264.206C584.747 260.223 579.932 258.228 577.115 261.045L574.83 263.331C573.338 264.823 571.154 265.389 569.125 264.809L562.215 262.834C555.745 260.986 548.926 264.331 546.427 270.578C545.284 273.435 543.174 275.799 540.465 277.258L508.63 294.401C506.129 295.748 504.569 298.36 504.569 301.201V304.298C504.569 306.853 502.498 308.924 499.943 308.924C497.388 308.924 495.317 306.853 495.317 304.298V295.582C495.317 290.528 492.462 285.908 487.942 283.648L479.742 279.548C474.336 276.845 471.325 270.932 472.319 264.97C473.183 259.784 471.019 254.559 466.741 251.503L457.951 245.224C454.307 242.621 452.144 238.418 452.144 233.94V230.434C452.144 225.863 448.918 221.927 444.435 221.03C439.952 220.133 436.725 216.197 436.725 211.626V206.559C436.725 203.283 434.496 200.427 431.317 199.632L429.799 199.252C426.812 198.505 424.996 195.479 425.742 192.491C426.622 188.973 423.961 185.564 420.334 185.564H405.367C403.86 185.564 402.547 186.589 402.182 188.051C401.41 191.14 397.132 191.431 395.95 188.474L395.582 187.554Z" fill="#E1E7F0"/>
<path d="M316.457 395.276L308.513 399.249C301.569 402.721 293.913 404.528 286.151 404.528H285.62L278.134 409.02C273.212 411.973 270.201 417.292 270.201 423.032L279.452 444.62C281.319 453.958 288.618 461.257 297.956 463.124L313.374 466.208L325.709 478.544C328.72 474.028 335.291 473.845 338.548 478.188L341.128 481.628C337.179 485.577 334.96 490.934 334.96 496.519V503.216C329.29 503.216 324.107 506.42 321.572 511.491L319.541 515.552H307.206L304.545 524.865C302.321 532.652 303.627 541.024 308.119 547.762L310.307 551.044C312.295 554.025 315.219 556.259 318.618 557.393L330.739 561.433C331.392 561.651 332.105 561.355 332.413 560.74L332.855 559.855C333.536 558.494 335.599 559.257 335.23 560.734C335.075 561.351 335.401 561.988 335.992 562.225L347.444 566.806C349.38 567.581 351.14 568.741 352.615 570.216L368.834 586.436C370.908 588.511 372.634 590.906 373.946 593.529C376.66 598.957 377.487 605.135 376.297 611.086L375.05 617.324L373.739 622.565C372.659 626.888 374.197 631.445 377.677 634.229L381.996 637.685C384.893 640.003 389.155 639.341 391.213 636.254C392.63 634.128 392.63 631.36 391.213 629.235L389.311 626.382C388.055 624.498 387.385 622.284 387.385 620.019V612.55C387.385 608.709 390.994 605.891 394.72 606.822L395.816 607.096C398.053 607.655 400.358 606.477 401.214 604.336L402.554 600.986C403.691 598.143 407.757 598.262 408.726 601.168C408.887 601.652 409.159 602.092 409.52 602.453L414.419 607.353C418.054 610.988 424.066 610.56 427.15 606.448C429.211 603.7 429.403 599.979 427.636 597.034L421.306 586.484L430.401 600.127C432.362 603.068 435.904 604.536 439.371 603.842L445.767 602.563C447.516 602.213 448.562 600.41 447.998 598.718C447.2 596.323 449.569 594.089 451.913 595.027L460.055 598.284C460.94 598.638 461.743 599.167 462.416 599.841L469.78 607.205C472.077 609.502 472.434 613.102 470.631 615.806C468.843 618.488 465.421 619.551 462.428 618.354L440.639 609.638C438.265 608.688 435.553 609.245 433.745 611.053C430.66 614.138 431.504 619.339 435.406 621.29L437.669 622.422C439.067 623.121 440.236 624.204 441.04 625.544L442.721 628.346C446.591 634.796 453.836 638.434 461.322 637.686L509.576 632.86C510.345 632.783 511.122 632.821 511.88 632.973L519.154 634.428C522.147 635.026 523.265 638.719 521.107 640.877C520.39 641.594 519.988 642.565 519.988 643.579V648.165C519.988 651.571 522.749 654.332 526.155 654.332L535.407 645.08C539.356 649.029 544.712 651.248 550.297 651.248H560.077L576.7 641.749C579.998 639.864 583.501 638.361 587.14 637.269L612.502 629.66L614.961 602.603C615.349 598.334 617.919 594.569 621.753 592.652L609.418 571.064L616.016 564.466C617.481 563 617.481 560.624 616.016 559.159C615.731 558.874 615.493 558.544 615.313 558.183L615.205 557.967C613.778 555.113 615.21 551.657 618.236 550.648L621.753 549.476L628.541 540.424C630.084 538.367 630.519 535.685 629.706 533.246C628.64 530.046 625.646 527.888 622.273 527.888H618.669L615.585 515.552C619.399 509.831 619.855 502.505 616.78 496.354L615.877 494.547C613.686 490.165 610.133 486.612 605.751 484.42L600.166 481.628H586.653C585.4 481.628 584.164 481.336 583.043 480.776C580.308 479.408 578.58 476.612 578.58 473.554V472.376C584.482 468.441 588.493 462.238 589.659 455.24L589.915 453.706C590.575 449.747 590.413 445.695 589.439 441.801L587.831 435.368L584.747 438.452L583.849 438.452C571.17 438.452 559.579 431.289 553.91 419.948H546.39C545.24 419.948 544.094 420.089 542.978 420.368C536.716 421.934 532.323 427.56 532.323 434.015V435.368L525.295 440.054C518.199 444.784 509.113 445.35 501.485 441.536L495.317 429.2C491.368 433.149 486.012 435.368 480.427 435.368H476.815L472.576 429.009C471.371 427.202 469.342 426.116 467.17 426.116C465.447 426.116 463.795 425.432 462.577 424.213L458.016 419.652C454.348 415.984 449.089 414.391 444.002 415.409C439.4 416.329 434.63 415.118 431.025 412.114L418.223 401.444L408.384 403.412C404.933 404.102 402.117 406.588 401.004 409.927C400.182 412.394 398.413 414.434 396.087 415.597L390.991 418.145C384.792 421.244 377.543 421.457 371.173 418.727L365.969 416.497C361.876 414.743 358.538 411.595 356.547 407.612L347.295 413.78L340.337 413.78C337.368 413.78 334.96 411.373 334.96 408.403C334.96 406.089 333.479 404.034 331.284 403.303L316.458 398.36L316.457 395.276Z" fill="#E1E7F0"/>
<path d="M230.111 231.506C230.111 225.42 223.071 222.037 218.319 225.839C216.108 227.607 213.071 227.929 210.538 226.663L206.319 224.553C203.736 223.261 200.828 222.763 197.961 223.122L184.246 224.836C180.293 225.33 177.05 228.204 176.084 232.069C175.179 235.686 172.272 238.458 168.616 239.189L165.647 239.783C162.029 240.507 158.48 238.262 157.586 234.682C156.738 231.291 153.491 229.066 150.023 229.5L135.734 231.286C133.275 231.593 131.43 233.684 131.43 236.162C131.43 238.876 129.23 241.076 126.516 241.076H115.855C113.98 241.076 112.182 240.331 110.857 239.006C108.475 236.623 104.742 236.254 101.938 238.123L100.473 239.1C98.5652 240.371 97.2001 242.309 96.6441 244.533L96.487 245.161C95.2748 250.01 90.918 253.412 85.9198 253.412H73.7484C69.2164 253.412 64.87 255.212 61.6655 258.417L54.4454 265.638C51.0964 268.987 51.4019 274.504 55.1004 277.463C59.3002 280.823 59.0192 287.297 54.5441 290.281L52.3421 291.749C48.1954 294.514 46.7562 299.933 48.9849 304.391L49.3649 305.151C50.5782 307.578 50.8379 310.371 50.0925 312.98L48.6144 318.154C46.7325 324.741 51.004 331.499 57.7613 332.625L60.6632 333.109C62.4977 333.415 64.367 332.816 65.682 331.5L67.637 329.545C68.8062 328.376 70.702 328.376 71.8712 329.545C72.4851 330.159 73.3355 330.477 74.2016 330.415L100.863 328.51C110.739 327.805 120.183 324.183 127.998 318.104L143.765 305.84L121.594 328.012C120.062 329.544 119.528 331.81 120.213 333.866C121.271 337.041 124.817 338.633 127.893 337.315L134.961 334.286C138.69 332.687 142.682 335.927 141.887 339.905C141.263 343.023 143.648 345.932 146.828 345.932H157.93C160.326 345.932 162.268 347.874 162.268 350.27C162.268 352.879 159.981 354.898 157.392 354.575L139.17 352.297C138.123 352.166 137.088 351.954 136.074 351.665L116.011 345.932L94.36 338.715C90.6196 337.468 86.4958 338.441 83.7079 341.229C78.5013 346.436 80.1997 355.255 86.9678 358.156L87.207 358.259C91.4933 360.096 94.0723 364.522 93.5573 369.156L92.006 383.12C91.7191 385.702 94.4062 387.575 96.7296 386.413C97.2399 386.158 97.6746 385.774 97.991 385.3L100.361 381.745C105.778 373.619 116.399 370.798 125.134 375.166L133.355 379.277C134.126 379.662 134.927 379.994 135.745 380.267C140.822 381.959 144.911 385.806 146.899 390.775L147.777 392.971C149.148 396.399 148.988 400.249 147.337 403.551C145.148 407.93 140.673 410.696 135.777 410.696H116.011L91.3406 413.78L57.9435 416.563C55.6638 416.753 53.5956 417.974 52.3267 419.877C50.0296 423.323 50.9607 427.978 54.4065 430.276L55.2686 430.85C56.6707 431.785 58.3181 432.284 60.0033 432.284H63.4033C67.5256 432.284 71.5368 433.621 74.8346 436.095L77.6132 438.179C80.445 440.303 84.0832 441.038 87.5174 440.179C91.763 439.117 96.2469 440.502 99.1543 443.773L111.694 457.881C116.547 463.342 119.927 469.951 121.511 477.083L124.373 489.96C124.944 492.531 124.507 495.223 123.152 497.482C119.599 503.404 122.776 511.076 129.477 512.751L138.619 515.036C139.989 515.379 141.395 515.552 142.807 515.552H158.984C162.887 515.552 166.454 513.347 168.199 509.857L170.221 505.813C170.996 504.262 170.692 502.389 169.467 501.163L167.878 499.575C165.436 497.132 167.761 493.025 171.112 493.862C171.383 493.93 171.66 493.964 171.939 493.964H174.69C178.689 493.964 182.633 494.895 186.209 496.684L197.693 502.426C198.732 502.946 199.878 503.216 201.04 503.216H205.873C207.337 503.216 208.525 502.029 208.525 500.564C208.525 497.489 212.882 496.879 213.727 499.836L214.547 502.706C214.643 503.044 214.797 503.362 215 503.647L224.873 517.47C228.202 522.131 233.38 525.131 239.079 525.701L259.411 527.734C260.234 527.817 260.949 527.17 260.949 526.342C260.949 524.957 262.745 524.414 263.513 525.566L266.381 529.869C266.849 530.571 267.594 531.04 268.429 531.16L286.915 533.801C288.106 533.971 289.307 534.056 290.51 534.056H300.29C300.769 534.056 301.229 534.246 301.568 534.585C302.62 535.638 304.423 535.037 304.633 533.563L307.206 515.552H319.541L325.092 508.15C327.422 505.044 331.078 503.216 334.96 503.216L336.731 494.362C337.602 490.004 339.051 485.782 341.038 481.807L341.128 481.628L338.044 478.544C334.638 475.138 329.115 475.138 325.709 478.544L313.374 466.208L305.005 465.278C293.187 463.965 283.212 455.9 279.452 444.62L270.201 423.032C270.201 419.134 271.973 415.446 275.017 413.011L285.62 404.528H286.151C293.913 404.528 301.569 402.721 308.513 399.249L316.457 395.276L313.374 382.94C315.402 378.884 316.458 374.411 316.458 369.876V349.39C316.458 345.201 314.794 341.184 311.832 338.222L310.985 337.376C308.566 334.956 307.206 331.674 307.206 328.251V320.253C307.206 319.032 308.037 317.968 309.221 317.672C311.907 317.001 311.907 313.183 309.221 312.512L308.815 312.41C307.825 312.163 307.051 311.389 306.804 310.399L305.848 306.575C304.874 302.68 307.064 298.692 310.873 297.422C312.494 296.881 313.888 295.816 314.836 294.394L315.923 292.763C317.922 289.766 317.112 285.716 314.114 283.718C311.821 282.189 310.736 279.383 311.405 276.709L311.529 276.21C312.533 272.193 309.976 268.153 305.916 267.34L305.563 267.27C301.387 266.435 298.714 262.331 299.638 258.174L304.122 237.992L292.93 230.53C288.203 227.379 282.53 225.965 276.877 226.53L264.986 227.72C259.193 228.299 254.782 233.174 254.782 238.996V245.702C254.782 248.257 252.711 250.328 250.156 250.328C247.601 250.328 245.53 248.257 245.53 245.702C245.53 243.147 243.459 241.076 240.904 241.076H237.821C233.563 241.076 230.111 237.624 230.111 233.367V231.506Z" fill="#E1E7F0"/>
<path d="M662.507 256.496C660.074 256.496 657.706 257.285 655.76 258.745L654.635 259.589C649.659 263.321 647.404 269.672 648.913 275.707L654.437 297.805C655.208 300.889 657.501 303.365 660.516 304.37C663.292 305.295 665.471 307.474 666.396 310.25L668.01 315.092L664.926 336.68L660.279 373.862C659.377 381.078 653.842 386.844 646.669 388.039L643.364 388.59C641.367 388.923 639.318 388.483 637.634 387.36C633.973 384.919 629.026 385.908 626.585 389.57L626.298 390C625.346 391.428 623.984 392.533 622.39 393.171L618.158 394.864C612.554 397.106 608.046 401.446 605.595 406.962L597.083 426.116L587.831 435.368L588.325 436.85C590.026 441.952 590.453 447.394 589.569 452.699C588.439 459.479 585.219 465.737 580.358 470.597L578.58 472.376V473.554C578.58 476.612 580.308 479.408 583.043 480.776C584.164 481.336 585.4 481.628 586.653 481.628H600.166L608.952 485.143C613.225 486.852 616.722 490.07 618.78 494.186L618.986 494.598C622.48 501.586 621.11 510.027 615.585 515.552L618.669 527.888H622.281C627.099 527.888 631.004 531.793 631.004 536.611C631.004 538.924 630.085 541.143 628.45 542.779L621.753 549.476L616.724 552.829C614.843 554.083 615.018 556.903 617.041 557.914C618.039 558.413 618.669 559.433 618.669 560.549V562.034C618.669 563.822 617.775 565.492 616.288 566.484L609.418 571.064L621.753 592.652L643.339 583.4L700.546 578.199C707.159 577.598 712.99 573.618 715.959 567.679C716.881 565.836 718.093 564.153 719.55 562.696L726.602 555.644L738.655 554.137C746.259 553.187 752.497 547.659 754.356 540.224C763.922 540.224 772.786 545.243 777.708 553.446L779.026 555.644L803.697 561.812L806.781 552.56L811.928 534.544C812.607 532.166 813.462 529.842 814.485 527.59L827.427 499.117C828.049 497.749 828.911 496.504 829.974 495.441L830.508 494.907C833.035 492.38 836.627 491.229 840.152 491.816C846.897 492.941 853.037 487.739 853.037 480.901V467.485C853.037 464.693 851.928 462.015 849.954 460.04C847.979 458.066 846.87 455.387 846.87 452.595V427.908C846.87 424.679 846.349 421.47 845.328 418.406C844.307 415.342 843.786 412.134 843.786 408.904V402.986C843.786 397.981 845.453 393.053 848.456 389.049C851.402 385.121 853.037 380.286 853.037 375.376V368.248C853.037 364.022 850.65 360.158 846.87 358.268L849.954 324.344L844.534 322.537C841.996 321.691 839.338 321.26 836.663 321.26H832.313C829.752 321.26 827.26 320.429 825.211 318.892C820.096 315.056 812.859 315.975 808.865 320.968L806.529 323.887C804.739 326.125 802.028 327.428 799.162 327.428C796.193 327.428 793.397 328.826 791.615 331.202L785.194 339.764C779.27 339.764 773.589 337.411 769.401 333.222L757.44 321.26L751.272 299.672L748.189 287.336L697.207 287.336C694.241 287.336 691.325 286.562 688.75 285.09L678.59 279.284C674.681 277.05 673.738 271.826 676.621 268.367C680.549 263.653 677.197 256.496 671.061 256.496H662.507Z" fill="#E1E7F0"/>
<path d="M754.356 540.224C752.497 547.659 746.259 553.187 738.655 554.137L726.602 555.644L718.51 566.434C717.742 567.458 717.144 568.599 716.74 569.813C715.238 574.317 711.205 577.498 706.476 577.91L643.339 583.4L638.451 586.116C624.128 594.074 614.613 608.544 612.983 624.848L612.502 629.66L581.664 641.996L560.077 651.248H555.777C548.527 651.248 541.439 649.102 535.407 645.08L526.155 654.332C525.017 654.332 524.447 655.708 525.252 656.513L525.3 656.561C525.783 657.044 525.813 657.816 525.369 658.334L510.217 676.013C508.77 677.701 508.866 680.218 510.439 681.79C510.637 681.988 510.815 682.206 510.97 682.439L512.835 685.236C515.258 688.871 515.051 693.657 512.321 697.069C508.331 702.057 509.956 709.454 515.669 712.311L516.042 712.497C516.615 712.784 517.214 713.017 517.831 713.193L535.667 718.289C537.082 718.694 538.491 717.631 538.491 716.159C538.491 714.065 541.127 713.14 542.435 714.776L549.046 723.04C550.171 724.446 551.874 725.264 553.675 725.264H562.42C568.818 725.264 574.954 722.722 579.478 718.198L586.806 710.869C587.462 710.213 588.353 709.844 589.281 709.844C593.088 709.844 594.159 715.062 590.66 716.562L587.959 717.719C586.108 718.513 585.106 720.532 585.595 722.486L587.831 731.432C589.721 737.102 588.246 743.354 584.019 747.58L580.791 750.809C579.375 752.225 577.455 753.02 575.453 753.02H575.101C570.519 753.02 567.083 757.212 567.982 761.705C568.737 765.483 572.313 768.014 576.128 767.469L584.666 766.249C588.626 765.683 592.633 766.903 595.607 769.579L620.815 792.268C621.145 792.565 620.935 793.112 620.492 793.112C619.995 793.112 619.821 793.77 620.252 794.016L638.649 804.53C639.697 805.129 640.544 806.024 641.083 807.103L643.191 811.32C645.289 815.516 648.691 818.918 652.887 821.016L661.523 825.335C663.761 826.454 666.229 827.036 668.73 827.036H669.082C675.808 827.036 681.78 831.34 683.906 837.721C685.537 842.614 689.478 846.387 694.437 847.804L708.099 851.708L718.622 853.813C721.681 854.425 724.843 853.467 727.049 851.261C730.331 847.978 730.701 842.781 727.915 839.067L725.732 836.157C724.283 834.224 723.377 831.937 723.111 829.536L720.952 810.104C720.625 807.161 721.653 804.229 723.747 802.135C725.575 800.307 728.054 799.28 730.64 799.28H731.684C736.015 799.28 739.861 802.052 741.231 806.161C741.75 807.718 741.88 809.378 741.61 810.997L739.589 823.127C739.18 825.58 739.981 828.08 741.739 829.838C743.802 831.901 746.853 832.621 749.62 831.699L755.333 829.794C760.542 828.058 764.629 823.971 766.365 818.762L768.932 811.062C769.449 809.512 769.045 807.802 767.889 806.646C765.171 803.928 767.096 799.28 770.941 799.28H775.669C777.766 799.28 779.725 798.232 780.889 796.486L783.127 793.128C784.418 791.191 786.592 790.028 788.92 790.028C790.5 790.028 792.034 790.566 793.268 791.554L806.781 802.364C811.332 803.881 816.032 800.494 816.032 795.696V794.906C816.032 793.726 815.757 792.563 815.23 791.508L809.864 780.776H798.807C796.059 780.776 794.683 777.454 796.626 775.511C797.204 774.933 797.529 774.149 797.529 773.331V771.232C797.529 767.723 799.774 764.608 803.103 763.498L806.781 762.272L808.807 754.167C809.463 751.542 808.694 748.765 806.781 746.852V739.763C806.781 735.162 803.051 731.432 798.45 731.432C795.919 731.432 793.525 730.282 791.944 728.305L782.11 716.012C782.11 710.188 784.852 704.703 789.512 701.209L794.445 697.508L819.116 694.424H841.233C848.996 694.424 856.652 692.617 863.595 689.145L865.373 688.256L864.043 678.948C862.914 671.044 858.893 663.838 852.76 658.727C846.961 653.894 839.653 651.248 832.105 651.248H825.283C821.503 649.358 819.116 645.495 819.116 641.268V635.299C819.116 631.688 820.55 628.226 823.103 625.673C827.893 620.882 828.432 613.299 824.367 607.879L822.2 604.988L814.595 589.778C813.504 587.596 812.069 585.605 810.344 583.88L808.058 581.594C805.266 578.801 803.697 575.013 803.697 571.064V569.257C803.697 566.465 802.587 563.787 800.613 561.812L779.026 555.644C773.069 547.7 764.392 542.231 754.655 540.284L754.356 540.224Z" fill="#E1E7F0"/>
<path d="M813.323 557.825C809.569 556.574 805.466 558.273 803.697 561.812H800.613V568.573C800.613 573.88 803.611 578.731 808.358 581.105C811.322 582.587 813.664 585.072 814.97 588.118L822.2 604.988L824.367 607.879C828.432 613.299 827.893 620.882 823.103 625.673C820.55 628.226 819.116 631.688 819.116 635.299V641.268C819.116 645.495 821.503 649.358 825.283 651.248L831.016 650.293C839.123 648.941 847.417 651.19 853.731 656.452C859.23 661.035 862.783 667.535 863.67 674.638L865.373 688.256L863.595 689.145C856.652 692.617 848.996 694.424 841.233 694.424H819.116L794.445 697.508L793.144 698.159C786.382 701.54 782.11 708.452 782.11 716.012L791.944 728.305C793.525 730.282 795.919 731.432 798.45 731.432C803.051 731.432 806.781 735.162 806.781 739.763V746.852C810.187 748.555 811.568 752.698 809.864 756.104L806.781 762.272L803.103 763.498C799.774 764.608 797.529 767.723 797.529 771.232V773.331C797.529 774.149 797.204 774.933 796.626 775.511C794.683 777.454 796.059 780.776 798.807 780.776H809.864L811.714 783.243C816.519 789.649 819.116 797.441 819.116 805.448C825.148 809.47 832.236 811.616 839.486 811.616H841.225C850.868 811.616 860.223 814.898 867.753 820.922L871.54 823.952L879.293 820.629C888.316 816.762 898.277 815.637 907.935 817.393L919.982 819.583C924.537 820.411 929.238 819.554 933.208 817.172L937.379 814.669C940.536 812.775 942.467 809.363 942.467 805.682C942.467 800.297 946.548 795.788 951.906 795.252L973.305 793.112L1001.06 790.028L1025.11 787.623C1029.08 787.226 1032.79 789.632 1034.06 793.418C1034.66 795.218 1035.84 796.768 1037.42 797.821L1044.23 802.364L1050.4 790.028L1071.99 765.356H1081.24L1091.22 727.906C1092.77 722.103 1095.57 716.706 1099.41 712.091C1105.6 704.661 1108.99 695.296 1108.99 685.624V675.92L1119.56 662.709C1120.7 661.279 1121.33 659.503 1121.33 657.672C1121.33 655.533 1120.48 653.483 1118.97 651.971L1115.16 648.164L1118.24 638.912L1112.52 637.768C1106.12 636.487 1100.03 633.964 1094.59 630.341L1063.06 609.318C1058.76 606.449 1054.04 604.265 1049.06 602.844L1015.22 593.173C1014.01 592.827 1012.76 592.652 1011.5 592.652H1010.31C1003.5 592.652 997.976 587.129 997.976 580.316L993.915 578.286C988.473 575.565 982.473 574.148 976.389 574.148C965.34 568.623 951.994 570.789 943.259 579.525L942.467 580.316H914.713L902.378 574.148L868.456 561.812C864.933 567.098 858.025 568.932 852.343 566.091L847.69 563.764C845.123 562.48 842.292 561.812 839.421 561.812H828.357C826.321 561.812 824.299 561.484 822.367 560.84L813.323 557.825Z" fill="#E1E7F0" fill-opacity="0.5"/>
<path d="M1037.57 317.037C1035.89 315.775 1033.84 315.092 1031.74 315.092C1028.06 315.092 1024.69 317.173 1023.04 320.468L1021.91 322.73C1020.4 325.756 1017.83 328.122 1014.69 329.379L1010.18 331.18C1006.22 332.767 1001.92 333.374 997.671 332.949L984.72 331.654C977.263 330.908 969.748 332.291 963.045 335.642L947.096 343.618C944.234 345.049 940.824 344.837 938.162 343.062C935.167 341.065 931.265 341.065 928.27 343.062L924.24 345.749C918.531 349.555 911.043 349.347 905.554 345.23L902.378 342.848L896.211 327.428L890.12 325.398C882.513 322.862 874.126 324.842 868.456 330.512L849.954 327.428L846.87 358.268C850.65 360.158 853.037 364.022 853.037 368.248V375.376C853.037 380.286 851.402 385.121 848.456 389.049C845.453 393.053 843.786 397.981 843.786 402.986V408.904C843.786 412.134 844.307 415.342 845.328 418.406C846.349 421.47 846.87 424.679 846.87 427.908V452.595C846.87 455.387 847.979 458.066 849.954 460.04C851.928 462.015 853.037 464.693 853.037 467.485V480.901C853.037 487.739 846.897 492.941 840.152 491.816C836.627 491.229 833.035 492.38 830.508 494.907L829.974 495.441C828.911 496.504 828.049 497.749 827.427 499.117L814.485 527.59C813.462 529.842 812.607 532.166 811.928 534.544L806.781 552.56C805.51 553.831 806.235 556.007 808.014 556.261L824.542 558.622C825.036 558.693 825.533 558.728 826.032 558.728H834.704C838.615 558.728 842.439 559.886 845.693 562.055L848.319 563.806C854.649 568.026 863.077 567.192 868.456 561.812L914.713 580.316H942.467C949.756 571.205 962.229 568.079 972.952 572.675L976.389 574.148L988.724 574.148L989.243 572.593C990.942 567.495 991.808 562.156 991.808 556.783V539.695C991.808 534.11 989.59 528.753 985.641 524.804C987.53 521.024 991.394 518.636 995.62 518.636L1004.14 518.636L1009.12 513.663C1009.91 512.871 1010.57 511.958 1011.07 510.957C1012.53 508.025 1012.53 504.575 1011.07 501.643L1005.73 490.979C1004.72 488.941 1004.55 486.582 1005.27 484.42L1005.42 483.954C1006.5 480.723 1009.52 478.544 1012.93 478.544H1018.83C1022 478.544 1024.06 475.21 1022.65 472.376L1025.73 466.208C1027.67 462.325 1027.67 457.755 1025.73 453.872C1027.75 447.824 1031.41 442.458 1036.31 438.376L1047.32 429.2L1046.5 425.925C1045 419.936 1044.63 413.722 1045.39 407.597L1047.32 392.192C1051.25 384.332 1058.3 378.481 1066.75 376.067L1075.07 373.688L1071.99 373.688L1068.13 362.119C1066.66 357.721 1063.34 354.191 1059.03 352.469C1053.71 350.339 1049.96 345.483 1049.25 339.791L1048.39 332.914C1047.7 327.437 1044.82 322.474 1040.41 319.162L1037.57 317.037Z" fill="#E1E7F0" fill-opacity="0.5"/>
<path d="M1152.17 37.5321L1132.61 41.8772C1127.18 43.084 1121.99 45.1886 1117.26 48.1042L1088.44 65.8368C1085.7 67.5231 1082.81 68.9409 1079.79 70.0707L1057.22 78.5364C1043.15 83.8136 1027.45 82.4814 1014.47 74.9085L1006.63 70.3369C1000.92 67.0041 994.6 64.8379 988.044 63.9637L913.183 53.9816C908.084 53.3017 903.165 51.6396 898.699 49.0874C889.234 43.6783 877.964 42.3896 867.522 45.5224L853.037 49.8681L853.037 53.4815C853.037 59.0665 850.819 64.4228 846.87 68.3721V77.6241L861.2 91.9547C865.988 96.743 871.698 100.509 877.985 103.024L883.875 105.38L886.442 100.246C888.214 96.7029 892.935 95.9367 895.736 98.7375C897.778 100.779 898.008 104.012 896.275 106.322L894.333 108.911C891.791 112.302 891.791 116.963 894.333 120.353L896.436 123.157C898.076 125.344 897.859 128.404 895.926 130.337C894.254 132.008 893.84 134.562 894.897 136.677L897.305 141.494C898.594 144.072 898.987 147.007 898.422 149.834L896.211 160.892L895.503 162.072C889.96 171.31 881.543 178.479 871.54 182.48C867.726 180.573 863.183 180.856 859.635 183.221L856.121 185.564C861.646 191.089 863.016 199.53 859.522 206.519L859.205 207.152C850.173 210.163 846.831 221.2 852.676 228.716L856.739 233.94C860.241 238.443 865.625 241.076 871.329 241.076H883.875L899.294 253.412L914.95 246.702C918.868 245.023 922.429 242.611 925.443 239.597L930.133 234.908C935.842 229.198 944.199 227.032 951.963 229.251C957.723 230.896 963.903 230.148 969.103 227.176L982.557 219.488L985.205 218.164C990.855 215.339 997.711 216.845 1001.66 221.778C1005.03 225.995 1010.61 227.774 1015.8 226.291L1019.96 225.101C1025.58 223.497 1031.61 224.439 1036.47 227.678L1037.33 228.253C1043.56 232.405 1051.46 233.13 1058.34 230.182L1065.31 227.195C1067.7 226.172 1069.97 224.895 1072.08 223.385L1086.89 212.808C1089.28 211.101 1091.42 209.073 1093.25 206.781L1100.51 197.706C1101.97 195.879 1104.19 194.816 1106.53 194.816H1107.2C1110.11 194.816 1112.7 196.679 1113.62 199.442L1114.18 201.142C1114.77 202.89 1116.4 204.068 1118.24 204.068C1120.09 204.068 1121.72 202.89 1122.3 201.143L1122.99 199.087C1123.86 196.47 1126.14 194.57 1128.87 194.179L1142.58 192.22C1144.81 191.902 1147.07 192.27 1149.08 193.274C1151.09 194.278 1153.36 194.646 1155.58 194.328L1173.75 191.732L1179.92 179.396L1178.5 175.124C1177.46 172.022 1174.91 169.664 1171.74 168.871L1169.83 168.392C1166.7 167.609 1164.5 164.797 1164.5 161.571C1164.5 159.22 1165.68 157.025 1167.63 155.721L1169.87 154.227C1172.37 152.562 1174.16 150.027 1174.88 147.116L1175.62 144.148C1176.42 140.968 1176.42 137.64 1175.62 134.46L1171.57 118.225C1170.97 115.851 1169.94 113.61 1168.52 111.618L1160.49 100.388C1157.74 96.532 1159.08 91.1272 1163.32 89.0077L1166.37 87.4855C1167.11 87.112 1167.58 86.3486 1167.58 85.5135C1167.58 84.5018 1166.9 83.6199 1165.91 83.3746L1161.19 82.1929C1157.65 81.3072 1155.07 78.2446 1154.81 74.602L1152.17 37.5321Z" fill="#E1E7F0" fill-opacity="0.5"/>
<path fill-rule="evenodd" clip-rule="evenodd" d="M840.702 49.8681L831.838 68.9042C829.955 72.9499 828.621 77.2296 827.873 81.6293L824.394 102.092C821.168 121.064 807.341 136.5 788.838 141.787L784.821 142.935C778.952 144.612 773.439 147.35 768.556 151.012L751.272 163.976V184.526C751.272 191.311 749.849 198.019 747.093 204.219L746.673 205.164C741.72 216.31 741.397 228.968 745.775 240.352L750.708 253.178C752.995 259.125 758.035 263.584 764.216 265.129L771.926 267.057C776.099 268.1 779.026 271.85 779.026 276.151C779.026 279.285 777.46 282.212 774.852 283.951L773.118 285.107C770.938 286.561 768.377 287.336 765.757 287.336H748.189L751.272 299.672L757.44 321.26L768.695 330.64C773.484 334.631 778.978 337.692 784.893 339.664L785.194 339.764L791.615 331.202C793.397 328.826 796.193 327.428 799.162 327.428C802.028 327.428 804.739 326.125 806.529 323.887L808.865 320.968C812.859 315.975 820.096 315.056 825.211 318.892C827.26 320.429 829.752 321.26 832.313 321.26H836.663C839.338 321.26 841.996 321.691 844.534 322.537L849.954 324.344V327.428L868.456 330.512C876.116 324.767 886.218 323.431 895.108 326.987L896.211 327.428L914.713 312.008L919.704 294.541C920.485 291.807 920.881 288.978 920.881 286.134V283.196C920.881 281.853 921.097 280.518 921.522 279.244C923.019 274.753 921.85 269.802 918.503 266.454L911.63 259.58L883.875 241.076H871.329C865.625 241.076 860.241 238.443 856.739 233.94L852.676 228.716C846.831 221.2 850.173 210.163 859.205 207.152L861.243 202.056C863.65 196.039 861.513 189.159 856.121 185.564L859.205 182.48C862.611 179.074 868.134 179.074 871.54 182.48L878.561 178.268C884.107 174.94 888.955 170.567 892.836 165.392L896.211 160.892L898.422 149.834C898.987 147.007 898.594 144.072 897.305 141.494L894.897 136.677C893.84 134.562 894.254 132.008 895.926 130.337C897.859 128.404 898.076 125.344 896.436 123.157L894.333 120.353C891.791 116.963 891.791 112.302 894.333 108.911L896.275 106.322C898.008 104.012 897.778 100.779 895.736 98.7375C892.935 95.9367 888.214 96.7029 886.442 100.246L883.875 105.38L872.071 98.2969C869.665 96.8536 867.386 95.2104 865.256 93.3848L846.87 77.6241V68.3721L847.906 66.8184C851.252 61.7987 853.037 55.9009 853.037 49.8681H840.702Z" fill="#E1E7F0" fill-opacity="0.5"/>
<path d="M1071.99 765.356L1050.4 790.028M1071.99 765.356H1081.24M1071.99 765.356C1071.99 767.059 1073.37 768.44 1075.07 768.44H1077.5C1079.76 768.44 1081.79 769.814 1082.63 771.908L1087.41 783.86M1050.4 790.028L1044.23 799.28M1050.4 790.028L1044.23 802.364M1044.23 799.28L1046.78 819.648C1047.09 822.107 1049.18 823.952 1051.65 823.952C1054.37 823.952 1056.57 826.152 1056.57 828.866V834.566C1056.57 835.707 1056.75 836.84 1057.11 837.922L1062.74 854.792L1066.93 865.268C1068.08 868.149 1067.05 871.445 1064.47 873.166L1063.56 873.777C1061.33 875.264 1060.55 878.18 1061.75 880.578C1062.38 881.84 1062.48 883.3 1062.04 884.638L1059.93 890.977C1059.74 891.522 1059.65 892.093 1059.65 892.668C1059.65 894.087 1060.22 895.448 1061.22 896.451L1066.38 901.616C1068 903.23 1068.9 905.418 1068.9 907.7C1068.9 909.398 1068.4 911.058 1067.46 912.471L1056.6 928.764C1053.31 933.7 1055.09 940.404 1060.39 943.057C1061.93 943.824 1063.24 944.979 1064.19 946.408L1064.67 947.133C1067.29 951.058 1067.6 956.084 1065.49 960.303L1063.88 963.529C1063.13 965.033 1062.74 966.692 1062.74 968.373C1062.74 970.717 1061.98 972.998 1060.57 974.873L1053.48 984.32M1044.23 799.28V802.364M1226.18 860.96L1218.44 840.321C1217.47 837.729 1215.55 835.6 1213.07 834.362C1211.55 833.601 1210.23 832.495 1209.2 831.133L1201.51 820.868M1201.51 820.868L1200.37 821.626C1195.58 824.82 1193.52 830.826 1195.34 836.288M1201.51 820.868C1196.29 822.608 1193.29 828.074 1194.62 833.413L1195.34 836.288M1195.34 836.288L1175.28 842.974C1170.18 844.674 1164.84 845.54 1159.47 845.54H1133.66M1195.34 836.288L1171.53 843.431C1166.87 844.83 1162.03 845.54 1157.16 845.54L1133.66 845.54M1133.66 845.54V822.748C1133.66 814.442 1127.89 807.25 1119.79 805.448L1112.25 803.774C1108.55 802.95 1105.91 799.663 1105.91 795.866C1105.91 792.38 1103.68 789.284 1100.37 788.182L1087.41 783.86M1087.41 783.86L1081.24 765.356M871.54 823.952L879.293 820.629C888.316 816.762 898.277 815.637 907.935 817.393L919.982 819.583C924.537 820.411 929.238 819.554 933.208 817.172L937.379 814.669C940.536 812.775 942.467 809.363 942.467 805.682C942.467 800.297 946.548 795.788 951.906 795.252L973.305 793.112L1001.06 790.028L1025.11 787.623C1029.08 787.226 1032.79 789.632 1034.06 793.418C1034.66 795.218 1035.84 796.768 1037.42 797.821L1044.23 802.364M871.54 823.952L878.37 835.337C879.955 837.977 880.792 840.999 880.792 844.078C880.792 848.931 882.867 853.553 886.494 856.777L903.023 871.471C906.281 874.367 907.191 879.09 905.241 882.99C903.506 886.46 904.02 890.631 906.545 893.577L916.365 905.035C918.913 908.008 918.743 912.442 915.974 915.212C913.448 917.738 913.056 921.696 915.037 924.668L921.09 933.747C922.978 936.579 924.142 939.831 924.48 943.218L925.942 957.836C926.657 964.99 924.869 972.17 920.881 978.152M871.54 823.952L867.753 820.922C860.223 814.898 850.868 811.616 841.225 811.616H839.486C832.236 811.616 825.148 809.47 819.116 805.448M304.122 237.992L316.228 221.043C318.266 218.189 318.56 214.442 316.992 211.305C314.908 207.137 316.166 202.073 319.957 199.365L326.689 194.556C331.668 191 338.327 190.893 343.418 194.287L348.347 197.573C351.322 199.556 355.283 199.164 357.811 196.636C358.99 195.456 360.529 194.704 362.184 194.497L381.906 192.032C383.458 191.837 384.902 191.131 386.008 190.025L389.689 186.344C391.518 184.515 394.621 185.152 395.582 187.554L395.95 188.474C397.132 191.431 401.41 191.14 402.182 188.051C402.547 186.589 403.86 185.564 405.367 185.564H420.334C423.961 185.564 426.622 188.973 425.742 192.491C424.996 195.479 426.812 198.505 429.799 199.252L431.317 199.632C434.496 200.427 436.725 203.283 436.725 206.559V211.626C436.725 216.197 439.952 220.133 444.435 221.03C448.918 221.927 452.144 225.863 452.144 230.434V233.94C452.144 238.418 454.307 242.621 457.951 245.224L466.741 251.503C471.019 254.559 473.183 259.784 472.319 264.97C471.325 270.932 474.336 276.845 479.742 279.548L487.942 283.648C492.462 285.908 495.317 290.528 495.317 295.582V304.298C495.317 306.853 497.388 308.924 499.943 308.924C502.498 308.924 504.569 306.853 504.569 304.298V301.201C504.569 298.36 506.129 295.748 508.63 294.401L540.465 277.258C543.174 275.799 545.284 273.435 546.427 270.578C548.926 264.331 555.745 260.986 562.215 262.834L569.125 264.809C571.154 265.389 573.338 264.823 574.83 263.331L577.115 261.045C579.932 258.228 584.747 260.223 584.747 264.206V267.935C584.747 270.542 587.9 271.848 589.743 270.004C590.47 269.277 591.525 268.985 592.523 269.234L597.412 270.456C600.843 271.314 603.25 274.397 603.25 277.934C603.25 282.798 607.7 286.446 612.47 285.492L613.643 285.257C616.565 284.673 618.669 282.107 618.669 279.126C618.669 275.321 622.04 272.398 625.807 272.936L637.567 274.616C639.26 274.858 640.967 274.289 642.176 273.079C645.275 269.981 650.578 271.637 651.362 275.949L654.77 294.693C655.328 297.764 657.515 300.286 660.475 301.272C663.247 302.196 665.355 304.473 666.064 307.308L668.01 315.092M304.122 237.992L299.638 258.174C298.714 262.331 301.387 266.435 305.563 267.27L305.916 267.34C309.976 268.153 312.533 272.193 311.529 276.21L311.405 276.709C310.736 279.383 311.821 282.189 314.114 283.718C317.112 285.716 317.922 289.766 315.923 292.763L314.836 294.394C313.888 295.816 312.494 296.881 310.873 297.422C307.064 298.692 304.874 302.68 305.848 306.575L306.804 310.399C307.051 311.389 307.825 312.163 308.815 312.41L309.221 312.512C311.907 313.183 311.907 317.001 309.221 317.672C308.037 317.968 307.206 319.032 307.206 320.253V328.251C307.206 331.674 308.566 334.956 310.985 337.376L311.832 338.222C314.794 341.184 316.458 345.201 316.458 349.39V369.876C316.458 374.411 315.402 378.884 313.374 382.94M304.122 237.992L292.93 230.53C288.203 227.379 282.53 225.965 276.877 226.53L264.986 227.72C259.193 228.299 254.782 233.174 254.782 238.996V245.702C254.782 248.257 252.711 250.328 250.156 250.328C247.601 250.328 245.53 248.257 245.53 245.702C245.53 243.147 243.459 241.076 240.904 241.076H237.821C233.563 241.076 230.111 237.624 230.111 233.367V231.506C230.111 225.42 223.071 222.037 218.319 225.839C216.108 227.607 213.071 227.929 210.538 226.663L206.319 224.553C203.736 223.261 200.828 222.763 197.961 223.122L184.246 224.836C180.293 225.33 177.05 228.204 176.084 232.069C175.179 235.686 172.272 238.458 168.616 239.189L165.647 239.783C162.029 240.507 158.48 238.262 157.586 234.682C156.738 231.291 153.491 229.066 150.023 229.5L135.734 231.286C133.275 231.593 131.43 233.684 131.43 236.162C131.43 238.876 129.23 241.076 126.516 241.076H115.855C113.98 241.076 112.182 240.331 110.857 239.006C108.475 236.623 104.742 236.254 101.938 238.123L100.473 239.1C98.5652 240.371 97.2001 242.309 96.6441 244.533L96.487 245.161C95.2748 250.01 90.918 253.412 85.9198 253.412H73.7484C69.2164 253.412 64.87 255.212 61.6655 258.417L54.4454 265.638C51.0964 268.987 51.4019 274.504 55.1004 277.463C59.3002 280.823 59.0192 287.297 54.5441 290.281L52.3421 291.749C48.1954 294.514 46.7562 299.933 48.9849 304.391L49.3649 305.151C50.5782 307.578 50.8379 310.371 50.0925 312.98L48.6144 318.154C46.7325 324.741 51.004 331.499 57.7613 332.625L60.6632 333.109C62.4977 333.415 64.367 332.816 65.682 331.5L67.637 329.545C68.8062 328.376 70.702 328.376 71.8712 329.545C72.4851 330.159 73.3355 330.477 74.2016 330.415L100.863 328.51C110.739 327.805 120.183 324.183 127.998 318.104L143.765 305.84L121.594 328.012C120.062 329.544 119.528 331.81 120.213 333.866C121.271 337.041 124.817 338.633 127.893 337.315L134.961 334.286C138.69 332.687 142.682 335.927 141.887 339.905C141.263 343.023 143.648 345.932 146.828 345.932H157.93C160.326 345.932 162.268 347.874 162.268 350.27C162.268 352.879 159.981 354.898 157.392 354.575L139.17 352.297C138.123 352.166 137.088 351.954 136.074 351.665L116.011 345.932L94.36 338.715C90.6196 337.468 86.4958 338.441 83.7079 341.229C78.5013 346.436 80.1997 355.255 86.9678 358.156L87.207 358.259C91.4933 360.096 94.0723 364.522 93.5573 369.156L92.006 383.12C91.7191 385.702 94.4062 387.575 96.7296 386.413C97.2399 386.158 97.6746 385.774 97.991 385.3L100.361 381.745C105.778 373.619 116.399 370.798 125.134 375.166L133.355 379.277C134.126 379.662 134.927 379.994 135.745 380.267C140.822 381.959 144.911 385.806 146.899 390.775L147.777 392.971C149.148 396.399 148.988 400.249 147.337 403.551C145.148 407.93 140.673 410.696 135.777 410.696H116.011L91.3406 413.78L57.9435 416.563C55.6638 416.753 53.5956 417.974 52.3267 419.877C50.0296 423.323 50.9607 427.978 54.4065 430.276L55.2686 430.85C56.6707 431.785 58.3181 432.284 60.0033 432.284H63.4033C67.5256 432.284 71.5368 433.621 74.8346 436.095L77.6132 438.179C80.445 440.303 84.0832 441.038 87.5174 440.179C91.763 439.117 96.2469 440.502 99.1543 443.773L111.694 457.881C116.547 463.342 119.927 469.951 121.511 477.083L124.373 489.96C124.944 492.531 124.507 495.223 123.152 497.482C119.599 503.404 122.776 511.076 129.477 512.751L138.619 515.036C139.989 515.379 141.395 515.552 142.807 515.552H158.984C162.887 515.552 166.454 513.347 168.199 509.857L170.221 505.813C170.996 504.262 170.692 502.389 169.467 501.163L167.878 499.575C165.436 497.132 167.761 493.025 171.112 493.862C171.383 493.93 171.66 493.964 171.939 493.964H174.69C178.689 493.964 182.633 494.895 186.209 496.684L197.693 502.426C198.732 502.946 199.878 503.216 201.04 503.216H205.873C207.337 503.216 208.525 502.029 208.525 500.564C208.525 497.489 212.882 496.879 213.727 499.836L214.547 502.706C214.643 503.044 214.797 503.362 215 503.647L224.873 517.47C228.202 522.131 233.38 525.131 239.079 525.701L259.411 527.734C260.234 527.817 260.949 527.17 260.949 526.342C260.949 524.957 262.745 524.414 263.513 525.566L266.381 529.869C266.849 530.571 267.594 531.04 268.429 531.16L286.915 533.801C288.106 533.971 289.307 534.056 290.51 534.056H300.29C300.769 534.056 301.229 534.246 301.568 534.585C302.62 535.638 304.423 535.037 304.633 533.563L307.206 515.552M313.374 382.94L316.458 398.36M313.374 382.94L316.457 395.276M316.458 398.36L330.211 400.653C332.952 401.109 334.96 403.48 334.96 406.259C334.96 408.867 336.735 411.14 339.265 411.772L347.295 413.78M316.458 398.36L331.284 403.303C333.479 404.034 334.96 406.089 334.96 408.403C334.96 411.373 337.368 413.78 340.337 413.78L347.295 413.78M316.458 398.36L316.457 395.276M347.295 413.78L356.547 407.612M356.547 407.612L356.779 407.844C360.672 411.737 365.492 414.574 370.786 416.086L372.913 416.694C380.178 418.77 387.978 417.742 394.457 413.854L396.899 412.389C398.756 411.274 400.343 409.761 401.545 407.959C404.258 403.889 408.826 401.444 413.717 401.444H418.223M356.547 407.612C358.538 411.595 361.876 414.743 365.969 416.497L371.173 418.727C377.543 421.457 384.792 421.244 390.991 418.145L396.087 415.597C398.413 414.434 400.182 412.394 401.004 409.927C402.117 406.588 404.933 404.102 408.384 403.412L418.223 401.444M418.223 401.444L431.025 412.114C434.63 415.118 439.4 416.329 444.002 415.409C449.089 414.391 454.348 415.984 458.016 419.652L462.577 424.213C463.795 425.432 465.447 426.116 467.17 426.116C469.342 426.116 471.371 427.202 472.576 429.009L476.815 435.368M476.815 435.368H485.338C489.564 435.368 493.428 432.98 495.317 429.2M476.815 435.368H480.427C486.012 435.368 491.368 433.149 495.317 429.2M495.317 429.2L501.485 441.536M501.485 441.536C509.113 445.35 518.199 444.784 525.295 440.054L532.323 435.368M501.485 441.536C509.445 443.526 517.854 442.603 525.193 438.934L532.323 435.368M532.323 435.368V434.015C532.323 427.56 536.716 421.934 542.978 420.368C544.094 420.089 545.24 419.948 546.39 419.948H553.91M553.91 419.948C559.579 431.289 571.17 438.452 583.849 438.452L584.747 438.452M553.91 419.948C559.763 429.704 569.7 436.302 580.963 437.911L584.747 438.452M584.747 438.452L597.083 426.116M584.747 438.452L587.831 435.368M597.083 426.116L605.595 406.962C608.046 401.446 612.554 397.106 618.158 394.864L622.39 393.171C623.984 392.533 625.346 391.428 626.298 390L626.585 389.57C629.026 385.908 633.973 384.919 637.634 387.36C639.318 388.483 641.367 388.923 643.364 388.59L646.669 388.039C653.842 386.844 659.377 381.078 660.279 373.862L664.926 336.68L668.01 315.092M597.083 426.116L587.831 435.368M668.01 315.092L666.396 310.25C665.471 307.474 663.292 305.295 660.516 304.37C657.501 303.365 655.208 300.889 654.437 297.805L648.913 275.707C647.404 269.672 649.659 263.321 654.635 259.589L655.76 258.745C657.706 257.285 660.074 256.496 662.507 256.496H671.061C677.197 256.496 680.549 263.653 676.621 268.367C673.738 271.826 674.681 277.05 678.59 279.284L688.75 285.09C691.325 286.562 694.241 287.336 697.207 287.336L748.189 287.336M819.116 805.448L806.781 802.364M819.116 805.448C819.116 797.441 816.519 789.649 811.714 783.243L809.864 780.776M806.781 802.364L793.268 791.554C792.034 790.566 790.5 790.028 788.92 790.028C786.592 790.028 784.418 791.191 783.127 793.128L780.889 796.486C779.725 798.232 777.766 799.28 775.669 799.28H770.941C767.096 799.28 765.171 803.928 767.889 806.646C769.045 807.802 769.449 809.512 768.932 811.062L766.365 818.762C764.629 823.971 760.542 828.058 755.333 829.794L749.62 831.699C746.853 832.621 743.802 831.901 741.739 829.838C739.981 828.08 739.18 825.58 739.589 823.127L741.61 810.997C741.88 809.378 741.75 807.718 741.231 806.161C739.861 802.052 736.015 799.28 731.684 799.28H730.64C728.054 799.28 725.575 800.307 723.747 802.135C721.653 804.229 720.625 807.161 720.952 810.104L723.111 829.536C723.377 831.937 724.283 834.224 725.732 836.157L727.915 839.067C730.701 842.781 730.331 847.978 727.049 851.261C724.843 853.467 721.681 854.425 718.622 853.813L708.099 851.708L694.437 847.804C689.478 846.387 685.537 842.614 683.906 837.721C681.78 831.34 675.808 827.036 669.082 827.036H668.73C666.229 827.036 663.761 826.454 661.523 825.335L652.887 821.016C648.691 818.918 645.289 815.516 643.191 811.32L641.083 807.103C640.544 806.024 639.697 805.129 638.649 804.53L620.252 794.016C619.821 793.77 619.995 793.112 620.492 793.112C620.935 793.112 621.145 792.565 620.815 792.268L595.607 769.579C592.633 766.903 588.626 765.683 584.666 766.249L576.128 767.469C572.313 768.014 568.737 765.483 567.982 761.705C567.083 757.212 570.519 753.02 575.101 753.02H575.453C577.455 753.02 579.375 752.225 580.791 750.809L584.019 747.58C588.246 743.354 589.721 737.102 587.831 731.432L585.595 722.486C585.106 720.532 586.108 718.513 587.959 717.719L590.66 716.562C594.159 715.062 593.088 709.844 589.281 709.844C588.353 709.844 587.462 710.213 586.806 710.869L579.478 718.198C574.954 722.722 568.818 725.264 562.42 725.264H553.675C551.874 725.264 550.171 724.446 549.046 723.04L542.435 714.776C541.127 713.14 538.491 714.065 538.491 716.159C538.491 717.631 537.082 718.694 535.667 718.289L517.831 713.193C517.214 713.017 516.615 712.784 516.042 712.497L515.669 712.311C509.956 709.454 508.331 702.057 512.321 697.069C515.051 693.657 515.258 688.871 512.835 685.236L510.97 682.439C510.815 682.206 510.637 681.988 510.439 681.79C508.866 680.218 508.77 677.701 510.217 676.013L525.369 658.334C525.813 657.816 525.783 657.044 525.3 656.561L525.252 656.513C524.447 655.708 525.017 654.332 526.155 654.332M806.781 802.364C811.332 803.881 816.032 800.494 816.032 795.696V794.906C816.032 793.726 815.757 792.563 815.23 791.508L809.864 780.776M695.764 15.9441L698.687 24.7121C700.828 31.1358 704.251 37.0577 708.749 42.1186L717.979 52.503C723.634 58.865 727.571 66.5652 729.417 74.8742L731.988 86.4451C732.499 88.7408 733.653 90.8434 735.316 92.5063C737.634 94.8253 738.937 97.9704 738.937 101.25V125.61C738.937 132.606 740.405 139.523 743.246 145.916L751.272 163.976M751.272 163.976V184.526C751.272 191.311 749.849 198.019 747.093 204.219L746.673 205.164C741.72 216.31 741.397 228.968 745.775 240.352L750.708 253.178C752.995 259.125 758.035 263.584 764.216 265.129L771.926 267.057C776.099 268.1 779.026 271.85 779.026 276.151C779.026 279.285 777.46 282.212 774.852 283.951L773.118 285.107C770.938 286.561 768.377 287.336 765.757 287.336H748.189M751.272 163.976L768.556 151.012C773.439 147.35 778.952 144.612 784.821 142.935L788.838 141.787C807.341 136.5 821.168 121.064 824.394 102.092L827.873 81.6293C828.621 77.2296 829.955 72.9499 831.838 68.9042L840.702 49.8681M748.189 287.336L751.272 299.672L757.44 321.26M757.44 321.26L768.695 330.64C773.484 334.631 778.978 337.692 784.893 339.664L785.194 339.764M757.44 321.26L769.401 333.222C773.589 337.411 779.27 339.764 785.194 339.764M785.194 339.764L791.615 331.202C793.397 328.826 796.193 327.428 799.162 327.428C802.028 327.428 804.739 326.125 806.529 323.887L808.865 320.968C812.859 315.975 820.096 315.056 825.211 318.892C827.26 320.429 829.752 321.26 832.313 321.26H836.663C839.338 321.26 841.996 321.691 844.534 322.537L849.954 324.344M849.954 324.344V327.428M849.954 324.344L846.87 358.268M849.954 327.428L868.456 330.512M849.954 327.428L846.87 358.268M868.456 330.512C874.126 324.842 882.513 322.862 890.12 325.398L896.211 327.428M868.456 330.512C876.116 324.767 886.218 323.431 895.108 326.987L896.211 327.428M896.211 327.428L914.713 312.008M896.211 327.428L902.378 342.848M914.713 312.008L919.704 294.541C920.485 291.807 920.881 288.978 920.881 286.134V283.196C920.881 281.853 921.097 280.518 921.522 279.244C923.019 274.753 921.85 269.802 918.503 266.454L911.63 259.58M914.713 312.008L905.963 320.759C900.139 326.584 898.695 335.481 902.378 342.848M911.63 259.58L883.875 241.076M911.63 259.58L899.294 253.412M883.875 241.076H871.329C865.625 241.076 860.241 238.443 856.739 233.94L852.676 228.716C846.831 221.2 850.173 210.163 859.205 207.152M883.875 241.076L899.294 253.412M859.205 207.152L861.243 202.056C863.65 196.039 861.513 189.159 856.121 185.564M859.205 207.152L859.522 206.519C863.016 199.53 861.646 191.089 856.121 185.564M856.121 185.564L859.205 182.48C862.611 179.074 868.134 179.074 871.54 182.48M856.121 185.564L859.635 183.221C863.183 180.856 867.726 180.573 871.54 182.48M871.54 182.48L878.561 178.268C884.107 174.94 888.955 170.567 892.836 165.392L896.211 160.892M871.54 182.48C881.543 178.479 889.96 171.31 895.503 162.072L896.211 160.892M896.211 160.892L898.422 149.834C898.987 147.007 898.594 144.072 897.305 141.494L894.897 136.677C893.84 134.562 894.254 132.008 895.926 130.337C897.859 128.404 898.076 125.344 896.436 123.157L894.333 120.353C891.791 116.963 891.791 112.302 894.333 108.911L896.275 106.322C898.008 104.012 897.778 100.779 895.736 98.7375C892.935 95.9367 888.214 96.7029 886.442 100.246L883.875 105.38M883.875 105.38L872.071 98.2969C869.665 96.8536 867.386 95.2104 865.256 93.3848L846.87 77.6241M883.875 105.38L877.985 103.024C871.698 100.509 865.988 96.743 861.2 91.9547L846.87 77.6241M846.87 77.6241V68.3721M846.87 68.3721L847.906 66.8184C851.252 61.7987 853.037 55.9009 853.037 49.8681M846.87 68.3721C850.819 64.4228 853.037 59.0665 853.037 53.4815L853.037 49.8681M853.037 49.8681H840.702M853.037 49.8681L867.522 45.5224C877.964 42.3896 889.234 43.6783 898.699 49.0874C903.165 51.6396 908.084 53.3017 913.183 53.9816L988.044 63.9637C994.6 64.8379 1000.92 67.0041 1006.63 70.3369L1014.47 74.9085C1027.45 82.4814 1043.15 83.8136 1057.22 78.5364L1079.79 70.0707C1082.81 68.9409 1085.7 67.5231 1088.44 65.8368L1117.26 48.1042C1121.99 45.1886 1127.18 43.084 1132.61 41.8772L1152.17 37.5321M840.702 49.8681V25.1961M316.457 395.276L308.513 399.249C301.569 402.721 293.913 404.528 286.151 404.528H285.62M285.62 404.528L278.134 409.02C273.212 411.973 270.201 417.292 270.201 423.032M285.62 404.528L275.017 413.011C271.973 415.446 270.201 419.134 270.201 423.032M270.201 423.032L279.452 444.62M279.452 444.62C283.212 455.9 293.187 463.965 305.005 465.278L313.374 466.208M279.452 444.62C281.319 453.958 288.618 461.257 297.956 463.124L313.374 466.208M313.374 466.208L325.709 478.544M325.709 478.544C329.115 475.138 334.638 475.138 338.044 478.544L341.128 481.628M325.709 478.544C328.72 474.028 335.291 473.845 338.548 478.188L341.128 481.628M341.128 481.628L341.038 481.807C339.051 485.782 337.602 490.004 336.731 494.362L334.96 503.216M341.128 481.628C337.179 485.577 334.96 490.934 334.96 496.519V503.216M334.96 503.216C331.078 503.216 327.422 505.044 325.092 508.15L319.541 515.552M334.96 503.216C329.29 503.216 324.107 506.42 321.572 511.491L319.541 515.552M319.541 515.552H307.206M307.206 515.552L304.545 524.865C302.321 532.652 303.627 541.024 308.119 547.762L310.307 551.044C312.295 554.025 315.219 556.259 318.618 557.393L330.739 561.433C331.392 561.651 332.105 561.355 332.413 560.74L332.855 559.855C333.536 558.494 335.599 559.257 335.23 560.734C335.075 561.351 335.401 561.988 335.992 562.225L347.444 566.806C349.38 567.581 351.14 568.741 352.615 570.216L368.834 586.436C370.908 588.511 372.634 590.906 373.946 593.529C376.66 598.957 377.487 605.135 376.297 611.086L375.05 617.324L373.739 622.565C372.659 626.888 374.197 631.445 377.677 634.229L381.996 637.685C384.893 640.003 389.155 639.341 391.213 636.254C392.63 634.128 392.63 631.36 391.213 629.235L389.311 626.382C388.055 624.498 387.385 622.284 387.385 620.019V612.55C387.385 608.709 390.994 605.891 394.72 606.822L395.816 607.096C398.053 607.655 400.358 606.477 401.214 604.336L402.554 600.986C403.691 598.143 407.757 598.262 408.726 601.168C408.887 601.652 409.159 602.092 409.52 602.453L414.419 607.353C418.054 610.988 424.066 610.56 427.15 606.448C429.211 603.7 429.403 599.979 427.636 597.034L421.306 586.484L430.401 600.127C432.362 603.068 435.904 604.536 439.371 603.842L445.767 602.563C447.516 602.213 448.562 600.41 447.998 598.718C447.2 596.323 449.569 594.089 451.913 595.027L460.055 598.284C460.94 598.638 461.743 599.167 462.416 599.841L469.78 607.205C472.077 609.502 472.434 613.102 470.631 615.806C468.843 618.488 465.421 619.551 462.428 618.354L440.639 609.638C438.265 608.688 435.553 609.245 433.745 611.053C430.66 614.138 431.504 619.339 435.406 621.29L437.669 622.422C439.067 623.121 440.236 624.204 441.04 625.544L442.721 628.346C446.591 634.796 453.836 638.434 461.322 637.686L509.576 632.86C510.345 632.783 511.122 632.821 511.88 632.973L519.154 634.428C522.147 635.026 523.265 638.719 521.107 640.877C520.39 641.594 519.988 642.565 519.988 643.579V648.165C519.988 651.571 522.749 654.332 526.155 654.332M526.155 654.332L535.407 645.08M535.407 645.08C539.356 649.029 544.712 651.248 550.297 651.248H560.077M535.407 645.08C541.439 649.102 548.527 651.248 555.777 651.248H560.077M560.077 651.248L576.7 641.749C579.998 639.864 583.501 638.361 587.14 637.269L612.502 629.66M560.077 651.248L581.664 641.996L612.502 629.66M612.502 629.66L614.961 602.603C615.349 598.334 617.919 594.569 621.753 592.652M612.502 629.66L612.983 624.848C614.613 608.544 624.128 594.074 638.451 586.116L643.339 583.4M621.753 592.652L609.418 571.064M621.753 592.652L643.339 583.4M609.418 571.064L616.016 564.466C617.481 563 617.481 560.624 616.016 559.159C615.731 558.874 615.493 558.544 615.313 558.183L615.205 557.967C613.778 555.113 615.21 551.657 618.236 550.648L621.753 549.476M609.418 571.064L616.288 566.484C617.775 565.492 618.669 563.822 618.669 562.034V560.549C618.669 559.433 618.039 558.413 617.041 557.914C615.018 556.903 614.843 554.083 616.724 552.829L621.753 549.476M621.753 549.476L628.541 540.424C630.084 538.367 630.519 535.685 629.706 533.246C628.64 530.046 625.646 527.888 622.273 527.888H618.669M621.753 549.476L628.45 542.779C630.085 541.143 631.004 538.924 631.004 536.611C631.004 531.793 627.099 527.888 622.281 527.888H618.669M618.669 527.888L615.585 515.552M615.585 515.552C621.11 510.027 622.48 501.586 618.986 494.598L618.78 494.186C616.722 490.07 613.225 486.852 608.952 485.143L600.166 481.628M615.585 515.552C619.399 509.831 619.855 502.505 616.78 496.354L615.877 494.547C613.686 490.165 610.133 486.612 605.751 484.42L600.166 481.628M600.166 481.628H586.653C585.4 481.628 584.164 481.336 583.043 480.776C580.308 479.408 578.58 476.612 578.58 473.554V472.376M578.58 472.376L580.358 470.597C585.219 465.737 588.439 459.479 589.569 452.699C590.453 447.394 590.026 441.952 588.325 436.85L587.831 435.368M578.58 472.376C584.482 468.441 588.493 462.238 589.659 455.24L589.915 453.706C590.575 449.747 590.413 445.695 589.439 441.801L587.831 435.368M643.339 583.4L700.546 578.199C707.159 577.598 712.99 573.618 715.959 567.679C716.881 565.836 718.093 564.153 719.55 562.696L726.602 555.644M643.339 583.4L706.476 577.91C711.205 577.498 715.238 574.317 716.74 569.813C717.144 568.599 717.742 567.458 718.51 566.434L726.602 555.644M726.602 555.644L738.655 554.137C746.259 553.187 752.497 547.659 754.356 540.224M754.356 540.224L754.655 540.284C764.392 542.231 773.069 547.7 779.026 555.644M754.356 540.224C763.922 540.224 772.786 545.243 777.708 553.446L779.026 555.644M779.026 555.644L803.697 561.812M779.026 555.644L800.613 561.812M803.697 561.812L806.781 552.56M803.697 561.812H800.613M803.697 561.812C805.466 558.273 809.569 556.574 813.323 557.825L822.367 560.84C824.299 561.484 826.321 561.812 828.357 561.812H839.421C842.292 561.812 845.123 562.48 847.69 563.764L852.343 566.091C858.025 568.932 864.933 567.098 868.456 561.812M806.781 552.56L811.928 534.544C812.607 532.166 813.462 529.842 814.485 527.59L827.427 499.117C828.049 497.749 828.911 496.504 829.974 495.441L830.508 494.907C833.035 492.38 836.627 491.229 840.152 491.816C846.897 492.941 853.037 487.739 853.037 480.901V467.485C853.037 464.693 851.928 462.015 849.954 460.04C847.979 458.066 846.87 455.387 846.87 452.595V427.908C846.87 424.679 846.349 421.47 845.328 418.406C844.307 415.342 843.786 412.134 843.786 408.904V402.986C843.786 397.981 845.453 393.053 848.456 389.049C851.402 385.121 853.037 380.286 853.037 375.376V368.248C853.037 364.022 850.65 360.158 846.87 358.268M806.781 552.56C805.51 553.831 806.235 556.007 808.014 556.261L824.542 558.622C825.036 558.693 825.533 558.728 826.032 558.728H834.704C838.615 558.728 842.439 559.886 845.693 562.055L848.319 563.806C854.649 568.026 863.077 567.192 868.456 561.812M809.864 780.776H798.807C796.059 780.776 794.683 777.454 796.626 775.511C797.204 774.933 797.529 774.149 797.529 773.331V771.232C797.529 767.723 799.774 764.608 803.103 763.498L806.781 762.272M806.781 762.272L808.807 754.167C809.463 751.542 808.694 748.765 806.781 746.852M806.781 762.272L809.864 756.104C811.568 752.698 810.187 748.555 806.781 746.852M806.781 746.852V739.763C806.781 735.162 803.051 731.432 798.45 731.432C795.919 731.432 793.525 730.282 791.944 728.305L782.11 716.012M782.11 716.012C782.11 708.452 786.382 701.54 793.144 698.159L794.445 697.508M782.11 716.012C782.11 710.188 784.852 704.703 789.512 701.209L794.445 697.508M794.445 697.508L819.116 694.424H841.233C848.996 694.424 856.652 692.617 863.595 689.145L865.373 688.256M865.373 688.256L864.043 678.948C862.914 671.044 858.893 663.838 852.76 658.727C846.961 653.894 839.653 651.248 832.105 651.248H825.283M865.373 688.256L863.67 674.638C862.783 667.535 859.23 661.035 853.731 656.452C847.417 651.19 839.123 648.941 831.016 650.293L825.283 651.248M825.283 651.248C821.503 649.358 819.116 645.495 819.116 641.268V635.299C819.116 631.688 820.55 628.226 823.103 625.673C827.893 620.882 828.432 613.299 824.367 607.879L822.2 604.988M822.2 604.988L814.595 589.778C813.504 587.596 812.069 585.605 810.344 583.88L808.058 581.594C805.266 578.801 803.697 575.013 803.697 571.064V569.257C803.697 566.465 802.587 563.787 800.613 561.812M822.2 604.988L814.97 588.118C813.664 585.072 811.322 582.587 808.358 581.105C803.611 578.731 800.613 573.88 800.613 568.573V561.812M1081.24 765.356L1091.22 727.906C1092.77 722.103 1095.57 716.706 1099.41 712.091C1105.6 704.661 1108.99 695.296 1108.99 685.624V675.92M1081.24 765.356L1090.99 731.22C1092.69 725.264 1095.66 719.745 1099.69 715.041C1107.58 705.839 1111.22 693.735 1109.72 681.709L1108.99 675.92M1108.99 675.92L1119.56 662.709C1120.7 661.279 1121.33 659.503 1121.33 657.672C1121.33 655.533 1120.48 653.483 1118.97 651.971L1115.16 648.164M1115.16 648.164L1118.24 638.912M1115.16 648.164L1127.49 626.576M1118.24 638.912L1112.52 637.768C1106.12 636.487 1100.03 633.964 1094.59 630.341L1063.06 609.318C1058.76 606.449 1054.04 604.265 1049.06 602.844L1015.22 593.173C1014.01 592.827 1012.76 592.652 1011.5 592.652H1010.31C1003.5 592.652 997.976 587.129 997.976 580.316M1118.24 638.912L1127.49 626.576M997.976 580.316L993.915 578.286C988.473 575.565 982.473 574.148 976.389 574.148M997.976 580.316L988.724 574.148M976.389 574.148L972.952 572.675C962.229 568.079 949.756 571.205 942.467 580.316M976.389 574.148L988.724 574.148M976.389 574.148C965.34 568.623 951.994 570.789 943.259 579.525L942.467 580.316M942.467 580.316H914.713M914.713 580.316L902.378 574.148L868.456 561.812M914.713 580.316L868.456 561.812M1090.49 373.688L1112.37 353.994C1118.14 348.804 1125.62 345.932 1133.38 345.932H1138.81C1145.28 345.932 1151.37 348.977 1155.25 354.151C1157.27 356.854 1158.6 360.015 1159.12 363.354L1162.6 386.018C1163.77 393.596 1169.07 399.885 1176.35 402.309C1180.66 403.747 1184.37 406.582 1186.9 410.366L1191.16 416.77C1193.77 420.682 1198.16 423.032 1202.86 423.032H1210.76C1214.16 423.032 1216.93 425.794 1216.93 429.2M1090.49 373.688H1075.07M1090.49 373.688L1071.99 373.688M1075.07 373.688L1066.75 376.067C1058.3 378.481 1051.25 384.332 1047.32 392.192M1075.07 373.688L1071.99 373.688M1047.32 392.192L1045.44 405.302C1044.64 410.913 1044.8 416.62 1045.91 422.178L1047.32 429.2M1047.32 392.192L1045.39 407.597C1044.63 413.722 1045 419.936 1046.5 425.925L1047.32 429.2M1047.32 429.2L1036.31 438.376C1031.41 442.458 1027.75 447.824 1025.73 453.872M1025.73 453.872C1027.67 457.755 1027.67 462.325 1025.73 466.208L1022.65 472.376M1025.73 453.872C1027.68 459.71 1026.82 466.119 1023.4 471.239L1022.65 472.376M1022.65 472.376C1024.06 475.21 1022 478.544 1018.83 478.544H1012.93C1009.52 478.544 1006.5 480.723 1005.42 483.954L1005.27 484.42C1004.55 486.582 1004.72 488.941 1005.73 490.979L1011.07 501.643C1012.53 504.575 1012.53 508.025 1011.07 510.957C1010.57 511.958 1009.91 512.871 1009.12 513.663L1004.14 518.636M1004.14 518.636L993.001 520.865C990.212 521.422 987.651 522.793 985.641 524.804M1004.14 518.636L995.62 518.636C991.394 518.636 987.53 521.024 985.641 524.804M985.641 524.804C989.59 528.753 991.808 534.11 991.808 539.695V556.783C991.808 562.156 990.942 567.495 989.243 572.593L988.724 574.148M1127.49 626.576L1147.07 640.561C1148.38 641.494 1149.94 641.996 1151.55 641.996H1153.47C1157.51 641.996 1160.47 638.201 1159.49 634.284L1157.97 628.201C1157.06 624.565 1161.22 621.803 1164.22 624.051C1166.05 625.422 1168.65 624.976 1169.92 623.075L1172.14 619.744C1173.18 618.184 1174.75 617.052 1176.56 616.559L1207.67 608.072M1207.67 608.072L1201.51 592.652M1207.67 608.072L1206.18 605.082C1205.12 602.966 1204.21 600.778 1203.47 598.533L1201.51 592.652M1201.51 592.652L1203.5 590.658C1208.29 585.869 1214 582.103 1220.29 579.588L1226.18 577.232M1223.09 419.948C1221.25 419.948 1219.62 421.127 1219.03 422.874L1216.93 429.2M1216.93 429.2L1219.26 419.856C1219.7 418.097 1221.28 416.864 1223.09 416.864M902.378 342.848L905.554 345.23C911.043 349.347 918.531 349.555 924.24 345.749L928.27 343.062C931.265 341.065 935.167 341.065 938.162 343.062C940.824 344.837 944.234 345.049 947.096 343.618L963.045 335.642C969.748 332.291 977.263 330.908 984.72 331.654L997.671 332.949C1001.92 333.374 1006.22 332.767 1010.18 331.18L1014.69 329.379C1017.83 328.122 1020.4 325.756 1021.91 322.73L1023.04 320.468C1024.69 317.173 1028.06 315.092 1031.74 315.092C1033.84 315.092 1035.89 315.775 1037.57 317.037L1040.41 319.162C1044.82 322.474 1047.7 327.437 1048.39 332.914L1049.25 339.791C1049.96 345.483 1053.71 350.339 1059.03 352.469C1063.34 354.191 1066.66 357.721 1068.13 362.119L1071.99 373.688M1152.17 37.5321L1154.81 74.602C1155.07 78.2446 1157.65 81.3072 1161.19 82.1929L1165.91 83.3746C1166.9 83.6199 1167.58 84.5018 1167.58 85.5135C1167.58 86.3486 1167.11 87.112 1166.37 87.4855L1163.32 89.0077C1159.08 91.1272 1157.74 96.532 1160.49 100.388L1168.52 111.618C1169.94 113.61 1170.97 115.851 1171.57 118.225L1175.62 134.46C1176.42 137.64 1176.42 140.968 1175.62 144.148L1174.88 147.116C1174.16 150.027 1172.37 152.562 1169.87 154.227L1167.63 155.721C1165.68 157.025 1164.5 159.22 1164.5 161.571C1164.5 164.797 1166.7 167.609 1169.83 168.392L1171.74 168.871C1174.91 169.664 1177.46 172.022 1178.5 175.124L1179.92 179.396M1152.17 37.5321L1166.58 35.73C1173.23 34.8992 1179.41 31.8766 1184.14 27.1401L1187.54 23.7402C1188.61 22.6695 1189.92 21.8628 1191.35 21.384C1195.53 19.9931 1200.11 21.567 1202.55 25.2266L1205.68 29.9085C1208.85 34.6713 1214.2 37.5321 1219.92 37.5321H1226.18M1152.17 37.5321C1152.53 37.5321 1152.59 36.9997 1152.23 36.9273L1125.19 31.5197C1124.68 31.4177 1124.2 31.1863 1123.81 30.8478L1117.21 25.1888C1108.2 17.4638 1103.53 5.8215 1104.71 -5.98928L1104.89 -7.76354C1105.56 -14.4643 1107.92 -20.8848 1111.75 -26.4218L1126.77 -48.1138C1131.3 -54.6579 1137.33 -60.026 1144.35 -63.7716L1179.92 -82.7439M899.294 253.412L914.95 246.702C918.868 245.023 922.429 242.611 925.443 239.597L930.133 234.908C935.842 229.198 944.199 227.032 951.963 229.251C957.723 230.896 963.903 230.148 969.103 227.176L982.557 219.488L985.205 218.164C990.855 215.339 997.711 216.845 1001.66 221.778C1005.03 225.995 1010.61 227.774 1015.8 226.291L1019.96 225.101C1025.58 223.497 1031.61 224.439 1036.47 227.678L1037.33 228.253C1043.56 232.405 1051.46 233.13 1058.34 230.182L1065.31 227.195C1067.7 226.172 1069.97 224.895 1072.08 223.385L1086.89 212.808C1089.28 211.101 1091.42 209.073 1093.25 206.781L1100.51 197.706C1101.97 195.879 1104.19 194.816 1106.53 194.816H1107.2C1110.11 194.816 1112.7 196.679 1113.62 199.442L1114.18 201.142C1114.77 202.89 1116.4 204.068 1118.24 204.068C1120.09 204.068 1121.72 202.89 1122.3 201.143L1122.99 199.087C1123.86 196.47 1126.14 194.57 1128.87 194.179L1142.58 192.22C1144.81 191.902 1147.07 192.27 1149.08 193.274C1151.09 194.278 1153.36 194.646 1155.58 194.328L1173.75 191.732M1173.75 191.732L1179.92 179.396M1173.75 191.732C1171.8 199.537 1173.47 207.805 1178.3 214.241L1179.92 216.404M1179.92 179.396L1174.81 194.74C1172.27 202.347 1174.25 210.734 1179.92 216.404M1226.18 244.16L1219.89 237.877C1217.93 235.918 1216.39 233.582 1215.37 231.01C1212.53 223.929 1206 219.012 1198.41 218.253L1179.92 216.404" stroke="#F9FBFF" stroke-width="6"/>
</g>
<defs>
<clipPath id="clip0_103_109">
<rect width="895" height="895" fill="white"/>
</clipPath>
</defs>
</svg>
