<svg width="48" height="48" viewBox="0 0 48 48" fill="none" xmlns="http://www.w3.org/2000/svg">
<g clip-path="url(#clip0_113_123)">
<path d="M39.269 8.55097C35.3631 2.9752 27.649 1.3226 22.0716 4.86683L12.2759 11.094C10.9527 11.9244 9.81763 13.0209 8.94342 14.3137C8.0692 15.6064 7.47504 17.0669 7.19889 18.6017C6.73159 21.187 7.14228 23.8539 8.36593 26.1802C7.52744 27.4488 6.95555 28.8738 6.68483 30.3691C6.40579 31.9349 6.44302 33.5404 6.79433 35.0916C7.14565 36.6428 7.80397 38.1084 8.73069 39.4024C12.6373 44.9787 20.3514 46.6307 25.9281 43.0864L35.7238 36.8595C37.0471 36.0293 38.1822 34.9327 39.0565 33.6399C39.9307 32.3471 40.5248 30.8866 40.8008 29.3517C41.268 26.7665 40.8576 24.0996 39.6346 21.7731C40.4728 20.5044 41.0444 19.0794 41.3149 17.5842C41.5941 16.0185 41.557 14.413 41.2057 12.8618C40.8544 11.3106 40.1959 9.84495 39.269 8.55097Z" fill="#FF3E00"/>
<path d="M21.1138 39.9328C17.9553 40.7519 14.62 39.5188 12.7598 36.8444C12.2023 36.066 11.8062 35.1844 11.5948 34.2512C11.3834 33.3181 11.361 32.3522 11.529 31.4103C11.5858 31.1011 11.6641 30.7961 11.7632 30.4977L11.9477 29.9365L12.4496 30.3043C13.609 31.1539 14.9053 31.7999 16.2827 32.2143L16.6468 32.3245L16.6133 32.6871C16.5687 33.2028 16.7087 33.7176 17.0084 34.1402C17.2817 34.5335 17.6694 34.8337 18.1192 35.0002C18.569 35.1667 19.0592 35.1915 19.5236 35.0713C19.7366 35.0145 19.9396 34.9255 20.1256 34.8074L29.9242 28.5794C30.164 28.4289 30.3697 28.2301 30.5282 27.9959C30.6867 27.7616 30.7945 27.497 30.8449 27.2189C30.8951 26.935 30.8882 26.644 30.8246 26.3628C30.7609 26.0816 30.6417 25.8158 30.4739 25.5811C30.2005 25.1877 29.8126 24.8874 29.3627 24.7208C28.9127 24.5542 28.4224 24.5293 27.9578 24.6494C27.7451 24.7062 27.5424 24.7951 27.3567 24.913L23.6175 27.2904C23.0027 27.6803 22.3317 27.9742 21.6278 28.1619C18.4695 28.981 15.1341 27.7479 13.2742 25.0734C12.7166 24.295 12.3204 23.4134 12.109 22.4803C11.8977 21.5472 11.8753 20.5813 12.0432 19.6394C12.2092 18.7162 12.5667 17.8378 13.0926 17.0602C13.6185 16.2827 14.3014 15.6232 15.0975 15.1239L24.8953 8.89521C25.5104 8.50469 26.1818 8.21046 26.8863 8.02276C30.0446 7.20362 33.38 8.43676 35.24 11.1111C35.7976 11.8895 36.1937 12.7712 36.4051 13.7043C36.6165 14.6375 36.6389 15.6033 36.471 16.5452C36.4139 16.8544 36.3356 17.1593 36.2368 17.4578L36.0522 18.019L35.5504 17.6518C34.3912 16.8017 33.0948 16.1554 31.7173 15.7409L31.353 15.6306L31.3867 15.2682C31.4308 14.7525 31.2909 14.2378 30.9916 13.8151C30.7182 13.4217 30.3305 13.1215 29.8807 12.955C29.4308 12.7885 28.9406 12.7637 28.4762 12.884C28.2633 12.9408 28.0603 13.0298 27.8744 13.1478L18.0757 19.3761C17.836 19.5266 17.6303 19.7252 17.4719 19.9595C17.3134 20.1937 17.2057 20.4583 17.1556 20.7363C17.1051 21.0202 17.1118 21.3113 17.1754 21.5926C17.239 21.8738 17.3582 22.1396 17.526 22.3743C17.7994 22.7677 18.1873 23.068 18.6373 23.2346C19.0872 23.4012 19.5776 23.4261 20.0422 23.306C20.2551 23.2491 20.458 23.1601 20.644 23.0421L24.3826 20.6657C24.9972 20.2752 25.6681 19.981 26.3721 19.7934C29.5304 18.9744 32.8658 20.2075 34.7259 22.882C35.2835 23.6604 35.6795 24.542 35.8909 25.4751C36.1023 26.4082 36.1247 27.374 35.9568 28.3158C35.7906 29.2391 35.4331 30.1177 34.9072 30.8953C34.3813 31.673 33.6985 32.3327 32.9025 32.8322L23.1047 39.0603C22.4895 39.4509 21.8182 39.7451 21.1138 39.9328Z" fill="white"/>
</g>
<defs>
<clipPath id="clip0_113_123">
<rect width="35" height="42" fill="white" transform="translate(6.5 3)"/>
</clipPath>
</defs>
</svg>
