<svg width="48" height="48" viewBox="0 0 48 48" fill="none" xmlns="http://www.w3.org/2000/svg">
<g clip-path="url(#clip0_113_122)">
<path d="M24.0809 19.4883C21.6475 19.4883 19.6749 21.4899 19.6749 23.959C19.6749 26.4281 21.6475 28.4297 24.0809 28.4297C26.5143 28.4297 28.4869 26.4281 28.4869 23.959C28.4869 21.4899 26.5143 19.4883 24.0809 19.4883Z" fill="#087EA4"/>
<path d="M46.9968 23.9995C46.9968 20.4897 43.7936 17.4114 38.6935 15.3855C38.7616 14.9293 38.8233 14.478 38.8671 14.0349C39.3701 8.99169 38.1726 5.35172 35.4968 3.78374C32.5029 2.02964 28.2742 3.3028 23.9984 6.77477C19.7226 3.3028 15.4939 2.02964 12.5 3.78374C9.82418 5.35172 8.62664 8.99169 9.12967 14.0349C9.17349 14.478 9.23353 14.9309 9.3033 15.3888C8.87816 15.5535 8.46113 15.7281 8.06032 15.9109C3.50706 17.9878 1 20.8636 1 23.9995C1 27.5094 4.20319 30.5877 9.3033 32.6136C9.23353 33.0698 9.17349 33.5211 9.12967 33.9641C8.62664 39.0074 9.82418 42.6474 12.5 44.2153C13.42 44.7447 14.4624 45.0153 15.5198 44.9993C18.0545 44.9993 21.0142 43.6455 23.9984 41.2243C26.9809 43.6455 29.9423 44.9993 32.4802 44.9993C33.5375 45.0151 34.5799 44.7445 35.5 44.2153C38.1758 42.6474 39.3734 39.0074 38.8703 33.9641C38.8265 33.5211 38.7649 33.0698 38.6967 32.6136C43.7968 30.591 47 27.5077 47 23.9995M32.4607 5.22325C33.1406 5.20661 33.8126 5.37373 34.4079 5.70748C36.2659 6.79618 37.1 9.74933 36.6943 13.8093C36.6667 14.086 36.6343 14.366 36.5953 14.6476C34.4747 13.9994 32.3031 13.5371 30.1046 13.2658C28.7718 11.4676 27.2897 9.78861 25.6746 8.24722C28.2109 6.2576 30.5914 5.22325 32.4591 5.22325M31.5877 28.4466C30.767 29.8924 29.8733 31.2942 28.9103 32.6465C27.2778 32.8167 25.6378 32.9014 23.9968 32.9002C22.3563 32.9013 20.7168 32.8167 19.0849 32.6465C18.1244 31.2942 17.2334 29.8923 16.4155 28.4466C15.5949 27.0047 14.8491 25.5204 14.1811 23.9995C14.8491 22.4787 15.5949 20.9943 16.4155 19.5525C17.2321 18.1126 18.1203 16.7157 19.0768 15.3674C20.7117 15.193 22.3545 15.1061 23.9984 15.1071C25.6389 15.1061 27.2783 15.1908 28.9103 15.3608C29.87 16.7112 30.7614 18.1102 31.5812 19.5525C32.4012 20.9947 33.147 22.479 33.8156 23.9995C33.147 25.5201 32.4012 27.0044 31.5812 28.4466M34.9321 26.7995C35.4471 28.2249 35.8699 29.6829 36.1978 31.1642C34.7748 31.6144 33.3242 31.9693 31.8554 32.2265C32.4136 31.3723 32.9545 30.4834 33.4781 29.56C33.9958 28.6475 34.4809 27.7268 34.9385 26.8061M20.9169 35.0232C21.9262 35.0858 22.9566 35.122 24 35.122C25.0434 35.122 26.0803 35.0858 27.0912 35.0232C26.1327 36.1885 25.1001 37.2889 24 38.3173C22.9023 37.289 21.8724 36.1886 20.9169 35.0232ZM16.1429 32.2232C14.6737 31.9672 13.2226 31.6134 11.799 31.1642C12.1256 29.6852 12.5467 28.2295 13.0598 26.8061C13.5109 27.7268 13.9945 28.6475 14.5202 29.56C15.046 30.4724 15.5896 31.3717 16.1429 32.2265M13.0598 21.1913C12.5486 19.7733 12.1285 18.323 11.8022 16.8497C13.2223 16.4 14.6695 16.044 16.1348 15.7841C15.5799 16.6356 15.0363 17.5184 14.5121 18.4391C13.988 19.3598 13.5093 20.269 13.0517 21.1913M27.0815 12.9742C26.0722 12.9116 25.0418 12.8754 23.9903 12.8754C22.9474 12.8754 21.9197 12.9084 20.9072 12.9742C21.8626 11.8088 22.8925 10.7084 23.9903 9.68015C25.0908 10.7081 26.1234 11.8085 27.0815 12.9742ZM33.4749 18.4391C32.9491 17.5146 32.4055 16.6252 31.8441 15.7709C33.3168 16.0281 34.7711 16.3836 36.1978 16.8349C35.8704 18.3136 35.4493 19.7694 34.9369 21.193C34.4858 20.2723 34.0006 19.3516 33.4765 18.4408M11.3089 13.8109C10.8984 9.75262 11.7373 6.79783 13.5937 5.70913C14.1892 5.37589 14.8611 5.20881 15.5409 5.2249C17.4086 5.2249 19.7891 6.25924 22.3254 8.24887C20.7092 9.79136 19.226 11.4714 17.8922 13.2707C15.6943 13.5433 13.523 14.0039 11.4014 14.6476C11.3641 14.366 11.33 14.0876 11.3041 13.8109M8.95929 17.9384C9.20919 17.8286 9.46395 17.7188 9.72358 17.609C10.234 19.7947 10.9261 21.9326 11.7925 23.9995C10.9245 26.0706 10.2318 28.2129 9.72196 30.4032C5.58734 28.6821 3.19063 26.2972 3.19063 23.9995C3.19063 21.8221 5.30013 19.6135 8.95929 17.9384ZM13.5937 42.2899C11.7373 41.2012 10.8984 38.2465 11.3089 34.1881C11.3349 33.9114 11.369 33.6331 11.4063 33.3498C13.527 33.9978 15.6985 34.4602 17.8971 34.7317C19.2303 36.5305 20.7123 38.2105 22.327 39.7535C18.7912 42.5255 15.5604 43.4396 13.5986 42.2899M36.6927 34.1881C37.0983 38.2481 36.2643 41.2012 34.4063 42.2899C32.4461 43.4429 29.2137 42.5255 25.6795 39.7535C27.2937 38.2105 28.7752 36.5305 30.1078 34.7317C32.3063 34.4603 34.4779 33.998 36.5986 33.3498C36.6375 33.6331 36.67 33.9114 36.6975 34.1881M38.2845 30.3999C37.7733 28.2109 37.08 26.0697 36.2124 23.9995C37.0797 21.9282 37.7723 19.786 38.2829 17.5958C42.4094 19.317 44.8126 21.7019 44.8126 23.9995C44.8126 26.2972 42.4159 28.6821 38.2813 30.4032" fill="#087EA4"/>
</g>
<defs>
<clipPath id="clip0_113_122">
<rect width="46" height="42" fill="white" transform="translate(1 3)"/>
</clipPath>
</defs>
</svg>
