<svg width="48" height="48" viewBox="0 0 48 48" fill="none" xmlns="http://www.w3.org/2000/svg">
<g clip-path="url(#clip0_113_171)">
<path d="M23.8491 3C13.1863 3 13.8517 7.62394 13.8517 7.62394L13.8649 12.4146H24.0394V13.8517H9.82106C9.82106 13.8517 3 13.0774 3 23.8372C3 34.5945 8.95481 34.2139 8.95481 34.2139H12.5091V29.2211C12.5091 29.2211 12.3174 23.2663 18.3694 23.2663H28.4599C28.4599 23.2663 34.1299 23.3582 34.1299 17.7866V8.57419C34.1299 8.57419 34.9909 3 23.8491 3ZM18.2381 6.22088C18.7237 6.22088 19.1894 6.41378 19.5328 6.75715C19.8762 7.10051 20.0691 7.56622 20.0691 8.05181C20.0691 8.53741 19.8762 9.00311 19.5328 9.34648C19.1894 9.68985 18.7237 9.88275 18.2381 9.88275C17.9976 9.88309 17.7593 9.83597 17.537 9.74408C17.3148 9.65219 17.1128 9.51734 16.9427 9.34725C16.7726 9.17716 16.6377 8.97519 16.5459 8.75289C16.454 8.53059 16.4068 8.29235 16.4072 8.05181C16.4072 7.03988 17.2262 6.22088 18.2381 6.22088Z" fill="url(#paint0_linear_113_171)"/>
<path d="M24.151 44.7806C34.8137 44.7806 34.1483 40.1567 34.1483 40.1567L34.1352 35.3661H23.9607V33.9289H38.1777C38.1777 33.9289 45 34.7033 45 23.9447C45 13.1861 39.0452 13.5681 39.0452 13.5681H35.491V18.5595C35.491 18.5595 35.6826 24.5143 29.6307 24.5143H19.5402C19.5402 24.5143 13.8702 24.4225 13.8702 29.994V39.2065C13.8702 39.2065 13.0092 44.7806 24.151 44.7806ZM29.7619 41.5598C29.5214 41.5601 29.2831 41.513 29.0608 41.4211C28.8385 41.3292 28.6366 41.1944 28.4665 41.0243C28.2964 40.8542 28.1615 40.6522 28.0696 40.4299C27.9778 40.2076 27.9306 39.9694 27.931 39.7288C27.9312 39.3671 28.0387 39.0135 28.2399 38.7128C28.441 38.4122 28.7268 38.1779 29.061 38.0395C29.3953 37.9012 29.7631 37.8651 30.1179 37.9357C30.4727 38.0064 30.7985 38.1806 31.0543 38.4364C31.3101 38.6922 31.4844 39.0181 31.555 39.3729C31.6256 39.7277 31.5895 40.0954 31.4512 40.4297C31.3129 40.764 31.0786 41.0497 30.7779 41.2509C30.4772 41.452 30.1237 41.5595 29.7619 41.5598Z" fill="url(#paint1_linear_113_171)"/>
</g>
<defs>
<linearGradient id="paint0_linear_113_171" x1="7.03594" y1="6.65137" x2="27.8036" y2="27.4886" gradientUnits="userSpaceOnUse">
<stop stop-color="#387EB8"/>
<stop offset="1" stop-color="#366994"/>
</linearGradient>
<linearGradient id="paint1_linear_113_171" x1="19.8119" y1="19.9075" x2="42.1165" y2="41.2763" gradientUnits="userSpaceOnUse">
<stop stop-color="#FFE052"/>
<stop offset="1" stop-color="#FFC331"/>
</linearGradient>
<clipPath id="clip0_113_171">
<rect width="42" height="42" fill="white" transform="translate(3 3)"/>
</clipPath>
</defs>
</svg>
