<svg width="48" height="48" viewBox="0 0 48 48" fill="none" xmlns="http://www.w3.org/2000/svg">
<g clip-path="url(#clip0_113_150)">
<mask id="mask0_113_150" style="mask-type:luminance" maskUnits="userSpaceOnUse" x="2" y="3" width="44" height="42">
<path d="M45.0085 3H2.5V45H45.0085V3Z" fill="white"/>
</mask>
<g mask="url(#mask0_113_150)">
<path d="M37.481 3H10.0275C5.87019 3 2.5 6.41526 2.5 10.6282V37.3718C2.5 41.5847 5.87019 45 10.0275 45H37.481C41.6383 45 45.0085 41.5847 45.0085 37.3718V10.6282C45.0085 6.41526 41.6383 3 37.481 3Z" fill="#00005B"/>
<path d="M19.577 28.1285H12.9897L11.6495 32.3556C11.6312 32.4326 11.5871 32.5007 11.5246 32.5481C11.4621 32.5956 11.3853 32.6195 11.3073 32.6157H7.9709C7.78067 32.6157 7.71409 32.5097 7.77129 32.2978L13.4745 15.7217C13.5315 15.5484 13.5886 15.3788 13.6456 15.1571C13.7203 14.7716 13.7585 14.3797 13.7597 13.9868C13.7558 13.9593 13.7583 13.9314 13.767 13.905C13.7756 13.8787 13.7903 13.8548 13.8096 13.8351C13.829 13.8155 13.8526 13.8007 13.8786 13.7919C13.9045 13.7831 13.9322 13.7806 13.9593 13.7845H18.4934C18.6261 13.7845 18.7022 13.8327 18.7215 13.929L25.1947 32.3267C25.2517 32.5195 25.1946 32.6158 25.0236 32.6157H21.3165C21.2528 32.6229 21.1887 32.6063 21.1363 32.5691C21.0838 32.5318 21.0465 32.4765 21.0314 32.4134L19.577 28.1285ZM14.0164 24.5643H18.5219C18.4078 24.1792 18.2747 23.7457 18.1226 23.2639C17.9703 22.7826 17.8087 22.2672 17.6379 21.7179C17.4668 21.1689 17.2957 20.6198 17.1246 20.0708C16.9536 19.5217 16.7967 18.9919 16.6541 18.4814C16.5115 17.9712 16.3832 17.504 16.2691 17.0799H16.2406C16.0801 17.8603 15.8803 18.6319 15.6417 19.3917C15.3753 20.2586 15.1044 21.1448 14.829 22.0502C14.5533 22.956 14.2824 23.794 14.0164 24.5643Z" fill="#9999FF"/>
<path d="M35.6886 26.4829H30.0709C30.1397 27.0462 30.3243 27.5886 30.6128 28.0751C30.9316 28.5569 31.3826 28.9335 31.9102 29.1588C32.6251 29.4722 33.3984 29.6259 34.1773 29.6091C34.7952 29.597 35.4107 29.5285 36.0165 29.4044C36.5583 29.3303 37.0893 29.19 37.5979 28.9867C37.6927 28.9099 37.7405 28.9578 37.7405 29.1311V31.8764C37.7452 31.9512 37.7304 32.0259 37.6977 32.0931C37.665 32.1457 37.6212 32.1901 37.5693 32.2231C37.0052 32.4764 36.4115 32.6556 35.8027 32.7565C34.9754 32.9139 34.1348 32.9865 33.2932 32.9733C31.9431 32.9733 30.812 32.7613 29.8998 32.3375C29.0374 31.9525 28.2758 31.3687 27.6756 30.6325C27.1149 29.9389 26.6978 29.1379 26.4493 28.2774C26.2032 27.428 26.0784 26.5474 26.0786 25.6622C26.076 24.6956 26.2252 23.7348 26.5207 22.8158C26.8052 21.9193 27.2551 21.0858 27.8467 20.3595C28.4301 19.6417 29.1596 19.0601 29.9854 18.6545C30.8217 18.2405 31.8104 18.0919 32.951 18.0919C33.897 18.0677 34.8366 18.2552 35.7028 18.641C36.4313 18.9558 37.0726 19.4466 37.5706 20.0705C38.0378 20.6814 38.395 21.3711 38.6257 22.1078C38.8504 22.8177 38.9659 23.5585 38.9679 24.304C38.9679 24.728 38.9537 25.1133 38.9251 25.4599C38.8967 25.8066 38.8729 26.0571 38.8538 26.2112C38.8465 26.2749 38.8162 26.3337 38.7689 26.3763C38.7216 26.4189 38.6605 26.4424 38.5972 26.4424C38.4831 26.4424 38.2883 26.4569 38.0126 26.4858C37.7368 26.5147 37.3946 26.5339 36.9861 26.5435C36.577 26.5535 36.1448 26.4829 35.6886 26.4829ZM30.0709 23.8505H33.8065C34.2628 23.8505 34.6002 23.8457 34.8188 23.8361C34.9651 23.8212 35.1063 23.7738 35.2324 23.6971V23.5237C35.2266 23.2977 35.1882 23.0738 35.1183 22.8591C34.9644 22.3661 34.6551 21.9379 34.2378 21.6403C33.8205 21.3428 33.3184 21.1923 32.8085 21.2119C32.3286 21.1825 31.8506 21.2953 31.4329 21.5365C31.0152 21.7777 30.6757 22.1368 30.4559 22.5701C30.2605 22.9732 30.1305 23.4055 30.0709 23.8505Z" fill="#9999FF"/>
</g>
</g>
<defs>
<clipPath id="clip0_113_150">
<rect width="43" height="42" fill="white" transform="translate(2.5 3)"/>
</clipPath>
</defs>
</svg>
