<svg width="128" height="28" viewBox="0 0 128 28" fill="none" xmlns="http://www.w3.org/2000/svg">
<path fill-rule="evenodd" clip-rule="evenodd" d="M5.46024 6.52032C5.59808 7.1298 5.78893 7.76208 6.03141 8.40471C5.41212 8.4674 4.82501 8.5649 4.27909 8.6962C3.27374 8.93801 2.34098 9.31055 1.60025 9.85049C0.852843 10.3953 0.224433 11.1731 0.0478311 12.2031C-0.128771 13.2331 0.20307 14.185 0.724209 14.9598C1.24069 15.7277 1.9933 16.4059 2.8576 16.9867C3.01906 17.0952 3.18642 17.2017 3.35937 17.3059C5.04753 18.3316 7.27481 19.1456 9.72927 19.5906C12.4973 20.0926 15.1307 19.8239 17.1321 19.2292C17.2415 19.1967 17.3497 19.163 17.4564 19.1283C17.1624 20.4036 16.9624 21.62 16.8683 22.6978C16.7765 23.7505 16.7783 24.7491 16.9315 25.568C17.0474 26.1873 17.3368 27.161 18.1691 27.6522C18.2801 27.7211 18.4011 27.7813 18.533 27.8307C19.5363 28.2062 20.4571 27.7245 21.0291 27.2921C21.6509 26.8219 22.2501 26.1277 22.805 25.3347C23.9263 23.7323 25.0582 21.4487 25.9738 18.8619C26.8893 16.2752 27.4495 13.7776 27.5921 11.8089C27.6627 10.8346 27.6376 9.9067 27.4551 9.13546C27.3077 8.51268 26.9781 7.68312 26.221 7.23575C26.1051 7.16391 25.9788 7.10113 25.8413 7.04967C24.943 6.71342 24.0839 7.02111 23.464 7.4141C22.8312 7.81536 22.2344 8.42974 21.6875 9.14698C21.3041 9.64995 20.9212 10.2354 20.5462 10.8942C19.9332 9.28712 18.9631 7.47821 17.5299 5.72171C15.9866 3.83026 14.2604 2.29776 12.6092 1.30228C12.3716 1.15795 12.1355 1.02469 11.9016 0.903034C10.9803 0.423699 10.033 0.0924872 9.12805 0.0164573C8.21497 -0.0602577 7.24744 0.120151 6.46837 0.792432L6.49536 0.825509C5.72758 1.4945 5.3738 2.46088 5.25013 3.4016C5.12433 4.3585 5.21381 5.43068 5.46024 6.52032ZM10.7051 3.43646C10.8739 3.52429 11.0463 3.62114 11.2217 3.72678C12.5382 4.52724 14.0194 5.81957 15.396 7.50678C16.2665 8.57361 16.9317 9.65563 17.427 10.6696C15.81 9.78059 13.7771 9.07689 11.5586 8.6746C10.6868 8.51651 9.82643 8.41224 8.99302 8.36008C8.58841 7.49553 8.29882 6.65313 8.12466 5.88303C7.92971 5.02105 7.89178 4.30496 7.96099 3.77851C8.03172 3.24051 8.19249 3.03332 8.26509 2.97068C8.33428 2.91097 8.51201 2.80725 8.94366 2.84352C9.38346 2.88047 9.98026 3.05935 10.7051 3.43646ZM10.1659 16.797C7.97722 16.4001 6.09034 15.6903 4.74695 14.8815C4.62407 14.8068 4.50582 14.7312 4.3924 14.655C3.71242 14.198 3.26339 13.7559 3.01237 13.3827C2.766 13.0164 2.76448 12.8063 2.78016 12.7148C2.79585 12.6233 2.86717 12.4264 3.2205 12.1688C3.5805 11.9064 4.14948 11.6489 4.94043 11.4587C5.64012 11.2904 6.46127 11.1872 7.36903 11.1628C7.81892 11.9166 8.3363 12.6605 8.91901 13.3747C10.2999 15.067 11.9336 16.2527 13.5543 16.9873C12.4955 17.0569 11.3459 17.0109 10.1659 16.797ZM11.1219 11.4683C13.3107 11.8652 15.1976 12.575 16.541 13.3838C16.6639 13.4585 16.7821 13.5341 16.8954 13.6103C17.5754 14.0672 18.0245 14.5093 18.2755 14.8825C18.3089 14.9322 18.3378 14.979 18.3627 15.023C18.246 15.0493 18.1137 15.0711 17.9647 15.0857C17.4021 15.1407 16.6911 15.0827 15.895 14.8636C14.3053 14.4261 12.4928 13.3781 11.0145 11.5664C10.9776 11.5211 10.9409 11.4756 10.9046 11.4301C10.9768 11.4424 11.0493 11.4551 11.1219 11.4683ZM23.8786 10.9059C24.2399 10.4321 24.5507 10.1211 24.7908 9.93587C24.8547 10.308 24.8781 10.8542 24.8258 11.5767C24.7066 13.2222 24.2197 15.4612 23.3648 17.8765C22.51 20.2919 21.4835 22.3289 20.5463 23.6683C20.1925 24.1739 19.8771 24.5428 19.6167 24.7906C19.5671 24.3461 19.5647 23.7355 19.6313 22.9725C19.7848 21.2136 20.2791 18.922 21.0664 16.6206C21.1075 16.5304 21.1442 16.4355 21.1747 16.336C21.2437 16.1847 21.2916 16.033 21.3256 15.8916C22.1425 13.6807 23.057 11.9837 23.8786 10.9059Z" fill="#29947A"/>
<path d="M30.6201 22.6217V3.09436H38.0956C39.5852 3.09436 40.8725 3.3242 41.9575 3.78388C43.0609 4.22518 43.9068 4.94228 44.4953 5.9352C45.1021 6.90973 45.4056 8.19684 45.4056 9.79654C45.4056 11.3227 45.0746 12.6006 44.4125 13.6303C43.7505 14.6416 42.8402 15.4047 41.6816 15.9195C40.5415 16.416 39.2358 16.6642 37.7646 16.6642H34.3165V22.6217H30.6201ZM34.3165 13.3545H37.7094C38.9231 13.3545 39.8978 13.0603 40.6334 12.4719C41.369 11.8835 41.7368 10.9825 41.7368 9.76896C41.7368 8.6841 41.4242 7.87506 40.7989 7.34183C40.192 6.79021 39.2358 6.5144 37.9301 6.5144H34.3165V13.3545Z" fill="#29947A"/>
<path d="M50.7853 22.7872C49.9026 22.7872 49.075 22.6401 48.3027 22.3459C47.5487 22.0333 46.9418 21.5644 46.4821 20.9393C46.0223 20.2957 45.7925 19.4867 45.7925 18.5121C45.7925 17.795 45.9212 17.1882 46.1786 16.6918C46.4545 16.1769 46.8131 15.754 47.2545 15.4231C47.7142 15.0737 48.2383 14.7979 48.8268 14.5956C49.4153 14.3934 50.0221 14.2371 50.6474 14.1268C51.291 13.998 52.0082 13.8969 52.799 13.8234C53.5898 13.7498 54.4357 13.6671 55.3368 13.5751C55.3368 13.0235 55.2265 12.5546 55.0058 12.1685C54.7851 11.764 54.4725 11.4606 54.0679 11.2583C53.6633 11.0377 53.1668 10.9274 52.5783 10.9274C51.9531 10.9274 51.4106 11.0377 50.9508 11.2583C50.4911 11.4606 50.1417 11.81 49.9026 12.3064H46.2338C46.4177 11.2032 46.8223 10.3298 47.4475 9.68621C48.0912 9.04266 48.8728 8.58298 49.7923 8.30716C50.7117 8.01297 51.6588 7.86587 52.6335 7.86587C54.1231 7.86587 55.3184 8.13249 56.2195 8.66572C57.1206 9.19895 57.7734 9.98041 58.178 11.0101C58.5826 12.0214 58.7849 13.2626 58.7849 14.7335V22.6217H56.0741L55.392 20.8565C54.969 21.3714 54.4817 21.7759 53.93 22.0701C53.3967 22.3459 52.8542 22.5298 52.3025 22.6217C51.7692 22.732 51.2634 22.7872 50.7853 22.7872ZM51.5301 19.8636C52.2289 19.8636 52.8542 19.7349 53.4059 19.4775C53.9759 19.22 54.4265 18.8523 54.7575 18.3742C55.1069 17.8778 55.3 17.2894 55.3368 16.609V16.0574C54.9322 16.0942 54.5276 16.1402 54.1231 16.1953C53.7185 16.2321 53.3047 16.2781 52.8817 16.3332C52.4772 16.37 52.0726 16.4252 51.668 16.4987C50.9876 16.5907 50.4359 16.7837 50.0129 17.0779C49.59 17.3721 49.3785 17.7766 49.3785 18.2915C49.3785 18.696 49.4888 19.0178 49.7095 19.2568C49.9486 19.4775 50.2336 19.6338 50.5646 19.7257C50.8956 19.8176 51.2175 19.8636 51.5301 19.8636Z" fill="#29947A"/>
<path d="M60.5339 28V8.08652H63.4102L64.0924 9.96203C64.6808 9.22653 65.3613 8.6933 66.1337 8.36233C66.906 8.01297 67.7611 7.83829 68.699 7.83829C70.1334 7.83829 71.3196 8.16926 72.2575 8.8312C73.1953 9.49315 73.8942 10.3941 74.3539 11.5341C74.832 12.6558 75.0711 13.9153 75.0711 15.3127C75.0711 16.747 74.8228 18.0341 74.3263 19.1741C73.8482 20.2957 73.1218 21.1875 72.1471 21.8494C71.1909 22.493 69.9863 22.8148 68.5335 22.8148C67.8715 22.8148 67.2646 22.7412 66.7129 22.5941C66.1612 22.447 65.6647 22.2448 65.2233 21.9873C64.8004 21.7115 64.4418 21.4081 64.1475 21.0772V28H60.5339ZM67.9267 19.5602C68.8278 19.5602 69.5358 19.358 70.0507 18.9534C70.5656 18.5489 70.9334 18.0341 71.1541 17.4089C71.3748 16.7653 71.4851 16.0942 71.4851 15.3955C71.4851 14.66 71.3656 13.9705 71.1265 13.3269C70.9058 12.665 70.5288 12.1317 69.9955 11.7272C69.4622 11.3227 68.7542 11.1204 67.8715 11.1204C67.0623 11.1204 66.3727 11.3227 65.8026 11.7272C65.2509 12.1133 64.828 12.6282 64.5337 13.2717C64.2579 13.9153 64.12 14.614 64.12 15.3679C64.12 16.1218 64.2579 16.8205 64.5337 17.4641C64.8096 18.0892 65.2233 18.5949 65.775 18.981C66.3451 19.3671 67.0623 19.5602 67.9267 19.5602Z" fill="#29947A"/>
<path d="M76.6285 22.6217V8.08652H80.2421V22.6217H76.6285ZM78.4491 6.5144C77.7687 6.5144 77.217 6.31214 76.794 5.90762C76.3895 5.48471 76.1872 4.95148 76.1872 4.30792C76.1872 3.64597 76.3986 3.10355 76.8216 2.68064C77.263 2.25773 77.8147 2.04628 78.4767 2.04628C79.0836 2.04628 79.6077 2.25773 80.049 2.68064C80.5088 3.08516 80.7387 3.61839 80.7387 4.28034C80.7387 4.94228 80.518 5.48471 80.0766 5.90762C79.6536 6.31214 79.1112 6.5144 78.4491 6.5144Z" fill="#29947A"/>
<path d="M86.8375 22.7872C85.7709 22.7872 84.8789 22.6033 84.1617 22.2356C83.4629 21.8494 82.9388 21.2794 82.5894 20.5256C82.2584 19.7717 82.0929 18.8339 82.0929 17.7123V3.09436H85.7065V16.9952C85.7065 17.4916 85.7525 17.9237 85.8444 18.2915C85.9548 18.6592 86.1386 18.9442 86.3961 19.1465C86.672 19.3488 87.0581 19.4499 87.5547 19.4499C87.9225 19.4499 88.2719 19.3947 88.6029 19.2844C88.9339 19.1557 89.2374 18.981 89.5132 18.7604L90.3583 21.546C90.0633 22.1101 89.4948 22.3551 88.8512 22.539C88.2259 22.7045 87.5547 22.7872 86.8375 22.7872Z" fill="#29947A"/>
<path d="M95.4793 22.7872C94.4126 22.7872 93.5207 22.6033 92.8035 22.2356C92.1047 21.8494 91.5806 21.2794 91.2312 20.5256C90.9002 19.7717 90.7347 18.8339 90.7347 17.7123V3.09436H94.3483V16.9952C94.3483 17.4916 94.3943 17.9237 94.4862 18.2915C94.5965 18.6592 94.7804 18.9442 95.0379 19.1465C95.3138 19.3488 95.6999 19.4499 96.1965 19.4499C96.5643 19.4499 96.9137 19.3947 97.2447 19.2844C97.5757 19.1557 97.8791 18.981 98.155 18.7604L99.3411 21.546C98.7527 22.0241 98.1366 22.3551 97.493 22.539C96.8677 22.7045 96.1965 22.7872 95.4793 22.7872Z" fill="#29947A"/>
<path d="M106.052 22.8148C104.562 22.8148 103.275 22.5114 102.19 21.9046C101.105 21.2978 100.259 20.4428 99.6523 19.3396C99.0639 18.2179 98.7696 16.8941 98.7696 15.3679C98.7696 13.8234 99.073 12.4903 99.6799 11.3687C100.287 10.247 101.133 9.38282 102.218 8.77604C103.303 8.15087 104.572 7.83829 106.024 7.83829C107.496 7.83829 108.764 8.15087 109.831 8.77604C110.916 9.40121 111.753 10.2838 112.341 11.4238C112.93 12.5454 113.224 13.8785 113.224 15.4231C113.224 16.9308 112.93 18.2455 112.341 19.3671C111.771 20.4704 110.953 21.3254 109.886 21.9322C108.82 22.5206 107.542 22.8148 106.052 22.8148ZM105.997 19.5051C106.88 19.5051 107.588 19.312 108.121 18.9259C108.673 18.5397 109.068 18.0341 109.307 17.4089C109.546 16.7837 109.666 16.1126 109.666 15.3955C109.666 14.6784 109.546 13.998 109.307 13.3545C109.068 12.7109 108.682 12.1869 108.148 11.7824C107.615 11.3778 106.898 11.1756 105.997 11.1756C105.132 11.1756 104.424 11.3778 103.873 11.7824C103.339 12.1869 102.944 12.7109 102.687 13.3545C102.448 13.9797 102.328 14.66 102.328 15.3955C102.328 16.1126 102.448 16.7929 102.687 17.4365C102.944 18.0616 103.339 18.5673 103.873 18.9534C104.424 19.3212 105.132 19.5051 105.997 19.5051Z" fill="#29947A"/>
<path d="M114.428 22.6217V8.08652H117.332L118.014 9.8517C118.4 9.33685 118.851 8.94153 119.366 8.66572C119.899 8.37152 120.442 8.16007 120.993 8.03135C121.545 7.90264 122.06 7.83829 122.538 7.83829C123.917 7.83829 125.002 8.14168 125.793 8.74846C126.584 9.35524 127.145 10.1735 127.476 11.2032C127.825 12.2145 128 13.3453 128 14.5956V22.6217H124.386V15.1197C124.386 14.6232 124.35 14.1451 124.276 13.6855C124.202 13.2074 124.065 12.7753 123.862 12.3892C123.66 12.003 123.375 11.6996 123.007 11.479C122.639 11.2399 122.152 11.1204 121.545 11.1204C120.773 11.1204 120.12 11.3227 119.587 11.7272C119.072 12.1133 118.686 12.6374 118.428 13.2993C118.171 13.9613 118.042 14.706 118.042 15.5334V22.6217H114.428Z" fill="#29947A"/>
</svg>
